G75*
%MOIN*%
%OFA0B0*%
%FSLAX24Y24*%
%IPPOS*%
%LPD*%
%AMOC8*
5,1,8,0,0,1.08239X$1,22.5*
%
%ADD10C,0.0010*%
%ADD11R,0.0433X0.0394*%
%ADD12R,0.0472X0.0472*%
%ADD13OC8,0.0660*%
%ADD14C,0.2100*%
%ADD15C,0.0740*%
%ADD16R,0.0669X0.0709*%
%ADD17R,0.0256X0.0689*%
%ADD18R,0.1260X0.0906*%
%ADD19R,0.0630X0.0512*%
%ADD20C,0.0732*%
%ADD21R,0.0866X0.0236*%
%ADD22R,0.1063X0.0630*%
%ADD23R,0.1102X0.0394*%
%ADD24R,0.0512X0.0630*%
%ADD25R,0.0394X0.0433*%
%ADD26C,0.0660*%
%ADD27C,0.0660*%
%ADD28C,0.0320*%
%ADD29C,0.0160*%
%ADD30C,0.0100*%
%ADD31C,0.0200*%
%ADD32C,0.0280*%
%ADD33C,0.0240*%
%ADD34C,0.0400*%
%ADD35C,0.0480*%
%ADD36C,0.0320*%
%ADD37C,0.0400*%
D10*
X000233Y000914D02*
X000233Y016614D01*
X015933Y016614D01*
X015933Y000914D01*
X000233Y000914D01*
D11*
X005183Y002729D03*
X005783Y002729D03*
X006383Y002729D03*
X006983Y002729D03*
X006983Y003398D03*
X006383Y003398D03*
X005783Y003398D03*
X005183Y003398D03*
X004368Y008264D03*
X003699Y008264D03*
X008299Y008264D03*
X008968Y008264D03*
D12*
X006983Y002077D03*
X006383Y002077D03*
X005783Y002077D03*
X005183Y002077D03*
X005183Y001250D03*
X005783Y001250D03*
X006383Y001250D03*
X006983Y001250D03*
D13*
X004483Y004264D03*
X003483Y004264D03*
X002583Y004264D03*
X002583Y005264D03*
X003483Y005264D03*
X004483Y005264D03*
X004483Y006264D03*
X002583Y006264D03*
X002583Y007264D03*
X002583Y008264D03*
X002583Y009264D03*
X002583Y010264D03*
X002583Y011264D03*
X002583Y012264D03*
X002583Y013264D03*
X001583Y013264D03*
X001583Y012264D03*
X001583Y011264D03*
X001583Y010264D03*
X001583Y009264D03*
X001583Y008264D03*
X001583Y007264D03*
X001583Y006264D03*
X001583Y005264D03*
X001583Y004264D03*
X013583Y004264D03*
X013583Y005264D03*
X013583Y006264D03*
X013583Y007264D03*
X013583Y008264D03*
X013583Y009264D03*
X013583Y010264D03*
X013583Y011264D03*
X013583Y012264D03*
X013583Y013264D03*
X014583Y013264D03*
X014583Y012264D03*
X014583Y011264D03*
X014583Y010264D03*
X014583Y009264D03*
X014583Y008264D03*
X014583Y007264D03*
X014583Y006264D03*
X014583Y005264D03*
X014583Y004264D03*
D14*
X014583Y002264D03*
X014583Y015264D03*
X001583Y015264D03*
X001583Y002264D03*
D15*
X011833Y001564D03*
X012833Y001564D03*
X015483Y005264D03*
X015483Y006264D03*
X015483Y007264D03*
X015483Y008264D03*
X015483Y009264D03*
X015483Y010264D03*
X015483Y011264D03*
X015483Y012264D03*
X015483Y013264D03*
D16*
X012383Y004221D03*
X012383Y002607D03*
D17*
X012133Y009761D03*
X011633Y009761D03*
X011133Y009761D03*
X012633Y009761D03*
X012633Y011966D03*
X012133Y011966D03*
X011633Y011966D03*
X011133Y011966D03*
X008033Y011966D03*
X007533Y011966D03*
X007033Y011966D03*
X006533Y011966D03*
X006533Y009761D03*
X007033Y009761D03*
X007533Y009761D03*
X008033Y009761D03*
D18*
X007283Y010864D03*
X011883Y010864D03*
D19*
X009283Y010557D03*
X009283Y009770D03*
X004683Y009770D03*
X004683Y010557D03*
D20*
X004383Y002630D02*
X004383Y001898D01*
X003383Y001898D02*
X003383Y002630D01*
X007783Y002630D02*
X007783Y001898D01*
X008783Y001898D02*
X008783Y002630D01*
X009783Y002630D02*
X009783Y001898D01*
X010783Y001898D02*
X010783Y002630D01*
D21*
X009910Y006764D03*
X009910Y007264D03*
X009910Y007764D03*
X009910Y008264D03*
X011957Y008264D03*
X011957Y007764D03*
X011957Y007264D03*
X011957Y006764D03*
X007407Y006764D03*
X007407Y007264D03*
X007407Y007764D03*
X007407Y008264D03*
X005360Y008264D03*
X005360Y007764D03*
X005360Y007264D03*
X005360Y006764D03*
D22*
X005683Y009813D03*
X005683Y010915D03*
X010283Y010915D03*
X010283Y009813D03*
D23*
X009458Y004914D03*
X011309Y004914D03*
D24*
X010627Y008914D03*
X009840Y008914D03*
X005827Y008914D03*
X005040Y008914D03*
D25*
X004368Y007714D03*
X004368Y007114D03*
X003699Y007114D03*
X003699Y007714D03*
X008299Y007714D03*
X008299Y007114D03*
X008968Y007114D03*
X008968Y007714D03*
D26*
X003483Y006264D03*
D27*
X003583Y014934D02*
X003583Y015594D01*
X004583Y015594D02*
X004583Y014934D01*
X005583Y014934D02*
X005583Y015594D01*
X006583Y015594D02*
X006583Y014934D01*
X007583Y014934D02*
X007583Y015594D01*
X008583Y015594D02*
X008583Y014934D01*
X009583Y014934D02*
X009583Y015594D01*
X010583Y015594D02*
X010583Y014934D01*
X011583Y014934D02*
X011583Y015594D01*
X012583Y015594D02*
X012583Y014934D01*
D28*
X010583Y014014D03*
X009583Y014014D03*
X008583Y014014D03*
X007533Y012614D03*
X007033Y012614D03*
X006533Y012614D03*
X004233Y013314D03*
X003533Y013564D03*
X003183Y013814D03*
X004483Y009314D03*
X006083Y006664D03*
X005360Y006340D03*
X007683Y006314D03*
X008333Y006664D03*
X009183Y009264D03*
X008383Y003914D03*
X006433Y003864D03*
X005833Y003864D03*
D29*
X007407Y006764D02*
X007407Y007264D01*
X007407Y007764D02*
X007407Y008264D01*
X005977Y007857D02*
X005883Y007764D01*
X005360Y007764D01*
X005977Y007857D02*
X005977Y008820D01*
X005883Y008914D01*
X005827Y008914D01*
X007533Y009761D02*
X007533Y010864D01*
X007633Y010864D02*
X008033Y010864D01*
X008033Y011966D01*
X008583Y014014D02*
X008583Y015264D01*
X009583Y015264D02*
X009583Y014014D01*
X010583Y014014D02*
X010583Y015264D01*
X013583Y012264D02*
X014083Y012764D01*
X014983Y012764D01*
X015483Y013264D01*
X012583Y008264D02*
X011957Y008264D01*
X011957Y007764D02*
X012583Y007764D01*
X010627Y007857D02*
X010533Y007764D01*
X009910Y007764D01*
X010627Y007857D02*
X010627Y008914D01*
X005583Y014664D02*
X005583Y015264D01*
X005583Y014664D02*
X004233Y013314D01*
X003533Y013564D02*
X004583Y014614D01*
X004583Y015264D01*
X003583Y015264D02*
X003583Y014214D01*
X003183Y013814D01*
D30*
X003077Y014084D02*
X001806Y014084D01*
X001785Y014079D02*
X001916Y014109D01*
X002043Y014153D01*
X002165Y014212D01*
X002279Y014284D01*
X002384Y014368D01*
X002480Y014463D01*
X002564Y014568D01*
X002635Y014682D01*
X002694Y014804D01*
X002738Y014931D01*
X002768Y015062D01*
X002783Y015196D01*
X002783Y015214D01*
X001633Y015214D01*
X001633Y014064D01*
X001651Y014064D01*
X001785Y014079D01*
X001633Y014084D02*
X001533Y014084D01*
X001533Y014064D02*
X001533Y015214D01*
X000383Y015214D01*
X000383Y015196D01*
X000398Y015062D01*
X000428Y014931D01*
X000473Y014804D01*
X000531Y014682D01*
X000603Y014568D01*
X000687Y014463D01*
X000782Y014368D01*
X000888Y014284D01*
X001002Y014212D01*
X001123Y014153D01*
X001251Y014109D01*
X001382Y014079D01*
X001516Y014064D01*
X001533Y014064D01*
X001533Y014182D02*
X001633Y014182D01*
X001633Y014281D02*
X001533Y014281D01*
X001533Y014379D02*
X001633Y014379D01*
X001633Y014478D02*
X001533Y014478D01*
X001533Y014576D02*
X001633Y014576D01*
X001633Y014675D02*
X001533Y014675D01*
X001533Y014773D02*
X001633Y014773D01*
X001633Y014872D02*
X001533Y014872D01*
X001533Y014970D02*
X001633Y014970D01*
X001633Y015069D02*
X001533Y015069D01*
X001533Y015167D02*
X001633Y015167D01*
X001633Y015214D02*
X001533Y015214D01*
X001533Y015314D01*
X000383Y015314D01*
X000383Y015331D01*
X000398Y015465D01*
X000428Y015596D01*
X000473Y015724D01*
X000531Y015845D01*
X000603Y015959D01*
X000687Y016065D01*
X000782Y016160D01*
X000888Y016244D01*
X001002Y016316D01*
X001123Y016374D01*
X001251Y016419D01*
X001382Y016449D01*
X001516Y016464D01*
X001533Y016464D01*
X001533Y015314D01*
X001633Y015314D01*
X001633Y016464D01*
X001651Y016464D01*
X001785Y016449D01*
X001916Y016419D01*
X002043Y016374D01*
X002165Y016316D01*
X002279Y016244D01*
X002384Y016160D01*
X002480Y016065D01*
X002564Y015959D01*
X002635Y015845D01*
X002694Y015724D01*
X002738Y015596D01*
X002768Y015465D01*
X002783Y015331D01*
X002783Y015314D01*
X001633Y015314D01*
X001633Y015214D01*
X001633Y015266D02*
X003123Y015266D01*
X003123Y015364D02*
X002780Y015364D01*
X002768Y015463D02*
X003123Y015463D01*
X003123Y015561D02*
X002746Y015561D01*
X002716Y015660D02*
X003123Y015660D01*
X003123Y015685D02*
X003123Y014842D01*
X003193Y014673D01*
X003323Y014544D01*
X003373Y014523D01*
X003373Y014301D01*
X003176Y014104D01*
X003126Y014104D01*
X003019Y014060D01*
X002937Y013978D01*
X002893Y013871D01*
X002893Y013756D01*
X002937Y013649D01*
X003019Y013568D01*
X003126Y013524D01*
X003241Y013524D01*
X003243Y013525D01*
X003243Y013506D01*
X003287Y013399D01*
X003369Y013318D01*
X003476Y013274D01*
X003591Y013274D01*
X003698Y013318D01*
X003779Y013399D01*
X003823Y013506D01*
X003823Y013557D01*
X004670Y014404D01*
X004787Y014520D01*
X004844Y014544D01*
X004973Y014673D01*
X005043Y014842D01*
X005043Y015685D01*
X004973Y015854D01*
X004844Y015984D01*
X004675Y016054D01*
X004492Y016054D01*
X004323Y015984D01*
X004193Y015854D01*
X004123Y015685D01*
X004123Y014842D01*
X004193Y014673D01*
X004270Y014597D01*
X003526Y013854D01*
X003520Y013854D01*
X003670Y014004D01*
X003793Y014127D01*
X003793Y014523D01*
X003844Y014544D01*
X003973Y014673D01*
X004043Y014842D01*
X004043Y015685D01*
X003973Y015854D01*
X003844Y015984D01*
X003675Y016054D01*
X003492Y016054D01*
X003323Y015984D01*
X003193Y015854D01*
X003123Y015685D01*
X003154Y015758D02*
X002677Y015758D01*
X002628Y015857D02*
X003196Y015857D01*
X003294Y015955D02*
X002566Y015955D01*
X002488Y016054D02*
X007446Y016054D01*
X007471Y016062D02*
X007399Y016039D01*
X007332Y016004D01*
X007271Y015960D01*
X007217Y015906D01*
X007173Y015845D01*
X007138Y015778D01*
X007115Y015706D01*
X007103Y015632D01*
X007103Y015314D01*
X007533Y015314D01*
X007533Y015214D01*
X007103Y015214D01*
X007103Y014896D01*
X007115Y014821D01*
X007138Y014749D01*
X007173Y014682D01*
X007217Y014621D01*
X007271Y014568D01*
X007332Y014523D01*
X007399Y014489D01*
X007471Y014466D01*
X007533Y014456D01*
X007533Y015214D01*
X007633Y015214D01*
X007633Y014456D01*
X007696Y014466D01*
X007768Y014489D01*
X007835Y014523D01*
X007896Y014568D01*
X007949Y014621D01*
X007994Y014682D01*
X008028Y014749D01*
X008052Y014821D01*
X008063Y014896D01*
X008063Y015214D01*
X007633Y015214D01*
X007633Y015314D01*
X007533Y015314D01*
X007533Y016072D01*
X007471Y016062D01*
X007533Y016054D02*
X007633Y016054D01*
X007633Y016072D02*
X007633Y015314D01*
X008063Y015314D01*
X008063Y015632D01*
X008052Y015706D01*
X008028Y015778D01*
X007994Y015845D01*
X007949Y015906D01*
X007896Y015960D01*
X007835Y016004D01*
X007768Y016039D01*
X007696Y016062D01*
X007633Y016072D01*
X007721Y016054D02*
X012446Y016054D01*
X012471Y016062D02*
X012399Y016039D01*
X012332Y016004D01*
X012271Y015960D01*
X012217Y015906D01*
X012173Y015845D01*
X012138Y015778D01*
X012115Y015706D01*
X012103Y015632D01*
X012103Y015314D01*
X012533Y015314D01*
X012533Y015214D01*
X012103Y015214D01*
X012103Y014896D01*
X012115Y014821D01*
X012138Y014749D01*
X012173Y014682D01*
X012217Y014621D01*
X012271Y014568D01*
X012332Y014523D01*
X012399Y014489D01*
X012471Y014466D01*
X012533Y014456D01*
X012533Y015214D01*
X012633Y015214D01*
X012633Y014456D01*
X012696Y014466D01*
X012768Y014489D01*
X012835Y014523D01*
X012896Y014568D01*
X012949Y014621D01*
X012994Y014682D01*
X013028Y014749D01*
X013052Y014821D01*
X013063Y014896D01*
X013063Y015214D01*
X012633Y015214D01*
X012633Y015314D01*
X012533Y015314D01*
X012533Y016072D01*
X012471Y016062D01*
X012533Y016054D02*
X012633Y016054D01*
X012633Y016072D02*
X012633Y015314D01*
X013063Y015314D01*
X013063Y015632D01*
X013052Y015706D01*
X013028Y015778D01*
X012994Y015845D01*
X012949Y015906D01*
X012896Y015960D01*
X012835Y016004D01*
X012768Y016039D01*
X012696Y016062D01*
X012633Y016072D01*
X012721Y016054D02*
X013679Y016054D01*
X013687Y016065D02*
X013603Y015959D01*
X013531Y015845D01*
X013473Y015724D01*
X013428Y015596D01*
X013398Y015465D01*
X013383Y015331D01*
X013383Y015314D01*
X014533Y015314D01*
X014533Y015214D01*
X013383Y015214D01*
X013383Y015196D01*
X013398Y015062D01*
X013428Y014931D01*
X013473Y014804D01*
X013531Y014682D01*
X013603Y014568D01*
X013687Y014463D01*
X013782Y014368D01*
X013888Y014284D01*
X014002Y014212D01*
X014123Y014153D01*
X014251Y014109D01*
X014382Y014079D01*
X014516Y014064D01*
X014533Y014064D01*
X014533Y015214D01*
X014633Y015214D01*
X014633Y014064D01*
X014651Y014064D01*
X014785Y014079D01*
X014916Y014109D01*
X015043Y014153D01*
X015165Y014212D01*
X015279Y014284D01*
X015384Y014368D01*
X015480Y014463D01*
X015564Y014568D01*
X015635Y014682D01*
X015694Y014804D01*
X015738Y014931D01*
X015768Y015062D01*
X015783Y015196D01*
X015783Y015214D01*
X014633Y015214D01*
X014633Y015314D01*
X014533Y015314D01*
X014533Y016464D01*
X014516Y016464D01*
X014382Y016449D01*
X014251Y016419D01*
X014123Y016374D01*
X014002Y016316D01*
X013888Y016244D01*
X013782Y016160D01*
X013687Y016065D01*
X013775Y016152D02*
X002392Y016152D01*
X002268Y016251D02*
X013899Y016251D01*
X014072Y016349D02*
X002095Y016349D01*
X001788Y016448D02*
X014378Y016448D01*
X014533Y016448D02*
X014633Y016448D01*
X014633Y016464D02*
X014651Y016464D01*
X014785Y016449D01*
X014916Y016419D01*
X015043Y016374D01*
X015165Y016316D01*
X015279Y016244D01*
X015384Y016160D01*
X015480Y016065D01*
X015564Y015959D01*
X015635Y015845D01*
X015694Y015724D01*
X015738Y015596D01*
X015768Y015465D01*
X015783Y015331D01*
X015783Y015314D01*
X014633Y015314D01*
X014633Y016464D01*
X014633Y016349D02*
X014533Y016349D01*
X014533Y016251D02*
X014633Y016251D01*
X014633Y016152D02*
X014533Y016152D01*
X014533Y016054D02*
X014633Y016054D01*
X014633Y015955D02*
X014533Y015955D01*
X014533Y015857D02*
X014633Y015857D01*
X014633Y015758D02*
X014533Y015758D01*
X014533Y015660D02*
X014633Y015660D01*
X014633Y015561D02*
X014533Y015561D01*
X014533Y015463D02*
X014633Y015463D01*
X014633Y015364D02*
X014533Y015364D01*
X014533Y015266D02*
X012633Y015266D01*
X012633Y015364D02*
X012533Y015364D01*
X012533Y015266D02*
X012043Y015266D01*
X012043Y015364D02*
X012103Y015364D01*
X012103Y015463D02*
X012043Y015463D01*
X012043Y015561D02*
X012103Y015561D01*
X012108Y015660D02*
X012043Y015660D01*
X012043Y015685D02*
X011973Y015854D01*
X011844Y015984D01*
X011675Y016054D01*
X011492Y016054D01*
X011323Y015984D01*
X011193Y015854D01*
X011123Y015685D01*
X011123Y014842D01*
X011193Y014673D01*
X011323Y014544D01*
X011492Y014474D01*
X011675Y014474D01*
X011844Y014544D01*
X011973Y014673D01*
X012043Y014842D01*
X012043Y015685D01*
X012013Y015758D02*
X012132Y015758D01*
X012181Y015857D02*
X011971Y015857D01*
X011872Y015955D02*
X012266Y015955D01*
X012533Y015955D02*
X012633Y015955D01*
X012633Y015857D02*
X012533Y015857D01*
X012533Y015758D02*
X012633Y015758D01*
X012633Y015660D02*
X012533Y015660D01*
X012533Y015561D02*
X012633Y015561D01*
X012633Y015463D02*
X012533Y015463D01*
X012533Y015167D02*
X012633Y015167D01*
X012633Y015069D02*
X012533Y015069D01*
X012533Y014970D02*
X012633Y014970D01*
X012633Y014872D02*
X012533Y014872D01*
X012533Y014773D02*
X012633Y014773D01*
X012633Y014675D02*
X012533Y014675D01*
X012533Y014576D02*
X012633Y014576D01*
X012633Y014478D02*
X012533Y014478D01*
X012433Y014478D02*
X011685Y014478D01*
X011482Y014478D02*
X010793Y014478D01*
X010793Y014523D02*
X010844Y014544D01*
X010973Y014673D01*
X011043Y014842D01*
X011043Y015685D01*
X010973Y015854D01*
X010844Y015984D01*
X010675Y016054D01*
X010492Y016054D01*
X010323Y015984D01*
X010193Y015854D01*
X010123Y015685D01*
X010123Y014842D01*
X010193Y014673D01*
X010323Y014544D01*
X010373Y014523D01*
X010373Y014214D01*
X010337Y014178D01*
X010293Y014071D01*
X010293Y013956D01*
X010337Y013849D01*
X010419Y013768D01*
X010526Y013724D01*
X010641Y013724D01*
X010748Y013768D01*
X010829Y013849D01*
X010873Y013956D01*
X010873Y014071D01*
X010829Y014178D01*
X010793Y014214D01*
X010793Y014523D01*
X010876Y014576D02*
X011290Y014576D01*
X011193Y014675D02*
X010974Y014675D01*
X011015Y014773D02*
X011152Y014773D01*
X011123Y014872D02*
X011043Y014872D01*
X011043Y014970D02*
X011123Y014970D01*
X011123Y015069D02*
X011043Y015069D01*
X011043Y015167D02*
X011123Y015167D01*
X011123Y015266D02*
X011043Y015266D01*
X011043Y015364D02*
X011123Y015364D01*
X011123Y015463D02*
X011043Y015463D01*
X011043Y015561D02*
X011123Y015561D01*
X011123Y015660D02*
X011043Y015660D01*
X011013Y015758D02*
X011154Y015758D01*
X011196Y015857D02*
X010971Y015857D01*
X010872Y015955D02*
X011294Y015955D01*
X012043Y015167D02*
X012103Y015167D01*
X012103Y015069D02*
X012043Y015069D01*
X012043Y014970D02*
X012103Y014970D01*
X012107Y014872D02*
X012043Y014872D01*
X012015Y014773D02*
X012131Y014773D01*
X012178Y014675D02*
X011974Y014675D01*
X011876Y014576D02*
X012262Y014576D01*
X012733Y014478D02*
X013675Y014478D01*
X013598Y014576D02*
X012905Y014576D01*
X012988Y014675D02*
X013536Y014675D01*
X013488Y014773D02*
X013036Y014773D01*
X013059Y014872D02*
X013449Y014872D01*
X013419Y014970D02*
X013063Y014970D01*
X013063Y015069D02*
X013398Y015069D01*
X013387Y015167D02*
X013063Y015167D01*
X013063Y015364D02*
X013387Y015364D01*
X013398Y015463D02*
X013063Y015463D01*
X013063Y015561D02*
X013420Y015561D01*
X013451Y015660D02*
X013059Y015660D01*
X013035Y015758D02*
X013490Y015758D01*
X013539Y015857D02*
X012986Y015857D01*
X012901Y015955D02*
X013601Y015955D01*
X014533Y015167D02*
X014633Y015167D01*
X014633Y015069D02*
X014533Y015069D01*
X014533Y014970D02*
X014633Y014970D01*
X014633Y014872D02*
X014533Y014872D01*
X014533Y014773D02*
X014633Y014773D01*
X014633Y014675D02*
X014533Y014675D01*
X014533Y014576D02*
X014633Y014576D01*
X014633Y014478D02*
X014533Y014478D01*
X014533Y014379D02*
X014633Y014379D01*
X014633Y014281D02*
X014533Y014281D01*
X014533Y014182D02*
X014633Y014182D01*
X014633Y014084D02*
X014533Y014084D01*
X014360Y014084D02*
X010868Y014084D01*
X010873Y013985D02*
X015798Y013985D01*
X015798Y013887D02*
X010845Y013887D01*
X010768Y013788D02*
X015798Y013788D01*
X015756Y013708D02*
X015683Y013746D01*
X015605Y013771D01*
X015533Y013782D01*
X015533Y013314D01*
X015433Y013314D01*
X015433Y013782D01*
X015362Y013771D01*
X015284Y013746D01*
X015211Y013708D01*
X015145Y013660D01*
X015087Y013603D01*
X015039Y013536D01*
X015013Y013485D01*
X014774Y013724D01*
X014393Y013724D01*
X014123Y013454D01*
X014123Y013073D01*
X014393Y012804D01*
X014774Y012804D01*
X015013Y013042D01*
X015039Y012991D01*
X015087Y012925D01*
X015145Y012867D01*
X015211Y012819D01*
X015284Y012782D01*
X015362Y012757D01*
X015365Y012756D01*
X015200Y012688D01*
X015059Y012547D01*
X015028Y012470D01*
X014774Y012724D01*
X014393Y012724D01*
X014123Y012454D01*
X014123Y012073D01*
X014393Y011804D01*
X014774Y011804D01*
X015028Y012057D01*
X015059Y011981D01*
X015200Y011840D01*
X015384Y011764D01*
X015583Y011764D01*
X015767Y011840D01*
X015798Y011872D01*
X015798Y011656D01*
X015767Y011688D01*
X015583Y011764D01*
X015384Y011764D01*
X015200Y011688D01*
X015059Y011547D01*
X015028Y011470D01*
X014774Y011724D01*
X014393Y011724D01*
X014123Y011454D01*
X014123Y011073D01*
X014131Y011066D01*
X014009Y010944D01*
X013903Y010838D01*
X013903Y010594D01*
X013774Y010724D01*
X013393Y010724D01*
X013123Y010454D01*
X013123Y010073D01*
X013393Y009804D01*
X013774Y009804D01*
X013903Y009933D01*
X013903Y009623D01*
X013782Y009744D01*
X013633Y009744D01*
X013633Y009314D01*
X013533Y009314D01*
X013533Y009214D01*
X013103Y009214D01*
X013103Y009065D01*
X013385Y008784D01*
X013533Y008784D01*
X013533Y009214D01*
X013633Y009214D01*
X013633Y008784D01*
X013782Y008784D01*
X013903Y008905D01*
X013903Y008689D01*
X014009Y008584D01*
X014253Y008584D01*
X014123Y008454D01*
X014123Y008073D01*
X014131Y008066D01*
X013903Y007838D01*
X013903Y007594D01*
X013774Y007724D01*
X013393Y007724D01*
X013123Y007454D01*
X013123Y007073D01*
X013393Y006804D01*
X013663Y006804D01*
X013663Y006724D01*
X013393Y006724D01*
X013123Y006454D01*
X013123Y006073D01*
X013393Y005804D01*
X013774Y005804D01*
X013903Y005933D01*
X013903Y005839D01*
X014009Y005734D01*
X014159Y005584D01*
X014253Y005584D01*
X014123Y005454D01*
X014123Y005073D01*
X014393Y004804D01*
X014774Y004804D01*
X015028Y005057D01*
X015059Y004981D01*
X015200Y004840D01*
X015384Y004764D01*
X015583Y004764D01*
X015767Y004840D01*
X015798Y004872D01*
X015798Y001049D01*
X011906Y001049D01*
X011955Y001057D01*
X012033Y001082D01*
X012106Y001119D01*
X012172Y001167D01*
X012230Y001225D01*
X012278Y001291D01*
X012315Y001364D01*
X012341Y001442D01*
X012341Y001446D01*
X012409Y001281D01*
X012550Y001140D01*
X012734Y001064D01*
X012933Y001064D01*
X013117Y001140D01*
X013257Y001281D01*
X013333Y001464D01*
X013333Y001663D01*
X013257Y001847D01*
X013214Y001891D01*
X013225Y001902D01*
X013295Y001972D01*
X013333Y002064D01*
X013333Y003571D01*
X013295Y003662D01*
X012848Y004110D01*
X012848Y004629D01*
X012772Y004705D01*
X012713Y004705D01*
X012713Y004829D01*
X012703Y004854D01*
X012703Y004987D01*
X012647Y005123D01*
X012543Y005227D01*
X012518Y005238D01*
X012748Y005468D01*
X012829Y005549D01*
X012873Y005656D01*
X012873Y007321D01*
X012829Y007428D01*
X012748Y007510D01*
X012738Y007514D01*
X012748Y007518D01*
X012829Y007599D01*
X012873Y007706D01*
X012873Y008194D01*
X012879Y008199D01*
X012923Y008306D01*
X012923Y009819D01*
X012891Y009896D01*
X012891Y010160D01*
X012815Y010236D01*
X012452Y010236D01*
X012393Y010177D01*
X012381Y010198D01*
X012353Y010226D01*
X012319Y010246D01*
X012281Y010256D01*
X012147Y010256D01*
X012147Y009775D01*
X012119Y009775D01*
X012119Y010256D01*
X011986Y010256D01*
X011947Y010246D01*
X011913Y010226D01*
X011885Y010198D01*
X011874Y010177D01*
X011815Y010236D01*
X011452Y010236D01*
X011383Y010168D01*
X011315Y010236D01*
X010952Y010236D01*
X010921Y010205D01*
X010869Y010258D01*
X009742Y010258D01*
X009748Y010282D01*
X009748Y010450D01*
X010233Y010450D01*
X010233Y010865D01*
X009740Y010865D01*
X009738Y010871D01*
X009718Y010905D01*
X009690Y010933D01*
X009656Y010953D01*
X009618Y010963D01*
X009333Y010963D01*
X009333Y010607D01*
X009233Y010607D01*
X009233Y010507D01*
X008818Y010507D01*
X008818Y010282D01*
X008829Y010244D01*
X008848Y010209D01*
X008876Y010182D01*
X008910Y010162D01*
X008932Y010156D01*
X008915Y010156D01*
X008838Y010080D01*
X008838Y009460D01*
X008853Y009445D01*
X008853Y009198D01*
X008904Y009077D01*
X008996Y008984D01*
X009118Y008934D01*
X009249Y008934D01*
X009370Y008984D01*
X009434Y009047D01*
X009434Y008964D01*
X009790Y008964D01*
X009790Y008864D01*
X009434Y008864D01*
X009434Y008579D01*
X009444Y008541D01*
X009450Y008530D01*
X009419Y008522D01*
X009385Y008502D01*
X009357Y008474D01*
X009337Y008440D01*
X009335Y008431D01*
X009335Y008480D01*
X009324Y008519D01*
X009305Y008553D01*
X009277Y008581D01*
X009242Y008600D01*
X009204Y008611D01*
X009016Y008611D01*
X009016Y008312D01*
X008920Y008312D01*
X008920Y008611D01*
X008732Y008611D01*
X008694Y008600D01*
X008659Y008581D01*
X008631Y008553D01*
X008622Y008537D01*
X008569Y008591D01*
X008028Y008591D01*
X007952Y008514D01*
X007952Y008454D01*
X007894Y008512D01*
X007792Y008512D01*
X008229Y008949D01*
X008273Y009056D01*
X008273Y009171D01*
X008263Y009196D01*
X008263Y009335D01*
X008291Y009363D01*
X008291Y010160D01*
X008215Y010236D01*
X007852Y010236D01*
X007793Y010177D01*
X007781Y010198D01*
X007753Y010226D01*
X007719Y010246D01*
X007681Y010256D01*
X007547Y010256D01*
X007547Y009775D01*
X007519Y009775D01*
X007519Y010256D01*
X007386Y010256D01*
X007347Y010246D01*
X007313Y010226D01*
X007285Y010198D01*
X007274Y010177D01*
X007215Y010236D01*
X006852Y010236D01*
X006783Y010168D01*
X006715Y010236D01*
X006352Y010236D01*
X006321Y010205D01*
X006269Y010258D01*
X005142Y010258D01*
X005148Y010282D01*
X005148Y010450D01*
X005633Y010450D01*
X005633Y010865D01*
X005140Y010865D01*
X005138Y010871D01*
X005118Y010905D01*
X005090Y010933D01*
X005056Y010953D01*
X005018Y010963D01*
X004733Y010963D01*
X004733Y010607D01*
X004633Y010607D01*
X004633Y010507D01*
X004218Y010507D01*
X004218Y010282D01*
X004229Y010244D01*
X004248Y010209D01*
X004276Y010182D01*
X004310Y010162D01*
X004332Y010156D01*
X004315Y010156D01*
X004238Y010080D01*
X004238Y009985D01*
X004204Y009951D01*
X004153Y009829D01*
X004153Y009248D01*
X004204Y009127D01*
X004296Y009034D01*
X004418Y008984D01*
X004549Y008984D01*
X004634Y009019D01*
X004634Y008964D01*
X004990Y008964D01*
X004990Y009379D01*
X004813Y009379D01*
X004813Y009384D01*
X005052Y009384D01*
X005067Y009399D01*
X005090Y009376D01*
X005090Y008964D01*
X004990Y008964D01*
X004990Y008864D01*
X004634Y008864D01*
X004634Y008603D01*
X004604Y008611D01*
X004416Y008611D01*
X004416Y008312D01*
X004320Y008312D01*
X004320Y008611D01*
X004132Y008611D01*
X004094Y008600D01*
X004059Y008581D01*
X004031Y008553D01*
X004022Y008537D01*
X003969Y008591D01*
X003463Y008591D01*
X003463Y009089D01*
X003813Y009439D01*
X003813Y012234D01*
X004758Y012234D01*
X004863Y012339D01*
X006158Y013634D01*
X007259Y013634D01*
X008009Y012884D01*
X011253Y012884D01*
X011253Y012788D01*
X010953Y012488D01*
X010953Y012441D01*
X010952Y012441D01*
X010875Y012364D01*
X010875Y011568D01*
X010952Y011492D01*
X011315Y011492D01*
X011383Y011560D01*
X011452Y011492D01*
X011815Y011492D01*
X011883Y011560D01*
X011952Y011492D01*
X012315Y011492D01*
X012374Y011550D01*
X012385Y011530D01*
X012413Y011502D01*
X012447Y011482D01*
X012486Y011472D01*
X012619Y011472D01*
X012619Y011952D01*
X012391Y011952D01*
X012391Y011980D01*
X012619Y011980D01*
X012619Y011952D01*
X012647Y011952D01*
X012647Y011472D01*
X012781Y011472D01*
X012819Y011482D01*
X012853Y011502D01*
X012881Y011530D01*
X012901Y011564D01*
X012911Y011602D01*
X012911Y011952D01*
X012647Y011952D01*
X012647Y011980D01*
X012619Y011980D01*
X012619Y012461D01*
X012486Y012461D01*
X012447Y012450D01*
X012413Y012431D01*
X012385Y012403D01*
X012374Y012382D01*
X012315Y012441D01*
X012311Y012441D01*
X012013Y012738D01*
X012013Y013388D01*
X011863Y013538D01*
X011758Y013644D01*
X008358Y013644D01*
X007713Y014288D01*
X007608Y014394D01*
X005759Y014394D01*
X004359Y012994D01*
X003459Y012994D01*
X003159Y012694D01*
X003053Y012588D01*
X003053Y009988D01*
X002781Y009716D01*
X002774Y009724D01*
X002393Y009724D01*
X002123Y009454D01*
X002043Y009454D01*
X001774Y009724D01*
X001393Y009724D01*
X001123Y009454D01*
X000368Y009454D01*
X000368Y009356D02*
X001123Y009356D01*
X001123Y009454D02*
X001123Y009073D01*
X001393Y008804D01*
X001774Y008804D01*
X002043Y009073D01*
X002043Y009454D01*
X002123Y009454D02*
X002123Y009073D01*
X002393Y008804D01*
X002774Y008804D01*
X002903Y008933D01*
X002903Y008838D01*
X002781Y008716D01*
X002774Y008724D01*
X002393Y008724D01*
X002123Y008454D01*
X002123Y008073D01*
X002393Y007804D01*
X002774Y007804D01*
X003043Y008073D01*
X003043Y008454D01*
X003036Y008462D01*
X003103Y008529D01*
X003103Y008038D01*
X002781Y007716D01*
X002774Y007724D01*
X002393Y007724D01*
X002123Y007454D01*
X002123Y007073D01*
X002253Y006944D01*
X001914Y006944D01*
X002043Y007073D01*
X002043Y007454D01*
X001774Y007724D01*
X001393Y007724D01*
X001123Y007454D01*
X001123Y007073D01*
X001253Y006944D01*
X000909Y006944D01*
X000803Y006838D01*
X000653Y006688D01*
X000653Y005289D01*
X000759Y005184D01*
X000859Y005084D01*
X001123Y005084D01*
X001123Y005073D01*
X001393Y004804D01*
X001774Y004804D01*
X002043Y005073D01*
X002043Y005454D01*
X001774Y005724D01*
X001393Y005724D01*
X001123Y005454D01*
X001123Y005444D01*
X001013Y005444D01*
X001013Y006539D01*
X001058Y006584D01*
X001225Y006584D01*
X001103Y006463D01*
X001103Y006314D01*
X001533Y006314D01*
X001533Y006214D01*
X001103Y006214D01*
X001103Y006065D01*
X001385Y005784D01*
X001533Y005784D01*
X001533Y006214D01*
X001633Y006214D01*
X001633Y005784D01*
X001782Y005784D01*
X002063Y006065D01*
X002063Y006214D01*
X001633Y006214D01*
X001633Y006314D01*
X002063Y006314D01*
X002063Y006463D01*
X001942Y006584D01*
X002225Y006584D01*
X002103Y006463D01*
X002103Y006314D01*
X002533Y006314D01*
X002533Y006214D01*
X002103Y006214D01*
X002103Y006065D01*
X002385Y005784D01*
X002533Y005784D01*
X002533Y006214D01*
X002633Y006214D01*
X002633Y005784D01*
X002782Y005784D01*
X003052Y006053D01*
X003073Y006012D01*
X003117Y005951D01*
X003125Y005944D01*
X003009Y005944D01*
X002781Y005716D01*
X002774Y005724D01*
X002393Y005724D01*
X002123Y005454D01*
X002123Y005073D01*
X002393Y004804D01*
X002774Y004804D01*
X003033Y005063D01*
X003293Y004804D01*
X003674Y004804D01*
X003943Y005073D01*
X003943Y005454D01*
X003814Y005584D01*
X004153Y005584D01*
X004023Y005454D01*
X004023Y005073D01*
X004293Y004804D01*
X004674Y004804D01*
X004943Y005073D01*
X004943Y005454D01*
X004814Y005584D01*
X005808Y005584D01*
X005913Y005689D01*
X006263Y006039D01*
X006263Y006434D01*
X006293Y006464D01*
X006293Y005184D01*
X006163Y005054D01*
X006046Y005054D01*
X005949Y005094D01*
X005818Y005094D01*
X005696Y005044D01*
X005604Y004951D01*
X005553Y004829D01*
X005553Y004698D01*
X005604Y004577D01*
X005627Y004554D01*
X005426Y004554D01*
X005319Y004510D01*
X005237Y004428D01*
X004943Y004134D01*
X004943Y004454D01*
X004674Y004724D01*
X004293Y004724D01*
X004023Y004454D01*
X004023Y004073D01*
X004293Y003804D01*
X004613Y003804D01*
X004137Y003328D01*
X004093Y003221D01*
X004093Y003042D01*
X003963Y002911D01*
X003887Y002729D01*
X003887Y001799D01*
X003963Y001616D01*
X004102Y001477D01*
X004285Y001401D01*
X004482Y001401D01*
X004664Y001477D01*
X004804Y001616D01*
X004858Y001746D01*
X004893Y001711D01*
X005473Y001711D01*
X005483Y001721D01*
X005493Y001711D01*
X006073Y001711D01*
X006083Y001721D01*
X006093Y001711D01*
X006673Y001711D01*
X006683Y001721D01*
X006693Y001711D01*
X007273Y001711D01*
X007309Y001746D01*
X007363Y001616D01*
X007502Y001477D01*
X007685Y001401D01*
X007882Y001401D01*
X008064Y001477D01*
X008204Y001616D01*
X008280Y001799D01*
X008280Y002729D01*
X008204Y002911D01*
X008073Y003042D01*
X008073Y005574D01*
X008136Y005574D01*
X008093Y005471D01*
X008093Y003806D01*
X008137Y003699D01*
X008219Y003618D01*
X008493Y003344D01*
X008493Y003042D01*
X008363Y002911D01*
X008287Y002729D01*
X008287Y001799D01*
X008363Y001616D01*
X008502Y001477D01*
X008685Y001401D01*
X008882Y001401D01*
X009064Y001477D01*
X009204Y001616D01*
X009277Y001793D01*
X009280Y001777D01*
X009305Y001699D01*
X009342Y001627D01*
X009390Y001561D01*
X009447Y001504D01*
X009513Y001456D01*
X009585Y001419D01*
X009662Y001394D01*
X009733Y001383D01*
X009733Y002214D01*
X009833Y002214D01*
X009833Y001383D01*
X009904Y001394D01*
X009981Y001419D01*
X010054Y001456D01*
X010120Y001504D01*
X010177Y001561D01*
X010225Y001627D01*
X010262Y001699D01*
X010287Y001777D01*
X010289Y001793D01*
X010363Y001616D01*
X010502Y001477D01*
X010685Y001401D01*
X010882Y001401D01*
X011064Y001477D01*
X011204Y001616D01*
X011280Y001799D01*
X011280Y002284D01*
X011919Y002284D01*
X011919Y002198D01*
X011995Y002122D01*
X012738Y002122D01*
X012642Y002025D01*
X012550Y001988D01*
X012409Y001847D01*
X012341Y001682D01*
X012341Y001686D01*
X012315Y001763D01*
X012278Y001836D01*
X012230Y001903D01*
X012172Y001960D01*
X012106Y002008D01*
X012033Y002046D01*
X011955Y002071D01*
X011883Y002082D01*
X011883Y001614D01*
X011783Y001614D01*
X011783Y001514D01*
X011315Y001514D01*
X011326Y001442D01*
X011351Y001364D01*
X011389Y001291D01*
X011437Y001225D01*
X011495Y001167D01*
X011561Y001119D01*
X011634Y001082D01*
X007370Y001082D01*
X007370Y001049D02*
X007370Y001200D01*
X007033Y001200D01*
X007033Y001300D01*
X007370Y001300D01*
X007370Y001506D01*
X007359Y001544D01*
X007340Y001579D01*
X007312Y001607D01*
X007277Y001626D01*
X007239Y001637D01*
X007033Y001637D01*
X007033Y001300D01*
X006933Y001300D01*
X006933Y001200D01*
X006433Y001200D01*
X006433Y001300D01*
X006770Y001300D01*
X006933Y001300D01*
X006933Y001637D01*
X006727Y001637D01*
X006689Y001626D01*
X006683Y001623D01*
X006677Y001626D01*
X006639Y001637D01*
X006433Y001637D01*
X006433Y001300D01*
X006333Y001300D01*
X006333Y001200D01*
X005833Y001200D01*
X005833Y001300D01*
X006170Y001300D01*
X006333Y001300D01*
X006333Y001637D01*
X006127Y001637D01*
X006089Y001626D01*
X006083Y001623D01*
X006077Y001626D01*
X006039Y001637D01*
X005833Y001637D01*
X005833Y001300D01*
X005733Y001300D01*
X005733Y001200D01*
X005233Y001200D01*
X005233Y001300D01*
X005570Y001300D01*
X005733Y001300D01*
X005733Y001637D01*
X005527Y001637D01*
X005489Y001626D01*
X005483Y001623D01*
X005477Y001626D01*
X005439Y001637D01*
X005233Y001637D01*
X005233Y001300D01*
X005133Y001300D01*
X005133Y001200D01*
X004797Y001200D01*
X004797Y001049D01*
X000368Y001049D01*
X000368Y016479D01*
X015798Y016479D01*
X015798Y013678D01*
X015756Y013708D01*
X015782Y013690D02*
X015798Y013690D01*
X015533Y013690D02*
X015433Y013690D01*
X015433Y013591D02*
X015533Y013591D01*
X015533Y013493D02*
X015433Y013493D01*
X015433Y013394D02*
X015533Y013394D01*
X015185Y013690D02*
X014808Y013690D01*
X014906Y013591D02*
X015079Y013591D01*
X015016Y013493D02*
X015005Y013493D01*
X015034Y013000D02*
X014970Y013000D01*
X014872Y012902D02*
X015110Y012902D01*
X015242Y012803D02*
X012013Y012803D01*
X012013Y012902D02*
X013295Y012902D01*
X013393Y012804D02*
X013123Y013073D01*
X013123Y013454D01*
X013393Y013724D01*
X013774Y013724D01*
X014043Y013454D01*
X014043Y013073D01*
X013774Y012804D01*
X013393Y012804D01*
X013385Y012744D02*
X013103Y012463D01*
X013103Y012314D01*
X013533Y012314D01*
X013533Y012214D01*
X013103Y012214D01*
X013103Y012065D01*
X013385Y011784D01*
X013533Y011784D01*
X013533Y012214D01*
X013633Y012214D01*
X013633Y011784D01*
X013782Y011784D01*
X014063Y012065D01*
X014063Y012214D01*
X013633Y012214D01*
X013633Y012314D01*
X013533Y012314D01*
X013533Y012744D01*
X013385Y012744D01*
X013346Y012705D02*
X012047Y012705D01*
X012145Y012606D02*
X013247Y012606D01*
X013149Y012508D02*
X012244Y012508D01*
X012346Y012409D02*
X012392Y012409D01*
X012133Y012364D02*
X011833Y012664D01*
X011833Y013314D01*
X011683Y013464D01*
X008283Y013464D01*
X007533Y014214D01*
X005833Y014214D01*
X004433Y012814D01*
X003533Y012814D01*
X003233Y012514D01*
X003233Y009914D01*
X002583Y009264D01*
X002320Y009651D02*
X001846Y009651D01*
X001945Y009553D02*
X002222Y009553D01*
X002123Y009356D02*
X002043Y009356D01*
X002043Y009257D02*
X002123Y009257D01*
X002123Y009159D02*
X002043Y009159D01*
X002030Y009060D02*
X002136Y009060D01*
X002235Y008962D02*
X001932Y008962D01*
X001833Y008863D02*
X002333Y008863D01*
X002335Y008666D02*
X001831Y008666D01*
X001774Y008724D02*
X001393Y008724D01*
X001123Y008454D01*
X001123Y008073D01*
X001393Y007804D01*
X001774Y007804D01*
X002043Y008073D01*
X002043Y008454D01*
X001774Y008724D01*
X001930Y008568D02*
X002237Y008568D01*
X002138Y008469D02*
X002028Y008469D01*
X002043Y008371D02*
X002123Y008371D01*
X002123Y008272D02*
X002043Y008272D01*
X002043Y008174D02*
X002123Y008174D01*
X002123Y008075D02*
X002043Y008075D01*
X001947Y007977D02*
X002220Y007977D01*
X002318Y007878D02*
X001848Y007878D01*
X001816Y007681D02*
X002350Y007681D01*
X002252Y007583D02*
X001915Y007583D01*
X002013Y007484D02*
X002153Y007484D01*
X002123Y007386D02*
X002043Y007386D01*
X002043Y007287D02*
X002123Y007287D01*
X002123Y007189D02*
X002043Y007189D01*
X002043Y007090D02*
X002123Y007090D01*
X002205Y006992D02*
X001962Y006992D01*
X002027Y006499D02*
X002140Y006499D01*
X002103Y006401D02*
X002063Y006401D01*
X002063Y006204D02*
X002103Y006204D01*
X002103Y006105D02*
X002063Y006105D01*
X002005Y006007D02*
X002162Y006007D01*
X002260Y005908D02*
X001907Y005908D01*
X001808Y005810D02*
X002359Y005810D01*
X002380Y005711D02*
X001786Y005711D01*
X001885Y005613D02*
X002282Y005613D01*
X002183Y005514D02*
X001983Y005514D01*
X002043Y005416D02*
X002123Y005416D01*
X002123Y005317D02*
X002043Y005317D01*
X002043Y005219D02*
X002123Y005219D01*
X002123Y005120D02*
X002043Y005120D01*
X001992Y005022D02*
X002175Y005022D01*
X002273Y004923D02*
X001893Y004923D01*
X001795Y004825D02*
X002372Y004825D01*
X002393Y004724D02*
X002123Y004454D01*
X002123Y004073D01*
X002393Y003804D01*
X002774Y003804D01*
X003033Y004063D01*
X003293Y003804D01*
X003674Y003804D01*
X003943Y004073D01*
X003943Y004454D01*
X003674Y004724D01*
X003293Y004724D01*
X003033Y004464D01*
X002774Y004724D01*
X002393Y004724D01*
X002297Y004628D02*
X001870Y004628D01*
X001774Y004724D02*
X001393Y004724D01*
X001123Y004454D01*
X001123Y004073D01*
X001393Y003804D01*
X001774Y003804D01*
X002043Y004073D01*
X002043Y004454D01*
X001774Y004724D01*
X001968Y004529D02*
X002198Y004529D01*
X002123Y004431D02*
X002043Y004431D01*
X002043Y004332D02*
X002123Y004332D01*
X002123Y004234D02*
X002043Y004234D01*
X002043Y004135D02*
X002123Y004135D01*
X002160Y004037D02*
X002007Y004037D01*
X001908Y003938D02*
X002258Y003938D01*
X002357Y003840D02*
X001810Y003840D01*
X001785Y003449D02*
X001651Y003464D01*
X001633Y003464D01*
X001633Y002314D01*
X001533Y002314D01*
X001533Y002214D01*
X000383Y002214D01*
X000383Y002196D01*
X000398Y002062D01*
X000428Y001931D01*
X000473Y001804D01*
X000531Y001682D01*
X000603Y001568D01*
X000687Y001463D01*
X000782Y001368D01*
X000888Y001284D01*
X001002Y001212D01*
X001123Y001153D01*
X001251Y001109D01*
X001382Y001079D01*
X001516Y001064D01*
X001533Y001064D01*
X001533Y002214D01*
X001633Y002214D01*
X001633Y001064D01*
X001651Y001064D01*
X001785Y001079D01*
X001916Y001109D01*
X002043Y001153D01*
X002165Y001212D01*
X002279Y001284D01*
X002384Y001368D01*
X002480Y001463D01*
X002564Y001568D01*
X002635Y001682D01*
X002694Y001804D01*
X002738Y001931D01*
X002768Y002062D01*
X002783Y002196D01*
X002783Y002214D01*
X001633Y002214D01*
X001633Y002314D01*
X002783Y002314D01*
X002783Y002331D01*
X002768Y002465D01*
X002738Y002596D01*
X002694Y002724D01*
X002635Y002845D01*
X002564Y002959D01*
X002480Y003065D01*
X002384Y003160D01*
X002279Y003244D01*
X002165Y003316D01*
X002043Y003374D01*
X001916Y003419D01*
X001785Y003449D01*
X001797Y003446D02*
X004255Y003446D01*
X004354Y003544D02*
X000368Y003544D01*
X000368Y003446D02*
X001369Y003446D01*
X001382Y003449D02*
X001251Y003419D01*
X001123Y003374D01*
X001002Y003316D01*
X000888Y003244D01*
X000782Y003160D01*
X000687Y003065D01*
X000603Y002959D01*
X000531Y002845D01*
X000473Y002724D01*
X000428Y002596D01*
X000398Y002465D01*
X000383Y002331D01*
X000383Y002314D01*
X001533Y002314D01*
X001533Y003464D01*
X001516Y003464D01*
X001382Y003449D01*
X001533Y003446D02*
X001633Y003446D01*
X001633Y003347D02*
X001533Y003347D01*
X001533Y003249D02*
X001633Y003249D01*
X001633Y003150D02*
X001533Y003150D01*
X001533Y003052D02*
X001633Y003052D01*
X001633Y002953D02*
X001533Y002953D01*
X001533Y002855D02*
X001633Y002855D01*
X001633Y002756D02*
X001533Y002756D01*
X001533Y002658D02*
X001633Y002658D01*
X001633Y002559D02*
X001533Y002559D01*
X001533Y002461D02*
X001633Y002461D01*
X001633Y002362D02*
X001533Y002362D01*
X001533Y002264D02*
X000368Y002264D01*
X000368Y002362D02*
X000387Y002362D01*
X000398Y002461D02*
X000368Y002461D01*
X000368Y002559D02*
X000420Y002559D01*
X000450Y002658D02*
X000368Y002658D01*
X000368Y002756D02*
X000489Y002756D01*
X000537Y002855D02*
X000368Y002855D01*
X000368Y002953D02*
X000599Y002953D01*
X000677Y003052D02*
X000368Y003052D01*
X000368Y003150D02*
X000773Y003150D01*
X000895Y003249D02*
X000368Y003249D01*
X000368Y003347D02*
X001068Y003347D01*
X001357Y003840D02*
X000368Y003840D01*
X000368Y003938D02*
X001258Y003938D01*
X001160Y004037D02*
X000368Y004037D01*
X000368Y004135D02*
X001123Y004135D01*
X001123Y004234D02*
X000368Y004234D01*
X000368Y004332D02*
X001123Y004332D01*
X001123Y004431D02*
X000368Y004431D01*
X000368Y004529D02*
X001198Y004529D01*
X001297Y004628D02*
X000368Y004628D01*
X000368Y004726D02*
X005553Y004726D01*
X005553Y004825D02*
X004695Y004825D01*
X004793Y004923D02*
X005592Y004923D01*
X005675Y005022D02*
X004892Y005022D01*
X004943Y005120D02*
X006230Y005120D01*
X006293Y005219D02*
X004943Y005219D01*
X004943Y005317D02*
X006293Y005317D01*
X006293Y005416D02*
X004943Y005416D01*
X004883Y005514D02*
X006293Y005514D01*
X006293Y005613D02*
X005837Y005613D01*
X005935Y005711D02*
X006293Y005711D01*
X006293Y005810D02*
X006034Y005810D01*
X006132Y005908D02*
X006293Y005908D01*
X006293Y006007D02*
X006231Y006007D01*
X006263Y006105D02*
X006293Y006105D01*
X006293Y006204D02*
X006263Y006204D01*
X006263Y006302D02*
X006293Y006302D01*
X006293Y006401D02*
X006263Y006401D01*
X006083Y006664D02*
X006083Y006114D01*
X005733Y005764D01*
X003083Y005764D01*
X002583Y005264D01*
X002893Y004923D02*
X003173Y004923D01*
X003075Y005022D02*
X002992Y005022D01*
X002795Y004825D02*
X003272Y004825D01*
X003197Y004628D02*
X002870Y004628D01*
X002968Y004529D02*
X003098Y004529D01*
X003060Y004037D02*
X003007Y004037D01*
X002908Y003938D02*
X003158Y003938D01*
X003257Y003840D02*
X002810Y003840D01*
X002271Y003249D02*
X004105Y003249D01*
X004093Y003150D02*
X002394Y003150D01*
X002490Y003052D02*
X003105Y003052D01*
X003102Y003051D02*
X002963Y002911D01*
X002887Y002729D01*
X002887Y001799D01*
X002963Y001616D01*
X003102Y001477D01*
X003285Y001401D01*
X003482Y001401D01*
X003664Y001477D01*
X003804Y001616D01*
X003880Y001799D01*
X003880Y002729D01*
X003804Y002911D01*
X003664Y003051D01*
X003482Y003126D01*
X003285Y003126D01*
X003102Y003051D01*
X003005Y002953D02*
X002567Y002953D01*
X002629Y002855D02*
X002939Y002855D01*
X002899Y002756D02*
X002678Y002756D01*
X002717Y002658D02*
X002887Y002658D01*
X002887Y002559D02*
X002747Y002559D01*
X002769Y002461D02*
X002887Y002461D01*
X002887Y002362D02*
X002780Y002362D01*
X002887Y002264D02*
X001633Y002264D01*
X001633Y002165D02*
X001533Y002165D01*
X001533Y002067D02*
X001633Y002067D01*
X001633Y001968D02*
X001533Y001968D01*
X001533Y001870D02*
X001633Y001870D01*
X001633Y001771D02*
X001533Y001771D01*
X001533Y001673D02*
X001633Y001673D01*
X001633Y001574D02*
X001533Y001574D01*
X001533Y001476D02*
X001633Y001476D01*
X001633Y001377D02*
X001533Y001377D01*
X001533Y001279D02*
X001633Y001279D01*
X001633Y001180D02*
X001533Y001180D01*
X001533Y001082D02*
X001633Y001082D01*
X001797Y001082D02*
X004797Y001082D01*
X004797Y001180D02*
X002099Y001180D01*
X002271Y001279D02*
X005133Y001279D01*
X005133Y001300D02*
X004797Y001300D01*
X004797Y001506D01*
X004807Y001544D01*
X004827Y001579D01*
X004855Y001607D01*
X004889Y001626D01*
X004927Y001637D01*
X005133Y001637D01*
X005133Y001300D01*
X005133Y001377D02*
X005233Y001377D01*
X005233Y001279D02*
X005733Y001279D01*
X005733Y001377D02*
X005833Y001377D01*
X005833Y001279D02*
X006333Y001279D01*
X006333Y001377D02*
X006433Y001377D01*
X006433Y001279D02*
X006933Y001279D01*
X006933Y001377D02*
X007033Y001377D01*
X007033Y001279D02*
X011398Y001279D01*
X011347Y001377D02*
X007370Y001377D01*
X007370Y001476D02*
X007505Y001476D01*
X007405Y001574D02*
X007342Y001574D01*
X007339Y001673D02*
X004827Y001673D01*
X004825Y001574D02*
X004762Y001574D01*
X004797Y001476D02*
X004662Y001476D01*
X004797Y001377D02*
X002394Y001377D01*
X002490Y001476D02*
X003105Y001476D01*
X003005Y001574D02*
X002567Y001574D01*
X002629Y001673D02*
X002939Y001673D01*
X002899Y001771D02*
X002678Y001771D01*
X002717Y001870D02*
X002887Y001870D01*
X002887Y001968D02*
X002747Y001968D01*
X002769Y002067D02*
X002887Y002067D01*
X002887Y002165D02*
X002780Y002165D01*
X003662Y001476D02*
X004105Y001476D01*
X004005Y001574D02*
X003762Y001574D01*
X003827Y001673D02*
X003939Y001673D01*
X003899Y001771D02*
X003868Y001771D01*
X003880Y001870D02*
X003887Y001870D01*
X003880Y001968D02*
X003887Y001968D01*
X003880Y002067D02*
X003887Y002067D01*
X003880Y002165D02*
X003887Y002165D01*
X003880Y002264D02*
X003887Y002264D01*
X003880Y002362D02*
X003887Y002362D01*
X003880Y002461D02*
X003887Y002461D01*
X003880Y002559D02*
X003887Y002559D01*
X003880Y002658D02*
X003887Y002658D01*
X003899Y002756D02*
X003868Y002756D01*
X003827Y002855D02*
X003939Y002855D01*
X004005Y002953D02*
X003762Y002953D01*
X003662Y003052D02*
X004093Y003052D01*
X004157Y003347D02*
X002099Y003347D01*
X001372Y004825D02*
X000368Y004825D01*
X000368Y004923D02*
X001273Y004923D01*
X001175Y005022D02*
X000368Y005022D01*
X000368Y005120D02*
X000822Y005120D01*
X000724Y005219D02*
X000368Y005219D01*
X000368Y005317D02*
X000653Y005317D01*
X000653Y005416D02*
X000368Y005416D01*
X000368Y005514D02*
X000653Y005514D01*
X000653Y005613D02*
X000368Y005613D01*
X000368Y005711D02*
X000653Y005711D01*
X000653Y005810D02*
X000368Y005810D01*
X000368Y005908D02*
X000653Y005908D01*
X000653Y006007D02*
X000368Y006007D01*
X000368Y006105D02*
X000653Y006105D01*
X000653Y006204D02*
X000368Y006204D01*
X000368Y006302D02*
X000653Y006302D01*
X000653Y006401D02*
X000368Y006401D01*
X000368Y006499D02*
X000653Y006499D01*
X000653Y006598D02*
X000368Y006598D01*
X000368Y006696D02*
X000661Y006696D01*
X000760Y006795D02*
X000368Y006795D01*
X000368Y006893D02*
X000858Y006893D01*
X000983Y006764D02*
X003533Y006764D01*
X003699Y006929D01*
X003699Y007114D01*
X003699Y008264D01*
X003699Y007714D01*
X003401Y007414D02*
X003372Y007384D01*
X003372Y006944D01*
X002914Y006944D01*
X003043Y007073D01*
X003043Y007454D01*
X003036Y007462D01*
X003372Y007798D01*
X003372Y007443D01*
X003401Y007414D01*
X003373Y007386D02*
X003043Y007386D01*
X003043Y007287D02*
X003372Y007287D01*
X003372Y007189D02*
X003043Y007189D01*
X003043Y007090D02*
X003372Y007090D01*
X003372Y006992D02*
X002962Y006992D01*
X002583Y007264D02*
X003283Y007964D01*
X003283Y009164D01*
X003633Y009514D01*
X003633Y012314D01*
X003733Y012414D01*
X004683Y012414D01*
X006083Y013814D01*
X007333Y013814D01*
X008083Y013064D01*
X011383Y013064D01*
X011433Y013014D01*
X011433Y012714D01*
X011133Y012414D01*
X011133Y011966D01*
X010875Y011917D02*
X008311Y011917D01*
X008311Y011952D02*
X008311Y011602D01*
X008301Y011564D01*
X008281Y011530D01*
X008253Y011502D01*
X008219Y011482D01*
X008181Y011472D01*
X008047Y011472D01*
X008047Y011952D01*
X008019Y011952D01*
X007791Y011952D01*
X007791Y011980D01*
X008019Y011980D01*
X008019Y011952D01*
X008019Y011472D01*
X007886Y011472D01*
X007847Y011482D01*
X007813Y011502D01*
X007785Y011530D01*
X007774Y011550D01*
X007715Y011492D01*
X007352Y011492D01*
X007283Y011560D01*
X007215Y011492D01*
X006852Y011492D01*
X006783Y011560D01*
X006715Y011492D01*
X006352Y011492D01*
X006275Y011568D01*
X006275Y012364D01*
X006324Y012413D01*
X006287Y012449D01*
X006243Y012556D01*
X006243Y012671D01*
X006287Y012778D01*
X006369Y012860D01*
X006476Y012904D01*
X006591Y012904D01*
X006698Y012860D01*
X006779Y012778D01*
X006783Y012768D01*
X006787Y012778D01*
X006869Y012860D01*
X006976Y012904D01*
X007091Y012904D01*
X007198Y012860D01*
X007279Y012778D01*
X007283Y012768D01*
X007287Y012778D01*
X007369Y012860D01*
X007476Y012904D01*
X007591Y012904D01*
X007698Y012860D01*
X007779Y012778D01*
X007823Y012671D01*
X007823Y012556D01*
X007779Y012449D01*
X007743Y012413D01*
X007774Y012382D01*
X007785Y012403D01*
X007813Y012431D01*
X007847Y012450D01*
X007886Y012461D01*
X008019Y012461D01*
X008019Y011980D01*
X008047Y011980D01*
X008047Y012461D01*
X008181Y012461D01*
X008219Y012450D01*
X008253Y012431D01*
X008281Y012403D01*
X008301Y012369D01*
X008311Y012330D01*
X008311Y011980D01*
X008047Y011980D01*
X008047Y011952D01*
X008311Y011952D01*
X008311Y012015D02*
X010875Y012015D01*
X010875Y012114D02*
X008311Y012114D01*
X008311Y012212D02*
X010875Y012212D01*
X010875Y012311D02*
X008311Y012311D01*
X008275Y012409D02*
X010920Y012409D01*
X010973Y012508D02*
X007803Y012508D01*
X007792Y012409D02*
X007746Y012409D01*
X008019Y012409D02*
X008047Y012409D01*
X008047Y012311D02*
X008019Y012311D01*
X008019Y012212D02*
X008047Y012212D01*
X008047Y012114D02*
X008019Y012114D01*
X008019Y012015D02*
X008047Y012015D01*
X008047Y011917D02*
X008019Y011917D01*
X008019Y011818D02*
X008047Y011818D01*
X008047Y011720D02*
X008019Y011720D01*
X008019Y011621D02*
X008047Y011621D01*
X008047Y011523D02*
X008019Y011523D01*
X007971Y011456D02*
X007933Y011467D01*
X007333Y011467D01*
X007333Y010914D01*
X007233Y010914D01*
X007233Y010814D01*
X006503Y010814D01*
X006503Y010391D01*
X006514Y010353D01*
X006533Y010319D01*
X006561Y010291D01*
X006596Y010271D01*
X006634Y010261D01*
X007233Y010261D01*
X007233Y010814D01*
X007333Y010814D01*
X007333Y010261D01*
X007933Y010261D01*
X007971Y010271D01*
X008005Y010291D01*
X008033Y010319D01*
X008053Y010353D01*
X008063Y010391D01*
X008063Y010814D01*
X007333Y010814D01*
X007333Y010914D01*
X008063Y010914D01*
X008063Y011336D01*
X008053Y011374D01*
X008033Y011409D01*
X008005Y011437D01*
X007971Y011456D01*
X008018Y011424D02*
X011149Y011424D01*
X011161Y011437D02*
X011133Y011409D01*
X011114Y011374D01*
X011103Y011336D01*
X011103Y010914D01*
X011833Y010914D01*
X011833Y010814D01*
X011103Y010814D01*
X011103Y010391D01*
X011114Y010353D01*
X011133Y010319D01*
X011161Y010291D01*
X011196Y010271D01*
X011234Y010261D01*
X011833Y010261D01*
X011833Y010814D01*
X011933Y010814D01*
X011933Y010261D01*
X012533Y010261D01*
X012571Y010271D01*
X012605Y010291D01*
X012633Y010319D01*
X012653Y010353D01*
X012663Y010391D01*
X012663Y010814D01*
X011933Y010814D01*
X011933Y010914D01*
X011833Y010914D01*
X011833Y011467D01*
X011234Y011467D01*
X011196Y011456D01*
X011161Y011437D01*
X011103Y011326D02*
X010931Y011326D01*
X010935Y011322D02*
X010907Y011350D01*
X010873Y011370D01*
X010835Y011380D01*
X010333Y011380D01*
X010333Y010965D01*
X010233Y010965D01*
X010233Y010865D01*
X010333Y010865D01*
X010333Y010450D01*
X010835Y010450D01*
X010873Y010460D01*
X010907Y010480D01*
X010935Y010508D01*
X010955Y010542D01*
X010965Y010580D01*
X010965Y010865D01*
X010333Y010865D01*
X010333Y010965D01*
X010965Y010965D01*
X010965Y011250D01*
X010955Y011288D01*
X010935Y011322D01*
X010965Y011227D02*
X011103Y011227D01*
X011103Y011129D02*
X010965Y011129D01*
X010965Y011030D02*
X011103Y011030D01*
X011103Y010932D02*
X010333Y010932D01*
X010333Y011030D02*
X010233Y011030D01*
X010233Y010965D02*
X010233Y011380D01*
X009732Y011380D01*
X009694Y011370D01*
X009660Y011350D01*
X009632Y011322D01*
X009612Y011288D01*
X009602Y011250D01*
X009602Y010965D01*
X010233Y010965D01*
X010233Y010932D02*
X009692Y010932D01*
X009602Y011030D02*
X008063Y011030D01*
X008063Y010932D02*
X008875Y010932D01*
X008876Y010933D02*
X008848Y010905D01*
X008829Y010871D01*
X008818Y010833D01*
X008818Y010607D01*
X009233Y010607D01*
X009233Y010963D01*
X008949Y010963D01*
X008910Y010953D01*
X008876Y010933D01*
X008818Y010833D02*
X007333Y010833D01*
X007333Y010735D02*
X007233Y010735D01*
X007233Y010833D02*
X006365Y010833D01*
X006365Y010865D02*
X005733Y010865D01*
X005733Y010450D01*
X006235Y010450D01*
X006273Y010460D01*
X006307Y010480D01*
X006335Y010508D01*
X006355Y010542D01*
X006365Y010580D01*
X006365Y010865D01*
X006365Y010965D02*
X006365Y011250D01*
X006355Y011288D01*
X006335Y011322D01*
X006307Y011350D01*
X006273Y011370D01*
X006235Y011380D01*
X005733Y011380D01*
X005733Y010965D01*
X005633Y010965D01*
X005633Y010865D01*
X005733Y010865D01*
X005733Y010965D01*
X006365Y010965D01*
X006365Y011030D02*
X006503Y011030D01*
X006503Y010932D02*
X005733Y010932D01*
X005733Y011030D02*
X005633Y011030D01*
X005633Y010965D02*
X005633Y011380D01*
X005132Y011380D01*
X005094Y011370D01*
X005060Y011350D01*
X005032Y011322D01*
X005012Y011288D01*
X005002Y011250D01*
X005002Y010965D01*
X005633Y010965D01*
X005633Y010932D02*
X005092Y010932D01*
X005002Y011030D02*
X003813Y011030D01*
X003813Y010932D02*
X004275Y010932D01*
X004276Y010933D02*
X004248Y010905D01*
X004229Y010871D01*
X004218Y010833D01*
X004218Y010607D01*
X004633Y010607D01*
X004633Y010963D01*
X004349Y010963D01*
X004310Y010953D01*
X004276Y010933D01*
X004218Y010833D02*
X003813Y010833D01*
X003813Y010735D02*
X004218Y010735D01*
X004218Y010636D02*
X003813Y010636D01*
X003813Y010538D02*
X004633Y010538D01*
X004633Y010636D02*
X004733Y010636D01*
X004733Y010735D02*
X004633Y010735D01*
X004633Y010833D02*
X004733Y010833D01*
X004733Y010932D02*
X004633Y010932D01*
X005002Y011129D02*
X003813Y011129D01*
X003813Y011227D02*
X005002Y011227D01*
X005036Y011326D02*
X003813Y011326D01*
X003813Y011424D02*
X006549Y011424D01*
X006561Y011437D02*
X006533Y011409D01*
X006514Y011374D01*
X006503Y011336D01*
X006503Y010914D01*
X007233Y010914D01*
X007233Y011467D01*
X006634Y011467D01*
X006596Y011456D01*
X006561Y011437D01*
X006503Y011326D02*
X006331Y011326D01*
X006365Y011227D02*
X006503Y011227D01*
X006503Y011129D02*
X006365Y011129D01*
X006320Y011523D02*
X003813Y011523D01*
X003813Y011621D02*
X006275Y011621D01*
X006275Y011720D02*
X003813Y011720D01*
X003813Y011818D02*
X006275Y011818D01*
X006275Y011917D02*
X003813Y011917D01*
X003813Y012015D02*
X006275Y012015D01*
X006275Y012114D02*
X003813Y012114D01*
X003813Y012212D02*
X006275Y012212D01*
X006275Y012311D02*
X004835Y012311D01*
X004863Y012339D02*
X004863Y012339D01*
X004933Y012409D02*
X006320Y012409D01*
X006263Y012508D02*
X005032Y012508D01*
X005130Y012606D02*
X006243Y012606D01*
X006257Y012705D02*
X005229Y012705D01*
X005327Y012803D02*
X006313Y012803D01*
X006471Y012902D02*
X005426Y012902D01*
X005524Y013000D02*
X007892Y013000D01*
X007991Y012902D02*
X007596Y012902D01*
X007471Y012902D02*
X007096Y012902D01*
X006971Y012902D02*
X006596Y012902D01*
X006754Y012803D02*
X006813Y012803D01*
X007033Y012614D02*
X007033Y011966D01*
X006820Y011523D02*
X006746Y011523D01*
X006533Y011966D02*
X006533Y012614D01*
X007254Y012803D02*
X007313Y012803D01*
X007533Y012614D02*
X007533Y011966D01*
X007320Y011523D02*
X007246Y011523D01*
X007233Y011424D02*
X007333Y011424D01*
X007333Y011326D02*
X007233Y011326D01*
X007233Y011227D02*
X007333Y011227D01*
X007333Y011129D02*
X007233Y011129D01*
X007233Y011030D02*
X007333Y011030D01*
X007333Y010932D02*
X007233Y010932D01*
X007233Y010636D02*
X007333Y010636D01*
X007333Y010538D02*
X007233Y010538D01*
X007233Y010439D02*
X007333Y010439D01*
X007333Y010341D02*
X007233Y010341D01*
X007342Y010242D02*
X006284Y010242D01*
X006352Y010538D02*
X006503Y010538D01*
X006503Y010636D02*
X006365Y010636D01*
X006365Y010735D02*
X006503Y010735D01*
X006503Y010439D02*
X005148Y010439D01*
X005148Y010341D02*
X006521Y010341D01*
X005733Y010538D02*
X005633Y010538D01*
X005633Y010636D02*
X005733Y010636D01*
X005733Y010735D02*
X005633Y010735D01*
X005633Y010833D02*
X005733Y010833D01*
X005733Y011129D02*
X005633Y011129D01*
X005633Y011227D02*
X005733Y011227D01*
X005733Y011326D02*
X005633Y011326D01*
X004583Y012614D02*
X003633Y012614D01*
X003433Y012414D01*
X003433Y009714D01*
X003083Y009364D01*
X003083Y008764D01*
X002583Y008264D01*
X003043Y008272D02*
X003103Y008272D01*
X003103Y008174D02*
X003043Y008174D01*
X003043Y008075D02*
X003103Y008075D01*
X003042Y007977D02*
X002947Y007977D01*
X002943Y007878D02*
X002848Y007878D01*
X002845Y007780D02*
X000368Y007780D01*
X000368Y007878D02*
X001318Y007878D01*
X001220Y007977D02*
X000368Y007977D01*
X000368Y008075D02*
X001123Y008075D01*
X001123Y008174D02*
X000368Y008174D01*
X000368Y008272D02*
X001123Y008272D01*
X001123Y008371D02*
X000368Y008371D01*
X000368Y008469D02*
X001138Y008469D01*
X001237Y008568D02*
X000368Y008568D01*
X000368Y008666D02*
X001335Y008666D01*
X001333Y008863D02*
X000368Y008863D01*
X000368Y008765D02*
X002830Y008765D01*
X002833Y008863D02*
X002903Y008863D01*
X003043Y008469D02*
X003103Y008469D01*
X003103Y008371D02*
X003043Y008371D01*
X003463Y008666D02*
X004634Y008666D01*
X004634Y008765D02*
X003463Y008765D01*
X003463Y008863D02*
X004634Y008863D01*
X004416Y008568D02*
X004320Y008568D01*
X004320Y008469D02*
X004416Y008469D01*
X004416Y008371D02*
X004320Y008371D01*
X004416Y008312D02*
X004416Y008215D01*
X004735Y008215D01*
X004735Y008047D01*
X004724Y008009D01*
X004705Y007975D01*
X004695Y007965D01*
X004695Y007894D01*
X004708Y007894D01*
X004797Y007805D01*
X004797Y007936D01*
X004868Y008007D01*
X004835Y008026D01*
X004807Y008054D01*
X004787Y008088D01*
X004777Y008126D01*
X004777Y008255D01*
X005351Y008255D01*
X005351Y008273D01*
X004777Y008273D01*
X004777Y008402D01*
X004787Y008440D01*
X004792Y008449D01*
X004764Y008449D01*
X004735Y008457D01*
X004735Y008312D01*
X004416Y008312D01*
X004416Y008272D02*
X005351Y008272D01*
X004777Y008174D02*
X004735Y008174D01*
X004735Y008075D02*
X004794Y008075D01*
X004838Y007977D02*
X004706Y007977D01*
X004723Y007878D02*
X004797Y007878D01*
X004633Y007714D02*
X004368Y007714D01*
X004633Y007714D02*
X004783Y007564D01*
X004783Y007314D01*
X004833Y007264D01*
X005360Y007264D01*
X004963Y007512D02*
X004963Y007516D01*
X005847Y007516D01*
X005885Y007554D01*
X005970Y007554D01*
X006093Y007677D01*
X006187Y007770D01*
X006187Y008519D01*
X006213Y008545D01*
X006213Y009283D01*
X006137Y009359D01*
X005517Y009359D01*
X005441Y009283D01*
X005441Y009265D01*
X005435Y009287D01*
X005416Y009321D01*
X005388Y009349D01*
X005355Y009368D01*
X006269Y009368D01*
X006275Y009374D01*
X006275Y009363D01*
X006352Y009287D01*
X006715Y009287D01*
X006783Y009355D01*
X006803Y009335D01*
X006803Y009244D01*
X006337Y008778D01*
X006293Y008671D01*
X006293Y006864D01*
X006248Y006910D01*
X006141Y006954D01*
X006026Y006954D01*
X005923Y006911D01*
X005923Y006936D01*
X005847Y007012D01*
X004873Y007012D01*
X004797Y006936D01*
X004797Y006629D01*
X004682Y006744D01*
X004533Y006744D01*
X004533Y006314D01*
X004433Y006314D01*
X004433Y006214D01*
X004003Y006214D01*
X004003Y006065D01*
X004125Y005944D01*
X003842Y005944D01*
X003849Y005951D01*
X003894Y006012D01*
X003928Y006079D01*
X003952Y006151D01*
X003961Y006214D01*
X003533Y006214D01*
X003533Y006314D01*
X003961Y006314D01*
X003952Y006376D01*
X003928Y006448D01*
X003894Y006515D01*
X003849Y006576D01*
X003796Y006630D01*
X003735Y006674D01*
X003711Y006687D01*
X003773Y006749D01*
X003791Y006767D01*
X003949Y006767D01*
X004026Y006843D01*
X004026Y006861D01*
X004031Y006839D01*
X004051Y006805D01*
X004079Y006777D01*
X004113Y006757D01*
X004151Y006747D01*
X004320Y006747D01*
X004320Y007065D01*
X004416Y007065D01*
X004416Y006747D01*
X004585Y006747D01*
X004623Y006757D01*
X004657Y006777D01*
X004685Y006805D01*
X004705Y006839D01*
X004715Y006877D01*
X004715Y007065D01*
X004416Y007065D01*
X004416Y007162D01*
X004680Y007162D01*
X004709Y007134D01*
X004759Y007084D01*
X004805Y007084D01*
X004873Y007016D01*
X005847Y007016D01*
X005923Y007092D01*
X005923Y007436D01*
X005847Y007512D01*
X004963Y007512D01*
X004752Y007090D02*
X004416Y007090D01*
X004416Y006992D02*
X004320Y006992D01*
X004320Y006893D02*
X004416Y006893D01*
X004416Y006795D02*
X004320Y006795D01*
X004285Y006744D02*
X004003Y006463D01*
X004003Y006314D01*
X004433Y006314D01*
X004433Y006744D01*
X004285Y006744D01*
X004237Y006696D02*
X003720Y006696D01*
X003828Y006598D02*
X004139Y006598D01*
X004040Y006499D02*
X003902Y006499D01*
X003944Y006401D02*
X004003Y006401D01*
X004003Y006204D02*
X003960Y006204D01*
X003937Y006105D02*
X004003Y006105D01*
X004062Y006007D02*
X003890Y006007D01*
X003533Y006302D02*
X004433Y006302D01*
X004433Y006401D02*
X004533Y006401D01*
X004533Y006314D02*
X004963Y006314D01*
X004963Y006463D01*
X004910Y006516D01*
X005125Y006516D01*
X005114Y006504D01*
X005070Y006398D01*
X005070Y006375D01*
X005053Y006359D01*
X005053Y006168D01*
X005188Y006034D01*
X005379Y006034D01*
X005395Y006050D01*
X005417Y006050D01*
X005524Y006094D01*
X005606Y006176D01*
X005650Y006282D01*
X005650Y006398D01*
X005606Y006504D01*
X005594Y006516D01*
X005831Y006516D01*
X005837Y006499D01*
X005903Y006434D01*
X005903Y006188D01*
X005659Y005944D01*
X004842Y005944D01*
X004963Y006065D01*
X004963Y006214D01*
X004533Y006214D01*
X004533Y006314D01*
X004533Y006302D02*
X005053Y006302D01*
X005053Y006204D02*
X004963Y006204D01*
X004963Y006105D02*
X005117Y006105D01*
X004905Y006007D02*
X005722Y006007D01*
X005820Y006105D02*
X005535Y006105D01*
X005617Y006204D02*
X005903Y006204D01*
X005903Y006302D02*
X005650Y006302D01*
X005648Y006401D02*
X005903Y006401D01*
X005838Y006499D02*
X005608Y006499D01*
X005112Y006499D02*
X004927Y006499D01*
X004963Y006401D02*
X005071Y006401D01*
X004797Y006696D02*
X004730Y006696D01*
X004675Y006795D02*
X004797Y006795D01*
X004797Y006893D02*
X004715Y006893D01*
X004715Y006992D02*
X004853Y006992D01*
X004533Y006696D02*
X004433Y006696D01*
X004433Y006598D02*
X004533Y006598D01*
X004533Y006499D02*
X004433Y006499D01*
X004061Y006795D02*
X003977Y006795D01*
X003433Y006314D02*
X003433Y006214D01*
X003005Y006214D01*
X002633Y006214D01*
X002633Y006314D01*
X003433Y006314D01*
X003433Y006302D02*
X002633Y006302D01*
X002633Y006204D02*
X002533Y006204D01*
X002533Y006302D02*
X001633Y006302D01*
X001633Y006204D02*
X001533Y006204D01*
X001533Y006302D02*
X001013Y006302D01*
X001013Y006204D02*
X001103Y006204D01*
X001103Y006105D02*
X001013Y006105D01*
X001013Y006007D02*
X001162Y006007D01*
X001260Y005908D02*
X001013Y005908D01*
X001013Y005810D02*
X001359Y005810D01*
X001380Y005711D02*
X001013Y005711D01*
X001013Y005613D02*
X001282Y005613D01*
X001183Y005514D02*
X001013Y005514D01*
X000833Y005364D02*
X000833Y006614D01*
X000983Y006764D01*
X001205Y006992D02*
X000368Y006992D01*
X000368Y007090D02*
X001123Y007090D01*
X001123Y007189D02*
X000368Y007189D01*
X000368Y007287D02*
X001123Y007287D01*
X001123Y007386D02*
X000368Y007386D01*
X000368Y007484D02*
X001153Y007484D01*
X001252Y007583D02*
X000368Y007583D01*
X000368Y007681D02*
X001350Y007681D01*
X001140Y006499D02*
X001013Y006499D01*
X001013Y006401D02*
X001103Y006401D01*
X001533Y006105D02*
X001633Y006105D01*
X001633Y006007D02*
X001533Y006007D01*
X001533Y005908D02*
X001633Y005908D01*
X001633Y005810D02*
X001533Y005810D01*
X001583Y005264D02*
X000933Y005264D01*
X000833Y005364D01*
X001583Y005264D02*
X001633Y005264D01*
X002533Y005810D02*
X002633Y005810D01*
X002633Y005908D02*
X002533Y005908D01*
X002533Y006007D02*
X002633Y006007D01*
X002633Y006105D02*
X002533Y006105D01*
X002808Y005810D02*
X002875Y005810D01*
X002907Y005908D02*
X002973Y005908D01*
X003005Y006007D02*
X003077Y006007D01*
X003883Y005514D02*
X004083Y005514D01*
X004023Y005416D02*
X003943Y005416D01*
X003943Y005317D02*
X004023Y005317D01*
X004023Y005219D02*
X003943Y005219D01*
X003943Y005120D02*
X004023Y005120D01*
X004075Y005022D02*
X003892Y005022D01*
X003793Y004923D02*
X004173Y004923D01*
X004272Y004825D02*
X003695Y004825D01*
X003770Y004628D02*
X004197Y004628D01*
X004098Y004529D02*
X003868Y004529D01*
X003943Y004431D02*
X004023Y004431D01*
X004023Y004332D02*
X003943Y004332D01*
X003943Y004234D02*
X004023Y004234D01*
X004023Y004135D02*
X003943Y004135D01*
X003907Y004037D02*
X004060Y004037D01*
X004158Y003938D02*
X003808Y003938D01*
X003710Y003840D02*
X004257Y003840D01*
X004452Y003643D02*
X000368Y003643D01*
X000368Y003741D02*
X004551Y003741D01*
X004943Y004135D02*
X004945Y004135D01*
X004943Y004234D02*
X005043Y004234D01*
X005142Y004332D02*
X004943Y004332D01*
X004943Y004431D02*
X005240Y004431D01*
X005367Y004529D02*
X004868Y004529D01*
X004770Y004628D02*
X005582Y004628D01*
X005833Y003864D02*
X005783Y003814D01*
X005783Y003398D01*
X005183Y003398D02*
X005183Y003664D01*
X005033Y003814D01*
X006383Y003814D02*
X006383Y003398D01*
X006383Y003814D02*
X006433Y003864D01*
X006643Y004064D02*
X007198Y004618D01*
X007279Y004699D01*
X007323Y004806D01*
X007323Y006294D01*
X007393Y006364D01*
X007393Y006256D01*
X007437Y006149D01*
X007519Y006068D01*
X007560Y006051D01*
X007537Y006028D01*
X007493Y005921D01*
X007493Y003794D01*
X006909Y003794D01*
X006840Y003725D01*
X006713Y003725D01*
X006683Y003696D01*
X006679Y003700D01*
X006723Y003806D01*
X006723Y003921D01*
X006679Y004028D01*
X006643Y004064D01*
X006670Y004037D02*
X007493Y004037D01*
X007493Y004135D02*
X006715Y004135D01*
X006813Y004234D02*
X007493Y004234D01*
X007493Y004332D02*
X006912Y004332D01*
X007010Y004431D02*
X007493Y004431D01*
X007493Y004529D02*
X007109Y004529D01*
X007207Y004628D02*
X007493Y004628D01*
X007493Y004726D02*
X007290Y004726D01*
X007323Y004825D02*
X007493Y004825D01*
X007493Y004923D02*
X007323Y004923D01*
X007323Y005022D02*
X007493Y005022D01*
X007493Y005120D02*
X007323Y005120D01*
X007323Y005219D02*
X007493Y005219D01*
X007493Y005317D02*
X007323Y005317D01*
X007323Y005416D02*
X007493Y005416D01*
X007493Y005514D02*
X007323Y005514D01*
X007323Y005613D02*
X007493Y005613D01*
X007493Y005711D02*
X007323Y005711D01*
X007323Y005810D02*
X007493Y005810D01*
X007493Y005908D02*
X007323Y005908D01*
X007323Y006007D02*
X007529Y006007D01*
X007482Y006105D02*
X007323Y006105D01*
X007323Y006204D02*
X007415Y006204D01*
X007393Y006302D02*
X007332Y006302D01*
X008073Y005514D02*
X008111Y005514D01*
X008093Y005416D02*
X008073Y005416D01*
X008073Y005317D02*
X008093Y005317D01*
X008093Y005219D02*
X008073Y005219D01*
X008073Y005120D02*
X008093Y005120D01*
X008093Y005022D02*
X008073Y005022D01*
X008073Y004923D02*
X008093Y004923D01*
X008093Y004825D02*
X008073Y004825D01*
X008073Y004726D02*
X008093Y004726D01*
X008093Y004628D02*
X008073Y004628D01*
X008073Y004529D02*
X008093Y004529D01*
X008093Y004431D02*
X008073Y004431D01*
X008073Y004332D02*
X008093Y004332D01*
X008093Y004234D02*
X008073Y004234D01*
X008073Y004135D02*
X008093Y004135D01*
X008093Y004037D02*
X008073Y004037D01*
X008073Y003938D02*
X008093Y003938D01*
X008093Y003840D02*
X008073Y003840D01*
X008073Y003741D02*
X008120Y003741D01*
X008073Y003643D02*
X008194Y003643D01*
X008293Y003544D02*
X008073Y003544D01*
X008073Y003446D02*
X008391Y003446D01*
X008490Y003347D02*
X008073Y003347D01*
X008073Y003249D02*
X008493Y003249D01*
X008493Y003150D02*
X008073Y003150D01*
X008073Y003052D02*
X008493Y003052D01*
X008405Y002953D02*
X008162Y002953D01*
X008227Y002855D02*
X008339Y002855D01*
X008299Y002756D02*
X008268Y002756D01*
X008280Y002658D02*
X008287Y002658D01*
X008280Y002559D02*
X008287Y002559D01*
X008280Y002461D02*
X008287Y002461D01*
X008280Y002362D02*
X008287Y002362D01*
X008280Y002264D02*
X008287Y002264D01*
X008280Y002165D02*
X008287Y002165D01*
X008280Y002067D02*
X008287Y002067D01*
X008280Y001968D02*
X008287Y001968D01*
X008280Y001870D02*
X008287Y001870D01*
X008299Y001771D02*
X008268Y001771D01*
X008227Y001673D02*
X008339Y001673D01*
X008405Y001574D02*
X008162Y001574D01*
X008062Y001476D02*
X008505Y001476D01*
X009062Y001476D02*
X009486Y001476D01*
X009380Y001574D02*
X009162Y001574D01*
X009227Y001673D02*
X009318Y001673D01*
X009282Y001771D02*
X009268Y001771D01*
X009733Y001771D02*
X009833Y001771D01*
X009833Y001673D02*
X009733Y001673D01*
X009733Y001574D02*
X009833Y001574D01*
X009833Y001476D02*
X009733Y001476D01*
X010081Y001476D02*
X010505Y001476D01*
X010405Y001574D02*
X010187Y001574D01*
X010248Y001673D02*
X010339Y001673D01*
X010299Y001771D02*
X010285Y001771D01*
X009833Y001870D02*
X009733Y001870D01*
X009733Y001968D02*
X009833Y001968D01*
X009833Y002067D02*
X009733Y002067D01*
X009733Y002165D02*
X009833Y002165D01*
X009833Y002314D02*
X009733Y002314D01*
X009733Y003145D01*
X009662Y003133D01*
X009585Y003108D01*
X009513Y003071D01*
X009447Y003024D01*
X009390Y002966D01*
X009342Y002901D01*
X009305Y002828D01*
X009280Y002751D01*
X009277Y002734D01*
X009204Y002911D01*
X009073Y003042D01*
X009073Y003521D01*
X009029Y003628D01*
X008673Y003984D01*
X008673Y005124D01*
X008757Y005124D01*
X008757Y004962D01*
X009410Y004962D01*
X009410Y004865D01*
X009507Y004865D01*
X009507Y004962D01*
X010159Y004962D01*
X010159Y005124D01*
X010627Y005124D01*
X010627Y004663D01*
X010704Y004587D01*
X011235Y004587D01*
X011243Y004584D01*
X011919Y004584D01*
X011919Y003813D01*
X011995Y003737D01*
X012514Y003737D01*
X012833Y003417D01*
X012833Y003029D01*
X012772Y003091D01*
X011995Y003091D01*
X011919Y003015D01*
X011919Y002944D01*
X011171Y002944D01*
X011064Y003051D01*
X010882Y003126D01*
X010685Y003126D01*
X010502Y003051D01*
X010363Y002911D01*
X010289Y002734D01*
X010287Y002751D01*
X010262Y002828D01*
X010225Y002901D01*
X010177Y002966D01*
X010120Y003024D01*
X010054Y003071D01*
X009981Y003108D01*
X009904Y003133D01*
X009833Y003145D01*
X009833Y002314D01*
X009833Y002362D02*
X009733Y002362D01*
X009733Y002461D02*
X009833Y002461D01*
X009833Y002559D02*
X009733Y002559D01*
X009733Y002658D02*
X009833Y002658D01*
X009833Y002756D02*
X009733Y002756D01*
X009733Y002855D02*
X009833Y002855D01*
X009833Y002953D02*
X009733Y002953D01*
X009733Y003052D02*
X009833Y003052D01*
X010081Y003052D02*
X010505Y003052D01*
X010405Y002953D02*
X010187Y002953D01*
X010248Y002855D02*
X010339Y002855D01*
X010299Y002756D02*
X010285Y002756D01*
X011062Y003052D02*
X011956Y003052D01*
X011919Y002953D02*
X011162Y002953D01*
X011280Y002264D02*
X011919Y002264D01*
X011952Y002165D02*
X011280Y002165D01*
X011280Y002067D02*
X011699Y002067D01*
X011712Y002071D02*
X011634Y002046D01*
X011561Y002008D01*
X011495Y001960D01*
X011437Y001903D01*
X011389Y001836D01*
X011351Y001763D01*
X011326Y001686D01*
X011315Y001614D01*
X011783Y001614D01*
X011783Y002082D01*
X011712Y002071D01*
X011783Y002067D02*
X011883Y002067D01*
X011968Y002067D02*
X012683Y002067D01*
X012531Y001968D02*
X012161Y001968D01*
X012254Y001870D02*
X012432Y001870D01*
X012378Y001771D02*
X012311Y001771D01*
X012319Y001377D02*
X012369Y001377D01*
X012411Y001279D02*
X012269Y001279D01*
X012185Y001180D02*
X012510Y001180D01*
X012690Y001082D02*
X012033Y001082D01*
X011761Y001049D02*
X007370Y001049D01*
X007370Y001180D02*
X011481Y001180D01*
X011634Y001082D02*
X011712Y001057D01*
X011761Y001049D01*
X011321Y001476D02*
X011062Y001476D01*
X011162Y001574D02*
X011783Y001574D01*
X011783Y001673D02*
X011883Y001673D01*
X011883Y001771D02*
X011783Y001771D01*
X011783Y001870D02*
X011883Y001870D01*
X011883Y001968D02*
X011783Y001968D01*
X011505Y001968D02*
X011280Y001968D01*
X011280Y001870D02*
X011413Y001870D01*
X011355Y001771D02*
X011268Y001771D01*
X011227Y001673D02*
X011324Y001673D01*
X012811Y003052D02*
X012833Y003052D01*
X012833Y003150D02*
X009073Y003150D01*
X009073Y003052D02*
X009486Y003052D01*
X009380Y002953D02*
X009162Y002953D01*
X009227Y002855D02*
X009318Y002855D01*
X009282Y002756D02*
X009268Y002756D01*
X009073Y003249D02*
X012833Y003249D01*
X012833Y003347D02*
X009073Y003347D01*
X009073Y003446D02*
X012805Y003446D01*
X012706Y003544D02*
X009064Y003544D01*
X009014Y003643D02*
X012608Y003643D01*
X013019Y003938D02*
X013258Y003938D01*
X013160Y004037D02*
X012921Y004037D01*
X012848Y004135D02*
X013123Y004135D01*
X013123Y004073D02*
X013393Y003804D01*
X013774Y003804D01*
X014043Y004073D01*
X014043Y004454D01*
X013774Y004724D01*
X013393Y004724D01*
X013123Y004454D01*
X013123Y004073D01*
X013123Y004234D02*
X012848Y004234D01*
X012848Y004332D02*
X013123Y004332D01*
X013123Y004431D02*
X012848Y004431D01*
X012848Y004529D02*
X013198Y004529D01*
X013297Y004628D02*
X012848Y004628D01*
X012713Y004726D02*
X014367Y004726D01*
X014385Y004744D02*
X014103Y004463D01*
X014103Y004314D01*
X014533Y004314D01*
X014533Y004214D01*
X014103Y004214D01*
X014103Y004065D01*
X014385Y003784D01*
X014533Y003784D01*
X014533Y004214D01*
X014633Y004214D01*
X014633Y003784D01*
X014782Y003784D01*
X015063Y004065D01*
X015063Y004214D01*
X014633Y004214D01*
X014633Y004314D01*
X014533Y004314D01*
X014533Y004744D01*
X014385Y004744D01*
X014372Y004825D02*
X013795Y004825D01*
X013774Y004804D02*
X014043Y005073D01*
X014043Y005454D01*
X013774Y005724D01*
X013393Y005724D01*
X013123Y005454D01*
X013123Y005073D01*
X013393Y004804D01*
X013774Y004804D01*
X013893Y004923D02*
X014273Y004923D01*
X014175Y005022D02*
X013992Y005022D01*
X014043Y005120D02*
X014123Y005120D01*
X014123Y005219D02*
X014043Y005219D01*
X014043Y005317D02*
X014123Y005317D01*
X014123Y005416D02*
X014043Y005416D01*
X013983Y005514D02*
X014183Y005514D01*
X014130Y005613D02*
X013885Y005613D01*
X013786Y005711D02*
X014031Y005711D01*
X013933Y005810D02*
X013780Y005810D01*
X013878Y005908D02*
X013903Y005908D01*
X014083Y005914D02*
X014083Y006764D01*
X013933Y006764D01*
X013663Y006795D02*
X012873Y006795D01*
X012873Y006893D02*
X013303Y006893D01*
X013205Y006992D02*
X012873Y006992D01*
X012873Y007090D02*
X013123Y007090D01*
X013123Y007189D02*
X012873Y007189D01*
X012873Y007287D02*
X013123Y007287D01*
X013123Y007386D02*
X012847Y007386D01*
X012773Y007484D02*
X013153Y007484D01*
X013252Y007583D02*
X012812Y007583D01*
X012863Y007681D02*
X013350Y007681D01*
X013393Y007804D02*
X013774Y007804D01*
X014043Y008073D01*
X014043Y008454D01*
X013774Y008724D01*
X013393Y008724D01*
X013123Y008454D01*
X013123Y008073D01*
X013393Y007804D01*
X013318Y007878D02*
X012873Y007878D01*
X012873Y007780D02*
X013903Y007780D01*
X013903Y007681D02*
X013816Y007681D01*
X013848Y007878D02*
X013943Y007878D01*
X013947Y007977D02*
X014042Y007977D01*
X014043Y008075D02*
X014123Y008075D01*
X014123Y008174D02*
X014043Y008174D01*
X014043Y008272D02*
X014123Y008272D01*
X014123Y008371D02*
X014043Y008371D01*
X014028Y008469D02*
X014138Y008469D01*
X014237Y008568D02*
X013930Y008568D01*
X013926Y008666D02*
X013831Y008666D01*
X013903Y008765D02*
X012923Y008765D01*
X012923Y008863D02*
X013305Y008863D01*
X013206Y008962D02*
X012923Y008962D01*
X012923Y009060D02*
X013108Y009060D01*
X013103Y009159D02*
X012923Y009159D01*
X012923Y009257D02*
X013533Y009257D01*
X013533Y009314D02*
X013103Y009314D01*
X013103Y009463D01*
X013385Y009744D01*
X013533Y009744D01*
X013533Y009314D01*
X013533Y009356D02*
X013633Y009356D01*
X013633Y009454D02*
X013533Y009454D01*
X013533Y009553D02*
X013633Y009553D01*
X013633Y009651D02*
X013533Y009651D01*
X013292Y009651D02*
X012923Y009651D01*
X012923Y009553D02*
X013194Y009553D01*
X013103Y009454D02*
X012923Y009454D01*
X012923Y009356D02*
X013103Y009356D01*
X013533Y009159D02*
X013633Y009159D01*
X013633Y009060D02*
X013533Y009060D01*
X013533Y008962D02*
X013633Y008962D01*
X013633Y008863D02*
X013533Y008863D01*
X013335Y008666D02*
X012923Y008666D01*
X012923Y008568D02*
X013237Y008568D01*
X013138Y008469D02*
X012923Y008469D01*
X012923Y008371D02*
X013123Y008371D01*
X013123Y008272D02*
X012909Y008272D01*
X012873Y008174D02*
X013123Y008174D01*
X013123Y008075D02*
X012873Y008075D01*
X012873Y007977D02*
X013220Y007977D01*
X012343Y008512D02*
X011523Y008512D01*
X011523Y008844D01*
X011798Y009118D01*
X011879Y009199D01*
X011918Y009294D01*
X011947Y009277D01*
X011986Y009267D01*
X012119Y009267D01*
X012119Y009747D01*
X012147Y009747D01*
X012147Y009267D01*
X012281Y009267D01*
X012319Y009277D01*
X012343Y009291D01*
X012343Y008512D01*
X012343Y008568D02*
X011523Y008568D01*
X011523Y008666D02*
X012343Y008666D01*
X012343Y008765D02*
X011523Y008765D01*
X011543Y008863D02*
X012343Y008863D01*
X012343Y008962D02*
X011641Y008962D01*
X011740Y009060D02*
X012343Y009060D01*
X012343Y009159D02*
X011838Y009159D01*
X011798Y009118D02*
X011798Y009118D01*
X011903Y009257D02*
X012343Y009257D01*
X012147Y009356D02*
X012119Y009356D01*
X012119Y009454D02*
X012147Y009454D01*
X012147Y009553D02*
X012119Y009553D01*
X012119Y009651D02*
X012147Y009651D01*
X012147Y009848D02*
X012119Y009848D01*
X012119Y009947D02*
X012147Y009947D01*
X012147Y010045D02*
X012119Y010045D01*
X012119Y010144D02*
X012147Y010144D01*
X012147Y010242D02*
X012119Y010242D01*
X011942Y010242D02*
X010884Y010242D01*
X011121Y010341D02*
X009748Y010341D01*
X009748Y010439D02*
X011103Y010439D01*
X011103Y010538D02*
X010952Y010538D01*
X010965Y010636D02*
X011103Y010636D01*
X011103Y010735D02*
X010965Y010735D01*
X010965Y010833D02*
X011833Y010833D01*
X011833Y010735D02*
X011933Y010735D01*
X011933Y010833D02*
X013363Y010833D01*
X013393Y010804D02*
X013774Y010804D01*
X014043Y011073D01*
X014043Y011454D01*
X013774Y011724D01*
X013393Y011724D01*
X013123Y011454D01*
X013123Y011073D01*
X013393Y010804D01*
X013265Y010932D02*
X012663Y010932D01*
X012663Y010914D02*
X012663Y011336D01*
X012653Y011374D01*
X012633Y011409D01*
X012605Y011437D01*
X012571Y011456D01*
X012533Y011467D01*
X011933Y011467D01*
X011933Y010914D01*
X012663Y010914D01*
X012663Y011030D02*
X013166Y011030D01*
X013123Y011129D02*
X012663Y011129D01*
X012663Y011227D02*
X013123Y011227D01*
X013123Y011326D02*
X012663Y011326D01*
X012618Y011424D02*
X013123Y011424D01*
X013192Y011523D02*
X012875Y011523D01*
X012911Y011621D02*
X013290Y011621D01*
X013389Y011720D02*
X012911Y011720D01*
X012911Y011818D02*
X013350Y011818D01*
X013251Y011917D02*
X012911Y011917D01*
X012911Y011980D02*
X012911Y012330D01*
X012901Y012369D01*
X012881Y012403D01*
X012853Y012431D01*
X012819Y012450D01*
X012781Y012461D01*
X012647Y012461D01*
X012647Y011980D01*
X012911Y011980D01*
X012911Y012015D02*
X013153Y012015D01*
X013103Y012114D02*
X012911Y012114D01*
X012911Y012212D02*
X013103Y012212D01*
X013103Y012409D02*
X012875Y012409D01*
X012911Y012311D02*
X013533Y012311D01*
X013533Y012409D02*
X013633Y012409D01*
X013633Y012314D02*
X013633Y012744D01*
X013782Y012744D01*
X014063Y012463D01*
X014063Y012314D01*
X013633Y012314D01*
X013633Y012311D02*
X014123Y012311D01*
X014123Y012409D02*
X014063Y012409D01*
X014018Y012508D02*
X014177Y012508D01*
X014275Y012606D02*
X013920Y012606D01*
X013821Y012705D02*
X014374Y012705D01*
X014295Y012902D02*
X013872Y012902D01*
X013970Y013000D02*
X014196Y013000D01*
X014123Y013099D02*
X014043Y013099D01*
X014043Y013197D02*
X014123Y013197D01*
X014123Y013296D02*
X014043Y013296D01*
X014043Y013394D02*
X014123Y013394D01*
X014162Y013493D02*
X014005Y013493D01*
X013906Y013591D02*
X014260Y013591D01*
X014359Y013690D02*
X013808Y013690D01*
X013359Y013690D02*
X008312Y013690D01*
X008399Y013788D02*
X008213Y013788D01*
X008337Y013849D02*
X008293Y013956D01*
X008293Y014071D01*
X008337Y014178D01*
X008373Y014214D01*
X008373Y014523D01*
X008323Y014544D01*
X008193Y014673D01*
X008123Y014842D01*
X008123Y015685D01*
X008193Y015854D01*
X008323Y015984D01*
X008492Y016054D01*
X008675Y016054D01*
X008844Y015984D01*
X008973Y015854D01*
X009043Y015685D01*
X009043Y014842D01*
X008973Y014673D01*
X008844Y014544D01*
X008793Y014523D01*
X008793Y014214D01*
X008829Y014178D01*
X008873Y014071D01*
X008873Y013956D01*
X008829Y013849D01*
X008748Y013768D01*
X008641Y013724D01*
X008526Y013724D01*
X008419Y013768D01*
X008337Y013849D01*
X008322Y013887D02*
X008115Y013887D01*
X008016Y013985D02*
X008293Y013985D01*
X008298Y014084D02*
X007918Y014084D01*
X007819Y014182D02*
X008342Y014182D01*
X008373Y014281D02*
X007721Y014281D01*
X007622Y014379D02*
X008373Y014379D01*
X008373Y014478D02*
X007733Y014478D01*
X007633Y014478D02*
X007533Y014478D01*
X007533Y014576D02*
X007633Y014576D01*
X007633Y014675D02*
X007533Y014675D01*
X007533Y014773D02*
X007633Y014773D01*
X007633Y014872D02*
X007533Y014872D01*
X007533Y014970D02*
X007633Y014970D01*
X007633Y015069D02*
X007533Y015069D01*
X007533Y015167D02*
X007633Y015167D01*
X007633Y015266D02*
X008123Y015266D01*
X008123Y015364D02*
X008063Y015364D01*
X008063Y015463D02*
X008123Y015463D01*
X008123Y015561D02*
X008063Y015561D01*
X008059Y015660D02*
X008123Y015660D01*
X008154Y015758D02*
X008035Y015758D01*
X007986Y015857D02*
X008196Y015857D01*
X008294Y015955D02*
X007901Y015955D01*
X007633Y015955D02*
X007533Y015955D01*
X007533Y015857D02*
X007633Y015857D01*
X007633Y015758D02*
X007533Y015758D01*
X007533Y015660D02*
X007633Y015660D01*
X007633Y015561D02*
X007533Y015561D01*
X007533Y015463D02*
X007633Y015463D01*
X007633Y015364D02*
X007533Y015364D01*
X007533Y015266D02*
X007043Y015266D01*
X007043Y015364D02*
X007103Y015364D01*
X007103Y015463D02*
X007043Y015463D01*
X007043Y015561D02*
X007103Y015561D01*
X007108Y015660D02*
X007043Y015660D01*
X007043Y015685D02*
X006973Y015854D01*
X006844Y015984D01*
X006675Y016054D01*
X006492Y016054D01*
X006323Y015984D01*
X006193Y015854D01*
X006123Y015685D01*
X006123Y014842D01*
X006193Y014673D01*
X006323Y014544D01*
X006492Y014474D01*
X006675Y014474D01*
X006844Y014544D01*
X006973Y014673D01*
X007043Y014842D01*
X007043Y015685D01*
X007013Y015758D02*
X007132Y015758D01*
X007181Y015857D02*
X006971Y015857D01*
X006872Y015955D02*
X007266Y015955D01*
X007103Y015167D02*
X007043Y015167D01*
X007043Y015069D02*
X007103Y015069D01*
X007103Y014970D02*
X007043Y014970D01*
X007043Y014872D02*
X007107Y014872D01*
X007131Y014773D02*
X007015Y014773D01*
X006974Y014675D02*
X007178Y014675D01*
X007262Y014576D02*
X006876Y014576D01*
X006685Y014478D02*
X007433Y014478D01*
X007905Y014576D02*
X008290Y014576D01*
X008193Y014675D02*
X007988Y014675D01*
X008036Y014773D02*
X008152Y014773D01*
X008123Y014872D02*
X008059Y014872D01*
X008063Y014970D02*
X008123Y014970D01*
X008123Y015069D02*
X008063Y015069D01*
X008063Y015167D02*
X008123Y015167D01*
X008793Y014478D02*
X009373Y014478D01*
X009373Y014523D02*
X009373Y014214D01*
X009337Y014178D01*
X009293Y014071D01*
X009293Y013956D01*
X009337Y013849D01*
X009419Y013768D01*
X009526Y013724D01*
X009641Y013724D01*
X009748Y013768D01*
X009829Y013849D01*
X009873Y013956D01*
X009873Y014071D01*
X009829Y014178D01*
X009793Y014214D01*
X009793Y014523D01*
X009844Y014544D01*
X009973Y014673D01*
X010043Y014842D01*
X010043Y015685D01*
X009973Y015854D01*
X009844Y015984D01*
X009675Y016054D01*
X009492Y016054D01*
X009323Y015984D01*
X009193Y015854D01*
X009123Y015685D01*
X009123Y014842D01*
X009193Y014673D01*
X009323Y014544D01*
X009373Y014523D01*
X009290Y014576D02*
X008876Y014576D01*
X008974Y014675D02*
X009193Y014675D01*
X009152Y014773D02*
X009015Y014773D01*
X009043Y014872D02*
X009123Y014872D01*
X009123Y014970D02*
X009043Y014970D01*
X009043Y015069D02*
X009123Y015069D01*
X009123Y015167D02*
X009043Y015167D01*
X009043Y015266D02*
X009123Y015266D01*
X009123Y015364D02*
X009043Y015364D01*
X009043Y015463D02*
X009123Y015463D01*
X009123Y015561D02*
X009043Y015561D01*
X009043Y015660D02*
X009123Y015660D01*
X009154Y015758D02*
X009013Y015758D01*
X008971Y015857D02*
X009196Y015857D01*
X009294Y015955D02*
X008872Y015955D01*
X009872Y015955D02*
X010294Y015955D01*
X010196Y015857D02*
X009971Y015857D01*
X010013Y015758D02*
X010154Y015758D01*
X010123Y015660D02*
X010043Y015660D01*
X010043Y015561D02*
X010123Y015561D01*
X010123Y015463D02*
X010043Y015463D01*
X010043Y015364D02*
X010123Y015364D01*
X010123Y015266D02*
X010043Y015266D01*
X010043Y015167D02*
X010123Y015167D01*
X010123Y015069D02*
X010043Y015069D01*
X010043Y014970D02*
X010123Y014970D01*
X010123Y014872D02*
X010043Y014872D01*
X010015Y014773D02*
X010152Y014773D01*
X010193Y014675D02*
X009974Y014675D01*
X009876Y014576D02*
X010290Y014576D01*
X010373Y014478D02*
X009793Y014478D01*
X009793Y014379D02*
X010373Y014379D01*
X010373Y014281D02*
X009793Y014281D01*
X009825Y014182D02*
X010342Y014182D01*
X010298Y014084D02*
X009868Y014084D01*
X009873Y013985D02*
X010293Y013985D01*
X010322Y013887D02*
X009845Y013887D01*
X009768Y013788D02*
X010399Y013788D01*
X010825Y014182D02*
X014063Y014182D01*
X013892Y014281D02*
X010793Y014281D01*
X010793Y014379D02*
X013771Y014379D01*
X013260Y013591D02*
X011810Y013591D01*
X011909Y013493D02*
X013162Y013493D01*
X013123Y013394D02*
X012007Y013394D01*
X012013Y013296D02*
X013123Y013296D01*
X013123Y013197D02*
X012013Y013197D01*
X012013Y013099D02*
X013123Y013099D01*
X013196Y013000D02*
X012013Y013000D01*
X011633Y013164D02*
X011533Y013264D01*
X008183Y013264D01*
X007433Y014014D01*
X005983Y014014D01*
X004583Y012614D01*
X004365Y013000D02*
X002970Y013000D01*
X003043Y013073D02*
X002774Y012804D01*
X002393Y012804D01*
X002123Y013073D01*
X002123Y013454D01*
X002393Y013724D01*
X002774Y013724D01*
X003043Y013454D01*
X003043Y013073D01*
X003043Y013099D02*
X004038Y013099D01*
X004069Y013068D02*
X004176Y013024D01*
X004291Y013024D01*
X004398Y013068D01*
X004479Y013149D01*
X004523Y013256D01*
X004523Y013307D01*
X005670Y014454D01*
X005701Y014485D01*
X005844Y014544D01*
X005973Y014673D01*
X006043Y014842D01*
X006043Y015685D01*
X005973Y015854D01*
X005844Y015984D01*
X005675Y016054D01*
X005492Y016054D01*
X005323Y015984D01*
X005193Y015854D01*
X005123Y015685D01*
X005123Y014842D01*
X005193Y014673D01*
X005245Y014622D01*
X004226Y013604D01*
X004176Y013604D01*
X004069Y013560D01*
X003987Y013478D01*
X003943Y013371D01*
X003943Y013256D01*
X003987Y013149D01*
X004069Y013068D01*
X003968Y013197D02*
X003043Y013197D01*
X003043Y013296D02*
X003422Y013296D01*
X003293Y013394D02*
X003043Y013394D01*
X003005Y013493D02*
X003249Y013493D01*
X002996Y013591D02*
X002906Y013591D01*
X002921Y013690D02*
X002808Y013690D01*
X002893Y013788D02*
X000368Y013788D01*
X000368Y013690D02*
X001359Y013690D01*
X001393Y013724D02*
X001123Y013454D01*
X001123Y013073D01*
X001393Y012804D01*
X001774Y012804D01*
X002043Y013073D01*
X002043Y013454D01*
X001774Y013724D01*
X001393Y013724D01*
X001260Y013591D02*
X000368Y013591D01*
X000368Y013493D02*
X001162Y013493D01*
X001123Y013394D02*
X000368Y013394D01*
X000368Y013296D02*
X001123Y013296D01*
X001123Y013197D02*
X000368Y013197D01*
X000368Y013099D02*
X001123Y013099D01*
X001196Y013000D02*
X000368Y013000D01*
X000368Y012902D02*
X001295Y012902D01*
X001393Y012724D02*
X001123Y012454D01*
X001123Y012073D01*
X001393Y011804D01*
X001774Y011804D01*
X002043Y012073D01*
X002043Y012454D01*
X001774Y012724D01*
X001393Y012724D01*
X001374Y012705D02*
X000368Y012705D01*
X000368Y012803D02*
X003268Y012803D01*
X003170Y012705D02*
X002793Y012705D01*
X002774Y012724D02*
X002393Y012724D01*
X002123Y012454D01*
X002123Y012073D01*
X002393Y011804D01*
X002774Y011804D01*
X003043Y012073D01*
X003043Y012454D01*
X002774Y012724D01*
X002891Y012606D02*
X003071Y012606D01*
X003053Y012508D02*
X002990Y012508D01*
X003043Y012409D02*
X003053Y012409D01*
X003043Y012311D02*
X003053Y012311D01*
X003043Y012212D02*
X003053Y012212D01*
X003043Y012114D02*
X003053Y012114D01*
X003053Y012015D02*
X002985Y012015D01*
X003053Y011917D02*
X002887Y011917D01*
X002788Y011818D02*
X003053Y011818D01*
X003053Y011720D02*
X002778Y011720D01*
X002774Y011724D02*
X002393Y011724D01*
X002123Y011454D01*
X002123Y011073D01*
X002393Y010804D01*
X002774Y010804D01*
X003043Y011073D01*
X003043Y011454D01*
X002774Y011724D01*
X002876Y011621D02*
X003053Y011621D01*
X003053Y011523D02*
X002975Y011523D01*
X003043Y011424D02*
X003053Y011424D01*
X003043Y011326D02*
X003053Y011326D01*
X003043Y011227D02*
X003053Y011227D01*
X003043Y011129D02*
X003053Y011129D01*
X003053Y011030D02*
X003000Y011030D01*
X003053Y010932D02*
X002902Y010932D01*
X002803Y010833D02*
X003053Y010833D01*
X003053Y010735D02*
X000368Y010735D01*
X000368Y010833D02*
X001363Y010833D01*
X001393Y010804D02*
X001774Y010804D01*
X002043Y011073D01*
X002043Y011454D01*
X001774Y011724D01*
X001393Y011724D01*
X001123Y011454D01*
X001123Y011073D01*
X001393Y010804D01*
X001393Y010724D02*
X001123Y010454D01*
X001123Y010073D01*
X001393Y009804D01*
X001774Y009804D01*
X002043Y010073D01*
X002043Y010454D01*
X001774Y010724D01*
X001393Y010724D01*
X001305Y010636D02*
X000368Y010636D01*
X000368Y010538D02*
X001207Y010538D01*
X001123Y010439D02*
X000368Y010439D01*
X000368Y010341D02*
X001123Y010341D01*
X001123Y010242D02*
X000368Y010242D01*
X000368Y010144D02*
X001123Y010144D01*
X001151Y010045D02*
X000368Y010045D01*
X000368Y009947D02*
X001250Y009947D01*
X001348Y009848D02*
X000368Y009848D01*
X000368Y009750D02*
X002815Y009750D01*
X002774Y009804D02*
X003043Y010073D01*
X003043Y010454D01*
X002774Y010724D01*
X002393Y010724D01*
X002123Y010454D01*
X002123Y010073D01*
X002393Y009804D01*
X002774Y009804D01*
X002818Y009848D02*
X002913Y009848D01*
X002917Y009947D02*
X003012Y009947D01*
X003015Y010045D02*
X003053Y010045D01*
X003043Y010144D02*
X003053Y010144D01*
X003043Y010242D02*
X003053Y010242D01*
X003043Y010341D02*
X003053Y010341D01*
X003043Y010439D02*
X003053Y010439D01*
X003053Y010538D02*
X002960Y010538D01*
X003053Y010636D02*
X002861Y010636D01*
X002363Y010833D02*
X001803Y010833D01*
X001902Y010932D02*
X002265Y010932D01*
X002166Y011030D02*
X002000Y011030D01*
X002043Y011129D02*
X002123Y011129D01*
X002123Y011227D02*
X002043Y011227D01*
X002043Y011326D02*
X002123Y011326D01*
X002123Y011424D02*
X002043Y011424D01*
X001975Y011523D02*
X002192Y011523D01*
X002290Y011621D02*
X001876Y011621D01*
X001778Y011720D02*
X002389Y011720D01*
X002378Y011818D02*
X001788Y011818D01*
X001887Y011917D02*
X002280Y011917D01*
X002181Y012015D02*
X001985Y012015D01*
X002043Y012114D02*
X002123Y012114D01*
X002123Y012212D02*
X002043Y012212D01*
X002043Y012311D02*
X002123Y012311D01*
X002123Y012409D02*
X002043Y012409D01*
X001990Y012508D02*
X002177Y012508D01*
X002275Y012606D02*
X001891Y012606D01*
X001793Y012705D02*
X002374Y012705D01*
X002295Y012902D02*
X001872Y012902D01*
X001970Y013000D02*
X002196Y013000D01*
X002123Y013099D02*
X002043Y013099D01*
X002043Y013197D02*
X002123Y013197D01*
X002123Y013296D02*
X002043Y013296D01*
X002043Y013394D02*
X002123Y013394D01*
X002162Y013493D02*
X002005Y013493D01*
X001906Y013591D02*
X002260Y013591D01*
X002359Y013690D02*
X001808Y013690D01*
X002103Y014182D02*
X003255Y014182D01*
X003353Y014281D02*
X002274Y014281D01*
X002396Y014379D02*
X003373Y014379D01*
X003373Y014478D02*
X002491Y014478D01*
X002569Y014576D02*
X003290Y014576D01*
X003193Y014675D02*
X002630Y014675D01*
X002679Y014773D02*
X003152Y014773D01*
X003123Y014872D02*
X002718Y014872D01*
X002747Y014970D02*
X003123Y014970D01*
X003123Y015069D02*
X002769Y015069D01*
X002780Y015167D02*
X003123Y015167D01*
X003793Y014478D02*
X004150Y014478D01*
X004052Y014379D02*
X003793Y014379D01*
X003793Y014281D02*
X003953Y014281D01*
X003855Y014182D02*
X003793Y014182D01*
X003756Y014084D02*
X003750Y014084D01*
X003658Y013985D02*
X003652Y013985D01*
X003559Y013887D02*
X003553Y013887D01*
X003858Y013591D02*
X004146Y013591D01*
X004002Y013493D02*
X003818Y013493D01*
X003774Y013394D02*
X003953Y013394D01*
X003943Y013296D02*
X003644Y013296D01*
X003956Y013690D02*
X004312Y013690D01*
X004411Y013788D02*
X004055Y013788D01*
X004153Y013887D02*
X004509Y013887D01*
X004608Y013985D02*
X004252Y013985D01*
X004350Y014084D02*
X004706Y014084D01*
X004805Y014182D02*
X004449Y014182D01*
X004547Y014281D02*
X004903Y014281D01*
X005002Y014379D02*
X004646Y014379D01*
X004744Y014478D02*
X005100Y014478D01*
X005199Y014576D02*
X004876Y014576D01*
X004974Y014675D02*
X005193Y014675D01*
X005152Y014773D02*
X005015Y014773D01*
X005043Y014872D02*
X005123Y014872D01*
X005123Y014970D02*
X005043Y014970D01*
X005043Y015069D02*
X005123Y015069D01*
X005123Y015167D02*
X005043Y015167D01*
X005043Y015266D02*
X005123Y015266D01*
X005123Y015364D02*
X005043Y015364D01*
X005043Y015463D02*
X005123Y015463D01*
X005123Y015561D02*
X005043Y015561D01*
X005043Y015660D02*
X005123Y015660D01*
X005154Y015758D02*
X005013Y015758D01*
X004971Y015857D02*
X005196Y015857D01*
X005294Y015955D02*
X004872Y015955D01*
X004294Y015955D02*
X003872Y015955D01*
X003971Y015857D02*
X004196Y015857D01*
X004154Y015758D02*
X004013Y015758D01*
X004043Y015660D02*
X004123Y015660D01*
X004123Y015561D02*
X004043Y015561D01*
X004043Y015463D02*
X004123Y015463D01*
X004123Y015364D02*
X004043Y015364D01*
X004043Y015266D02*
X004123Y015266D01*
X004123Y015167D02*
X004043Y015167D01*
X004043Y015069D02*
X004123Y015069D01*
X004123Y014970D02*
X004043Y014970D01*
X004043Y014872D02*
X004123Y014872D01*
X004152Y014773D02*
X004015Y014773D01*
X003974Y014675D02*
X004193Y014675D01*
X004249Y014576D02*
X003876Y014576D01*
X004808Y013591D02*
X004956Y013591D01*
X004906Y013690D02*
X005055Y013690D01*
X005005Y013788D02*
X005153Y013788D01*
X005103Y013887D02*
X005252Y013887D01*
X005202Y013985D02*
X005350Y013985D01*
X005300Y014084D02*
X005449Y014084D01*
X005399Y014182D02*
X005547Y014182D01*
X005497Y014281D02*
X005646Y014281D01*
X005596Y014379D02*
X005744Y014379D01*
X005694Y014478D02*
X006482Y014478D01*
X006290Y014576D02*
X005876Y014576D01*
X005974Y014675D02*
X006193Y014675D01*
X006152Y014773D02*
X006015Y014773D01*
X006043Y014872D02*
X006123Y014872D01*
X006123Y014970D02*
X006043Y014970D01*
X006043Y015069D02*
X006123Y015069D01*
X006123Y015167D02*
X006043Y015167D01*
X006043Y015266D02*
X006123Y015266D01*
X006123Y015364D02*
X006043Y015364D01*
X006043Y015463D02*
X006123Y015463D01*
X006123Y015561D02*
X006043Y015561D01*
X006043Y015660D02*
X006123Y015660D01*
X006154Y015758D02*
X006013Y015758D01*
X005971Y015857D02*
X006196Y015857D01*
X006294Y015955D02*
X005872Y015955D01*
X006115Y013591D02*
X007301Y013591D01*
X007400Y013493D02*
X006017Y013493D01*
X005918Y013394D02*
X007498Y013394D01*
X007597Y013296D02*
X005820Y013296D01*
X005721Y013197D02*
X007695Y013197D01*
X007794Y013099D02*
X005623Y013099D01*
X004858Y013493D02*
X004709Y013493D01*
X004759Y013394D02*
X004611Y013394D01*
X004661Y013296D02*
X004523Y013296D01*
X004499Y013197D02*
X004562Y013197D01*
X004464Y013099D02*
X004428Y013099D01*
X003367Y012902D02*
X002872Y012902D01*
X002900Y013887D02*
X000368Y013887D01*
X000368Y013985D02*
X002945Y013985D01*
X001633Y015364D02*
X001533Y015364D01*
X001533Y015266D02*
X000368Y015266D01*
X000368Y015364D02*
X000387Y015364D01*
X000398Y015463D02*
X000368Y015463D01*
X000368Y015561D02*
X000420Y015561D01*
X000451Y015660D02*
X000368Y015660D01*
X000368Y015758D02*
X000490Y015758D01*
X000539Y015857D02*
X000368Y015857D01*
X000368Y015955D02*
X000601Y015955D01*
X000679Y016054D02*
X000368Y016054D01*
X000368Y016152D02*
X000775Y016152D01*
X000899Y016251D02*
X000368Y016251D01*
X000368Y016349D02*
X001072Y016349D01*
X001378Y016448D02*
X000368Y016448D01*
X001533Y016448D02*
X001633Y016448D01*
X001633Y016349D02*
X001533Y016349D01*
X001533Y016251D02*
X001633Y016251D01*
X001633Y016152D02*
X001533Y016152D01*
X001533Y016054D02*
X001633Y016054D01*
X001633Y015955D02*
X001533Y015955D01*
X001533Y015857D02*
X001633Y015857D01*
X001633Y015758D02*
X001533Y015758D01*
X001533Y015660D02*
X001633Y015660D01*
X001633Y015561D02*
X001533Y015561D01*
X001533Y015463D02*
X001633Y015463D01*
X000675Y014478D02*
X000368Y014478D01*
X000368Y014576D02*
X000598Y014576D01*
X000536Y014675D02*
X000368Y014675D01*
X000368Y014773D02*
X000488Y014773D01*
X000449Y014872D02*
X000368Y014872D01*
X000368Y014970D02*
X000419Y014970D01*
X000398Y015069D02*
X000368Y015069D01*
X000368Y015167D02*
X000387Y015167D01*
X000368Y014379D02*
X000771Y014379D01*
X000892Y014281D02*
X000368Y014281D01*
X000368Y014182D02*
X001063Y014182D01*
X001360Y014084D02*
X000368Y014084D01*
X000368Y012606D02*
X001275Y012606D01*
X001177Y012508D02*
X000368Y012508D01*
X000368Y012409D02*
X001123Y012409D01*
X001123Y012311D02*
X000368Y012311D01*
X000368Y012212D02*
X001123Y012212D01*
X001123Y012114D02*
X000368Y012114D01*
X000368Y012015D02*
X001181Y012015D01*
X001280Y011917D02*
X000368Y011917D01*
X000368Y011818D02*
X001378Y011818D01*
X001389Y011720D02*
X000368Y011720D01*
X000368Y011621D02*
X001290Y011621D01*
X001192Y011523D02*
X000368Y011523D01*
X000368Y011424D02*
X001123Y011424D01*
X001123Y011326D02*
X000368Y011326D01*
X000368Y011227D02*
X001123Y011227D01*
X001123Y011129D02*
X000368Y011129D01*
X000368Y011030D02*
X001166Y011030D01*
X001265Y010932D02*
X000368Y010932D01*
X000368Y009651D02*
X001320Y009651D01*
X001222Y009553D02*
X000368Y009553D01*
X000368Y009257D02*
X001123Y009257D01*
X001123Y009159D02*
X000368Y009159D01*
X000368Y009060D02*
X001136Y009060D01*
X001235Y008962D02*
X000368Y008962D01*
X001818Y009848D02*
X002348Y009848D01*
X002250Y009947D02*
X001917Y009947D01*
X002015Y010045D02*
X002151Y010045D01*
X002123Y010144D02*
X002043Y010144D01*
X002043Y010242D02*
X002123Y010242D01*
X002123Y010341D02*
X002043Y010341D01*
X002043Y010439D02*
X002123Y010439D01*
X002207Y010538D02*
X001960Y010538D01*
X001861Y010636D02*
X002305Y010636D01*
X003631Y009257D02*
X004153Y009257D01*
X004153Y009356D02*
X003730Y009356D01*
X003813Y009454D02*
X004153Y009454D01*
X004153Y009553D02*
X003813Y009553D01*
X003813Y009651D02*
X004153Y009651D01*
X004153Y009750D02*
X003813Y009750D01*
X003813Y009848D02*
X004161Y009848D01*
X004202Y009947D02*
X003813Y009947D01*
X003813Y010045D02*
X004238Y010045D01*
X004302Y010144D02*
X003813Y010144D01*
X003813Y010242D02*
X004229Y010242D01*
X004218Y010341D02*
X003813Y010341D01*
X003813Y010439D02*
X004218Y010439D01*
X004990Y009356D02*
X005090Y009356D01*
X005090Y009257D02*
X004990Y009257D01*
X004990Y009159D02*
X005090Y009159D01*
X005090Y009060D02*
X004990Y009060D01*
X004990Y008962D02*
X003463Y008962D01*
X003463Y009060D02*
X004270Y009060D01*
X004190Y009159D02*
X003533Y009159D01*
X003992Y008568D02*
X004046Y008568D01*
X004735Y008371D02*
X004777Y008371D01*
X005375Y009356D02*
X005514Y009356D01*
X006140Y009356D02*
X006283Y009356D01*
X006213Y009257D02*
X006803Y009257D01*
X006718Y009159D02*
X006213Y009159D01*
X006213Y009060D02*
X006620Y009060D01*
X006521Y008962D02*
X006213Y008962D01*
X006213Y008863D02*
X006423Y008863D01*
X006332Y008765D02*
X006213Y008765D01*
X006213Y008666D02*
X006293Y008666D01*
X006293Y008568D02*
X006213Y008568D01*
X006187Y008469D02*
X006293Y008469D01*
X006293Y008371D02*
X006187Y008371D01*
X006187Y008272D02*
X006293Y008272D01*
X006293Y008174D02*
X006187Y008174D01*
X006187Y008075D02*
X006293Y008075D01*
X006293Y007977D02*
X006187Y007977D01*
X006187Y007878D02*
X006293Y007878D01*
X006293Y007780D02*
X006187Y007780D01*
X006098Y007681D02*
X006293Y007681D01*
X006293Y007583D02*
X005999Y007583D01*
X005874Y007484D02*
X006293Y007484D01*
X006293Y007386D02*
X005923Y007386D01*
X005923Y007287D02*
X006293Y007287D01*
X006293Y007189D02*
X005923Y007189D01*
X005921Y007090D02*
X006293Y007090D01*
X006293Y006992D02*
X005867Y006992D01*
X006264Y006893D02*
X006293Y006893D01*
X006873Y008465D02*
X006873Y008494D01*
X007279Y008899D01*
X007323Y009006D01*
X007323Y009121D01*
X007279Y009228D01*
X007263Y009244D01*
X007263Y009335D01*
X007274Y009345D01*
X007285Y009325D01*
X007313Y009297D01*
X007347Y009277D01*
X007386Y009267D01*
X007519Y009267D01*
X007519Y009747D01*
X007547Y009747D01*
X007547Y009267D01*
X007681Y009267D01*
X007719Y009277D01*
X007753Y009297D01*
X007781Y009325D01*
X007793Y009345D01*
X007799Y009339D01*
X007161Y008702D01*
X007117Y008595D01*
X007117Y008512D01*
X006920Y008512D01*
X006873Y008465D01*
X006873Y008469D02*
X006877Y008469D01*
X006947Y008568D02*
X007117Y008568D01*
X007146Y008666D02*
X007046Y008666D01*
X007144Y008765D02*
X007224Y008765D01*
X007243Y008863D02*
X007323Y008863D01*
X007305Y008962D02*
X007421Y008962D01*
X007323Y009060D02*
X007520Y009060D01*
X007618Y009159D02*
X007308Y009159D01*
X007263Y009257D02*
X007717Y009257D01*
X007547Y009356D02*
X007519Y009356D01*
X007519Y009454D02*
X007547Y009454D01*
X007547Y009553D02*
X007519Y009553D01*
X007519Y009651D02*
X007547Y009651D01*
X007547Y009848D02*
X007519Y009848D01*
X007519Y009947D02*
X007547Y009947D01*
X007547Y010045D02*
X007519Y010045D01*
X007519Y010144D02*
X007547Y010144D01*
X007547Y010242D02*
X007519Y010242D01*
X007725Y010242D02*
X008829Y010242D01*
X008818Y010341D02*
X008046Y010341D01*
X008063Y010439D02*
X008818Y010439D01*
X008818Y010636D02*
X008063Y010636D01*
X008063Y010538D02*
X009233Y010538D01*
X009233Y010636D02*
X009333Y010636D01*
X009333Y010735D02*
X009233Y010735D01*
X009233Y010833D02*
X009333Y010833D01*
X009333Y010932D02*
X009233Y010932D01*
X009602Y011129D02*
X008063Y011129D01*
X008063Y011227D02*
X009602Y011227D01*
X009636Y011326D02*
X008063Y011326D01*
X007792Y011523D02*
X007746Y011523D01*
X008275Y011523D02*
X010920Y011523D01*
X010875Y011621D02*
X008311Y011621D01*
X008311Y011720D02*
X010875Y011720D01*
X010875Y011818D02*
X008311Y011818D01*
X007823Y012606D02*
X011071Y012606D01*
X011170Y012705D02*
X007810Y012705D01*
X007754Y012803D02*
X011253Y012803D01*
X011633Y013164D02*
X011633Y011966D01*
X011420Y011523D02*
X011346Y011523D01*
X011833Y011424D02*
X011933Y011424D01*
X011933Y011326D02*
X011833Y011326D01*
X011833Y011227D02*
X011933Y011227D01*
X011933Y011129D02*
X011833Y011129D01*
X011833Y011030D02*
X011933Y011030D01*
X011933Y010932D02*
X011833Y010932D01*
X011833Y010636D02*
X011933Y010636D01*
X011933Y010538D02*
X011833Y010538D01*
X011833Y010439D02*
X011933Y010439D01*
X011933Y010341D02*
X011833Y010341D01*
X012325Y010242D02*
X013123Y010242D01*
X013123Y010144D02*
X012891Y010144D01*
X012891Y010045D02*
X013151Y010045D01*
X013250Y009947D02*
X012891Y009947D01*
X012911Y009848D02*
X013348Y009848D01*
X012923Y009750D02*
X013903Y009750D01*
X013903Y009848D02*
X013818Y009848D01*
X013875Y009651D02*
X013903Y009651D01*
X014263Y009651D02*
X014292Y009651D01*
X014263Y009623D02*
X014263Y009933D01*
X014393Y009804D01*
X014689Y009804D01*
X014749Y009744D01*
X014633Y009744D01*
X014633Y009314D01*
X014533Y009314D01*
X014533Y009744D01*
X014385Y009744D01*
X014263Y009623D01*
X014263Y009750D02*
X014743Y009750D01*
X014633Y009651D02*
X014533Y009651D01*
X014533Y009553D02*
X014633Y009553D01*
X014633Y009454D02*
X014533Y009454D01*
X014533Y009356D02*
X014633Y009356D01*
X014348Y009848D02*
X014263Y009848D01*
X014583Y010164D02*
X015483Y009264D01*
X014983Y008764D02*
X014083Y008764D01*
X014083Y010764D01*
X014583Y011264D01*
X014290Y011621D02*
X013876Y011621D01*
X013778Y011720D02*
X014389Y011720D01*
X014378Y011818D02*
X013817Y011818D01*
X013915Y011917D02*
X014280Y011917D01*
X014181Y012015D02*
X014014Y012015D01*
X014063Y012114D02*
X014123Y012114D01*
X014123Y012212D02*
X014063Y012212D01*
X013633Y012212D02*
X013533Y012212D01*
X013533Y012114D02*
X013633Y012114D01*
X013633Y012015D02*
X013533Y012015D01*
X013533Y011917D02*
X013633Y011917D01*
X013633Y011818D02*
X013533Y011818D01*
X013975Y011523D02*
X014192Y011523D01*
X014123Y011424D02*
X014043Y011424D01*
X014043Y011326D02*
X014123Y011326D01*
X014123Y011227D02*
X014043Y011227D01*
X014043Y011129D02*
X014123Y011129D01*
X014095Y011030D02*
X014000Y011030D01*
X013997Y010932D02*
X013902Y010932D01*
X013903Y010833D02*
X013803Y010833D01*
X013903Y010735D02*
X012663Y010735D01*
X012663Y010636D02*
X013305Y010636D01*
X013207Y010538D02*
X012663Y010538D01*
X012663Y010439D02*
X013123Y010439D01*
X013123Y010341D02*
X012646Y010341D01*
X012619Y011523D02*
X012647Y011523D01*
X012647Y011621D02*
X012619Y011621D01*
X012619Y011720D02*
X012647Y011720D01*
X012647Y011818D02*
X012619Y011818D01*
X012619Y011917D02*
X012647Y011917D01*
X012647Y012015D02*
X012619Y012015D01*
X012619Y012114D02*
X012647Y012114D01*
X012647Y012212D02*
X012619Y012212D01*
X012619Y012311D02*
X012647Y012311D01*
X012647Y012409D02*
X012619Y012409D01*
X012133Y012364D02*
X012133Y011966D01*
X011920Y011523D02*
X011846Y011523D01*
X012346Y011523D02*
X012392Y011523D01*
X013533Y012508D02*
X013633Y012508D01*
X013633Y012606D02*
X013533Y012606D01*
X013533Y012705D02*
X013633Y012705D01*
X014793Y012705D02*
X015242Y012705D01*
X015119Y012606D02*
X014891Y012606D01*
X014990Y012508D02*
X015043Y012508D01*
X015045Y012015D02*
X014985Y012015D01*
X014887Y011917D02*
X015123Y011917D01*
X015252Y011818D02*
X014788Y011818D01*
X014778Y011720D02*
X015278Y011720D01*
X015134Y011621D02*
X014876Y011621D01*
X014975Y011523D02*
X015049Y011523D01*
X015689Y011720D02*
X015798Y011720D01*
X015798Y011818D02*
X015714Y011818D01*
X014583Y010264D02*
X014583Y010164D01*
X013903Y010636D02*
X013861Y010636D01*
X013862Y008863D02*
X013903Y008863D01*
X014583Y008264D02*
X014083Y007764D01*
X014083Y007064D01*
X014383Y006764D01*
X015033Y006764D01*
X015483Y006314D01*
X015483Y006264D01*
X014833Y005764D02*
X014233Y005764D01*
X014083Y005914D01*
X014833Y005764D02*
X015333Y005264D01*
X015483Y005264D01*
X015117Y004923D02*
X014893Y004923D01*
X014795Y004825D02*
X015237Y004825D01*
X015042Y005022D02*
X014992Y005022D01*
X014782Y004744D02*
X014633Y004744D01*
X014633Y004314D01*
X015063Y004314D01*
X015063Y004463D01*
X014782Y004744D01*
X014800Y004726D02*
X015798Y004726D01*
X015798Y004628D02*
X014898Y004628D01*
X014997Y004529D02*
X015798Y004529D01*
X015798Y004431D02*
X015063Y004431D01*
X015063Y004332D02*
X015798Y004332D01*
X015798Y004234D02*
X014633Y004234D01*
X014633Y004332D02*
X014533Y004332D01*
X014533Y004234D02*
X014043Y004234D01*
X014043Y004332D02*
X014103Y004332D01*
X014103Y004431D02*
X014043Y004431D01*
X013968Y004529D02*
X014170Y004529D01*
X014269Y004628D02*
X013870Y004628D01*
X014043Y004135D02*
X014103Y004135D01*
X014132Y004037D02*
X014007Y004037D01*
X013908Y003938D02*
X014230Y003938D01*
X014329Y003840D02*
X013810Y003840D01*
X014002Y003316D02*
X014123Y003374D01*
X014251Y003419D01*
X014382Y003449D01*
X014516Y003464D01*
X014533Y003464D01*
X014533Y002314D01*
X014533Y002214D01*
X013383Y002214D01*
X013383Y002196D01*
X013398Y002062D01*
X013428Y001931D01*
X013473Y001804D01*
X013531Y001682D01*
X013603Y001568D01*
X013687Y001463D01*
X013782Y001368D01*
X013888Y001284D01*
X014002Y001212D01*
X014123Y001153D01*
X014251Y001109D01*
X014382Y001079D01*
X014516Y001064D01*
X014533Y001064D01*
X014533Y002214D01*
X014633Y002214D01*
X014633Y001064D01*
X014651Y001064D01*
X014785Y001079D01*
X014916Y001109D01*
X015043Y001153D01*
X015165Y001212D01*
X015279Y001284D01*
X015384Y001368D01*
X015480Y001463D01*
X015564Y001568D01*
X015635Y001682D01*
X015694Y001804D01*
X015738Y001931D01*
X015768Y002062D01*
X015783Y002196D01*
X015783Y002214D01*
X014633Y002214D01*
X014633Y002314D01*
X014533Y002314D01*
X013383Y002314D01*
X013383Y002331D01*
X013398Y002465D01*
X013428Y002596D01*
X013473Y002724D01*
X013531Y002845D01*
X013603Y002959D01*
X013687Y003065D01*
X013782Y003160D01*
X013888Y003244D01*
X014002Y003316D01*
X014068Y003347D02*
X013333Y003347D01*
X013333Y003249D02*
X013895Y003249D01*
X013773Y003150D02*
X013333Y003150D01*
X013333Y003052D02*
X013677Y003052D01*
X013599Y002953D02*
X013333Y002953D01*
X013333Y002855D02*
X013537Y002855D01*
X013489Y002756D02*
X013333Y002756D01*
X013333Y002658D02*
X013450Y002658D01*
X013420Y002559D02*
X013333Y002559D01*
X013333Y002461D02*
X013398Y002461D01*
X013387Y002362D02*
X013333Y002362D01*
X013333Y002264D02*
X014533Y002264D01*
X014533Y002362D02*
X014633Y002362D01*
X014633Y002314D02*
X014633Y003464D01*
X014651Y003464D01*
X014785Y003449D01*
X014916Y003419D01*
X015043Y003374D01*
X015165Y003316D01*
X015279Y003244D01*
X015384Y003160D01*
X015480Y003065D01*
X015564Y002959D01*
X015635Y002845D01*
X015694Y002724D01*
X015738Y002596D01*
X015768Y002465D01*
X015783Y002331D01*
X015783Y002314D01*
X014633Y002314D01*
X014633Y002264D02*
X015798Y002264D01*
X015798Y002362D02*
X015780Y002362D01*
X015769Y002461D02*
X015798Y002461D01*
X015798Y002559D02*
X015747Y002559D01*
X015717Y002658D02*
X015798Y002658D01*
X015798Y002756D02*
X015678Y002756D01*
X015629Y002855D02*
X015798Y002855D01*
X015798Y002953D02*
X015567Y002953D01*
X015490Y003052D02*
X015798Y003052D01*
X015798Y003150D02*
X015394Y003150D01*
X015271Y003249D02*
X015798Y003249D01*
X015798Y003347D02*
X015099Y003347D01*
X014797Y003446D02*
X015798Y003446D01*
X015798Y003544D02*
X013333Y003544D01*
X013333Y003446D02*
X014369Y003446D01*
X014533Y003446D02*
X014633Y003446D01*
X014633Y003347D02*
X014533Y003347D01*
X014533Y003249D02*
X014633Y003249D01*
X014633Y003150D02*
X014533Y003150D01*
X014533Y003052D02*
X014633Y003052D01*
X014633Y002953D02*
X014533Y002953D01*
X014533Y002855D02*
X014633Y002855D01*
X014633Y002756D02*
X014533Y002756D01*
X014533Y002658D02*
X014633Y002658D01*
X014633Y002559D02*
X014533Y002559D01*
X014533Y002461D02*
X014633Y002461D01*
X014633Y002165D02*
X014533Y002165D01*
X014533Y002067D02*
X014633Y002067D01*
X014633Y001968D02*
X014533Y001968D01*
X014533Y001870D02*
X014633Y001870D01*
X014633Y001771D02*
X014533Y001771D01*
X014533Y001673D02*
X014633Y001673D01*
X014633Y001574D02*
X014533Y001574D01*
X014533Y001476D02*
X014633Y001476D01*
X014633Y001377D02*
X014533Y001377D01*
X014533Y001279D02*
X014633Y001279D01*
X014633Y001180D02*
X014533Y001180D01*
X014533Y001082D02*
X014633Y001082D01*
X014797Y001082D02*
X015798Y001082D01*
X015798Y001180D02*
X015099Y001180D01*
X015271Y001279D02*
X015798Y001279D01*
X015798Y001377D02*
X015394Y001377D01*
X015490Y001476D02*
X015798Y001476D01*
X015798Y001574D02*
X015567Y001574D01*
X015629Y001673D02*
X015798Y001673D01*
X015798Y001771D02*
X015678Y001771D01*
X015717Y001870D02*
X015798Y001870D01*
X015798Y001968D02*
X015747Y001968D01*
X015769Y002067D02*
X015798Y002067D01*
X015798Y002165D02*
X015780Y002165D01*
X014369Y001082D02*
X012976Y001082D01*
X013157Y001180D02*
X014068Y001180D01*
X013895Y001279D02*
X013255Y001279D01*
X013297Y001377D02*
X013773Y001377D01*
X013677Y001476D02*
X013333Y001476D01*
X013333Y001574D02*
X013599Y001574D01*
X013537Y001673D02*
X013329Y001673D01*
X013289Y001771D02*
X013489Y001771D01*
X013450Y001870D02*
X013234Y001870D01*
X013291Y001968D02*
X013420Y001968D01*
X013398Y002067D02*
X013333Y002067D01*
X013333Y002165D02*
X013387Y002165D01*
X013303Y003643D02*
X015798Y003643D01*
X015798Y003741D02*
X013216Y003741D01*
X013118Y003840D02*
X013357Y003840D01*
X013372Y004825D02*
X012713Y004825D01*
X012703Y004923D02*
X013273Y004923D01*
X013175Y005022D02*
X012689Y005022D01*
X012648Y005120D02*
X013123Y005120D01*
X013123Y005219D02*
X012552Y005219D01*
X012597Y005317D02*
X013123Y005317D01*
X013123Y005416D02*
X012695Y005416D01*
X012794Y005514D02*
X013183Y005514D01*
X013282Y005613D02*
X012855Y005613D01*
X012873Y005711D02*
X013380Y005711D01*
X013387Y005810D02*
X012873Y005810D01*
X012873Y005908D02*
X013288Y005908D01*
X013190Y006007D02*
X012873Y006007D01*
X012873Y006105D02*
X013123Y006105D01*
X013123Y006204D02*
X012873Y006204D01*
X012873Y006302D02*
X013123Y006302D01*
X013123Y006401D02*
X012873Y006401D01*
X012873Y006499D02*
X013168Y006499D01*
X013267Y006598D02*
X012873Y006598D01*
X012873Y006696D02*
X013365Y006696D01*
X012293Y006516D02*
X012293Y005834D01*
X012163Y005704D01*
X011010Y005704D01*
X011374Y005958D01*
X011398Y005968D01*
X011420Y005991D01*
X011447Y006009D01*
X011461Y006031D01*
X011479Y006049D01*
X011492Y006079D01*
X011509Y006107D01*
X011513Y006132D01*
X011523Y006156D01*
X011523Y006188D01*
X011529Y006220D01*
X011523Y006245D01*
X011523Y006516D01*
X012293Y006516D01*
X012293Y006499D02*
X011523Y006499D01*
X011523Y006401D02*
X012293Y006401D01*
X012293Y006302D02*
X011523Y006302D01*
X011526Y006204D02*
X012293Y006204D01*
X012293Y006105D02*
X011508Y006105D01*
X011443Y006007D02*
X012293Y006007D01*
X012293Y005908D02*
X011303Y005908D01*
X011162Y005810D02*
X012269Y005810D01*
X012171Y005711D02*
X011021Y005711D01*
X010627Y005120D02*
X010159Y005120D01*
X010159Y005022D02*
X010627Y005022D01*
X010627Y004923D02*
X009507Y004923D01*
X009507Y004865D02*
X010159Y004865D01*
X010159Y004697D01*
X010149Y004659D01*
X010129Y004625D01*
X010101Y004597D01*
X010067Y004577D01*
X010029Y004567D01*
X009507Y004567D01*
X009507Y004865D01*
X009507Y004825D02*
X009410Y004825D01*
X009410Y004865D02*
X009410Y004567D01*
X008887Y004567D01*
X008849Y004577D01*
X008815Y004597D01*
X008787Y004625D01*
X008767Y004659D01*
X008757Y004697D01*
X008757Y004865D01*
X009410Y004865D01*
X009410Y004923D02*
X008673Y004923D01*
X008673Y004825D02*
X008757Y004825D01*
X008757Y004726D02*
X008673Y004726D01*
X008673Y004628D02*
X008785Y004628D01*
X008673Y004529D02*
X011919Y004529D01*
X011919Y004431D02*
X008673Y004431D01*
X008673Y004332D02*
X011919Y004332D01*
X011919Y004234D02*
X008673Y004234D01*
X008673Y004135D02*
X011919Y004135D01*
X011919Y004037D02*
X008673Y004037D01*
X008719Y003938D02*
X011919Y003938D01*
X011919Y003840D02*
X008817Y003840D01*
X008916Y003741D02*
X011990Y003741D01*
X010663Y004628D02*
X010131Y004628D01*
X010159Y004726D02*
X010627Y004726D01*
X010627Y004825D02*
X010159Y004825D01*
X009507Y004726D02*
X009410Y004726D01*
X009410Y004628D02*
X009507Y004628D01*
X008757Y005022D02*
X008673Y005022D01*
X008673Y005120D02*
X008757Y005120D01*
X007493Y003938D02*
X006716Y003938D01*
X006723Y003840D02*
X007493Y003840D01*
X007783Y003614D02*
X006983Y003614D01*
X006983Y003398D01*
X006856Y003741D02*
X006696Y003741D01*
X006933Y001574D02*
X007033Y001574D01*
X007033Y001476D02*
X006933Y001476D01*
X006433Y001476D02*
X006333Y001476D01*
X006333Y001574D02*
X006433Y001574D01*
X005833Y001574D02*
X005733Y001574D01*
X005733Y001476D02*
X005833Y001476D01*
X005233Y001476D02*
X005133Y001476D01*
X005133Y001574D02*
X005233Y001574D01*
X001369Y001082D02*
X000368Y001082D01*
X000368Y001180D02*
X001068Y001180D01*
X000895Y001279D02*
X000368Y001279D01*
X000368Y001377D02*
X000773Y001377D01*
X000677Y001476D02*
X000368Y001476D01*
X000368Y001574D02*
X000599Y001574D01*
X000537Y001673D02*
X000368Y001673D01*
X000368Y001771D02*
X000489Y001771D01*
X000450Y001870D02*
X000368Y001870D01*
X000368Y001968D02*
X000420Y001968D01*
X000398Y002067D02*
X000368Y002067D01*
X000368Y002165D02*
X000387Y002165D01*
X003058Y007484D02*
X003372Y007484D01*
X003372Y007583D02*
X003157Y007583D01*
X003255Y007681D02*
X003372Y007681D01*
X003372Y007780D02*
X003354Y007780D01*
X007847Y008568D02*
X008005Y008568D01*
X007952Y008469D02*
X007936Y008469D01*
X007946Y008666D02*
X009434Y008666D01*
X009437Y008568D02*
X009289Y008568D01*
X009335Y008469D02*
X009354Y008469D01*
X009327Y008312D02*
X009327Y008273D01*
X009901Y008273D01*
X009901Y008255D01*
X009327Y008255D01*
X009327Y008215D01*
X009016Y008215D01*
X009016Y008312D01*
X009327Y008312D01*
X009016Y008272D02*
X009901Y008272D01*
X009434Y008765D02*
X008044Y008765D01*
X008143Y008863D02*
X009434Y008863D01*
X009317Y008962D02*
X009790Y008962D01*
X009050Y008962D02*
X008234Y008962D01*
X008273Y009060D02*
X008920Y009060D01*
X008870Y009159D02*
X008273Y009159D01*
X008263Y009257D02*
X008853Y009257D01*
X008853Y009356D02*
X008284Y009356D01*
X008291Y009454D02*
X008844Y009454D01*
X008838Y009553D02*
X008291Y009553D01*
X008291Y009651D02*
X008838Y009651D01*
X008838Y009750D02*
X008291Y009750D01*
X008291Y009848D02*
X008838Y009848D01*
X008838Y009947D02*
X008291Y009947D01*
X008291Y010045D02*
X008838Y010045D01*
X008902Y010144D02*
X008291Y010144D01*
X008063Y010735D02*
X008818Y010735D01*
X010233Y010735D02*
X010333Y010735D01*
X010333Y010833D02*
X010233Y010833D01*
X010233Y010636D02*
X010333Y010636D01*
X010333Y010538D02*
X010233Y010538D01*
X010233Y011129D02*
X010333Y011129D01*
X010333Y011227D02*
X010233Y011227D01*
X010233Y011326D02*
X010333Y011326D01*
X009399Y013788D02*
X008768Y013788D01*
X008845Y013887D02*
X009322Y013887D01*
X009293Y013985D02*
X008873Y013985D01*
X008868Y014084D02*
X009298Y014084D01*
X009342Y014182D02*
X008825Y014182D01*
X008793Y014281D02*
X009373Y014281D01*
X009373Y014379D02*
X008793Y014379D01*
X008920Y008568D02*
X009016Y008568D01*
X009016Y008469D02*
X008920Y008469D01*
X008920Y008371D02*
X009016Y008371D01*
X008646Y008568D02*
X008592Y008568D01*
X008299Y008264D02*
X008299Y007114D01*
X008299Y006698D01*
X008333Y006664D01*
X008598Y006544D02*
X008623Y006606D01*
X008623Y006721D01*
X008588Y006806D01*
X008626Y006843D01*
X008626Y006861D01*
X008631Y006839D01*
X008651Y006805D01*
X008679Y006777D01*
X008713Y006757D01*
X008751Y006747D01*
X008920Y006747D01*
X008920Y007065D01*
X009016Y007065D01*
X009016Y006747D01*
X009185Y006747D01*
X009223Y006757D01*
X009257Y006777D01*
X009285Y006805D01*
X009305Y006839D01*
X009315Y006877D01*
X009315Y007065D01*
X009016Y007065D01*
X009016Y007162D01*
X009280Y007162D01*
X009347Y007096D01*
X009347Y007092D01*
X009423Y007016D01*
X010397Y007016D01*
X010473Y007092D01*
X010473Y007436D01*
X010397Y007512D01*
X009513Y007512D01*
X009513Y007516D01*
X010397Y007516D01*
X010435Y007554D01*
X010620Y007554D01*
X010743Y007677D01*
X010837Y007770D01*
X010837Y008469D01*
X010937Y008469D01*
X010943Y008475D01*
X010943Y006842D01*
X010912Y006917D01*
X010836Y006993D01*
X010737Y007034D01*
X010630Y007034D01*
X010581Y007014D01*
X009860Y007014D01*
X009855Y007012D01*
X009423Y007012D01*
X009347Y006936D01*
X009347Y006852D01*
X009038Y006544D01*
X008598Y006544D01*
X008620Y006598D02*
X009092Y006598D01*
X009191Y006696D02*
X008623Y006696D01*
X008593Y006795D02*
X008661Y006795D01*
X008920Y006795D02*
X009016Y006795D01*
X009016Y006893D02*
X008920Y006893D01*
X008920Y006992D02*
X009016Y006992D01*
X009016Y007090D02*
X009348Y007090D01*
X009315Y006992D02*
X009403Y006992D01*
X009347Y006893D02*
X009315Y006893D01*
X009289Y006795D02*
X009275Y006795D01*
X009433Y007264D02*
X009333Y007364D01*
X009333Y007664D01*
X009283Y007714D01*
X008968Y007714D01*
X009433Y007264D02*
X009910Y007264D01*
X010424Y007484D02*
X010943Y007484D01*
X010943Y007386D02*
X010473Y007386D01*
X010473Y007287D02*
X010943Y007287D01*
X010943Y007189D02*
X010473Y007189D01*
X010471Y007090D02*
X010943Y007090D01*
X010943Y006992D02*
X010837Y006992D01*
X010922Y006893D02*
X010943Y006893D01*
X010943Y007583D02*
X010649Y007583D01*
X010748Y007681D02*
X010943Y007681D01*
X010943Y007780D02*
X010837Y007780D01*
X010837Y007878D02*
X010943Y007878D01*
X010943Y007977D02*
X010837Y007977D01*
X010837Y008075D02*
X010943Y008075D01*
X010943Y008174D02*
X010837Y008174D01*
X010837Y008272D02*
X010943Y008272D01*
X010943Y008371D02*
X010837Y008371D01*
X010937Y008469D02*
X010943Y008469D01*
X008299Y008264D02*
X008299Y007714D01*
X014533Y004726D02*
X014633Y004726D01*
X014633Y004628D02*
X014533Y004628D01*
X014533Y004529D02*
X014633Y004529D01*
X014633Y004431D02*
X014533Y004431D01*
X014533Y004135D02*
X014633Y004135D01*
X014633Y004037D02*
X014533Y004037D01*
X014533Y003938D02*
X014633Y003938D01*
X014633Y003840D02*
X014533Y003840D01*
X014838Y003840D02*
X015798Y003840D01*
X015798Y003938D02*
X014937Y003938D01*
X015035Y004037D02*
X015798Y004037D01*
X015798Y004135D02*
X015063Y004135D01*
X015730Y004825D02*
X015798Y004825D01*
X015483Y008264D02*
X014983Y008764D01*
X014806Y014084D02*
X015798Y014084D01*
X015798Y014182D02*
X015103Y014182D01*
X015274Y014281D02*
X015798Y014281D01*
X015798Y014379D02*
X015396Y014379D01*
X015491Y014478D02*
X015798Y014478D01*
X015798Y014576D02*
X015569Y014576D01*
X015630Y014675D02*
X015798Y014675D01*
X015798Y014773D02*
X015679Y014773D01*
X015718Y014872D02*
X015798Y014872D01*
X015798Y014970D02*
X015747Y014970D01*
X015769Y015069D02*
X015798Y015069D01*
X015798Y015167D02*
X015780Y015167D01*
X015798Y015266D02*
X014633Y015266D01*
X015392Y016152D02*
X015798Y016152D01*
X015798Y016054D02*
X015488Y016054D01*
X015566Y015955D02*
X015798Y015955D01*
X015798Y015857D02*
X015628Y015857D01*
X015677Y015758D02*
X015798Y015758D01*
X015798Y015660D02*
X015716Y015660D01*
X015746Y015561D02*
X015798Y015561D01*
X015798Y015463D02*
X015768Y015463D01*
X015780Y015364D02*
X015798Y015364D01*
X015798Y016251D02*
X015268Y016251D01*
X015095Y016349D02*
X015798Y016349D01*
X015798Y016448D02*
X014788Y016448D01*
D31*
X013433Y012414D02*
X012633Y012414D01*
X012633Y011966D01*
X012633Y010864D01*
X013033Y010864D01*
X013033Y009814D01*
X013583Y009264D01*
X012133Y009761D02*
X012133Y010864D01*
X013583Y012264D02*
X013433Y012414D01*
X010283Y010915D02*
X010232Y010864D01*
X009840Y008914D02*
X009840Y008334D01*
X009910Y008264D01*
X008968Y008264D01*
X008033Y009164D02*
X007983Y009114D01*
X008033Y009164D02*
X008033Y009761D01*
X007033Y009761D02*
X007033Y009064D01*
X005360Y008264D02*
X005083Y008264D01*
X005083Y008870D01*
X005040Y008914D01*
X005083Y008264D02*
X004383Y008264D01*
X005360Y006764D02*
X005360Y006340D01*
X005283Y006264D01*
X007683Y006314D02*
X009133Y006314D01*
X009583Y006764D01*
X009910Y006764D01*
X011957Y006764D02*
X012583Y006764D01*
X012583Y007264D02*
X011957Y007264D01*
X012376Y002614D02*
X012383Y002607D01*
X009783Y002264D02*
X009783Y001264D01*
X006997Y001264D01*
X006983Y001250D01*
X006383Y001250D01*
X005783Y001250D01*
X005183Y001250D01*
X005183Y002077D02*
X005183Y002729D01*
X005783Y002729D02*
X005783Y002077D01*
X006383Y002077D02*
X006383Y002729D01*
X006983Y002729D02*
X006983Y002077D01*
D32*
X007183Y004314D03*
X005933Y005414D03*
X006083Y007164D03*
X004383Y008764D03*
X003933Y008764D03*
X003233Y007264D03*
X001183Y005764D03*
X000833Y003614D03*
X000533Y003214D03*
X002133Y003614D03*
X002633Y003414D03*
X008683Y009314D03*
X008683Y009914D03*
X008683Y010414D03*
X008683Y010864D03*
X008133Y010864D03*
X007633Y010864D03*
X007283Y010864D03*
X006883Y010864D03*
X006433Y010864D03*
X006083Y011514D03*
X006083Y011864D03*
X006083Y012214D03*
X005683Y012214D03*
X005683Y011864D03*
X005683Y011514D03*
X005283Y011514D03*
X005283Y011864D03*
X008533Y011864D03*
X008533Y012214D03*
X008533Y012564D03*
X008533Y011514D03*
X009683Y011514D03*
X009683Y011864D03*
X009683Y012214D03*
X009683Y012564D03*
X010183Y012564D03*
X010183Y012214D03*
X010183Y011864D03*
X010183Y011514D03*
X010683Y011514D03*
X010683Y011864D03*
X010683Y012214D03*
X010683Y012564D03*
X012183Y012864D03*
X012533Y012864D03*
X012533Y013414D03*
X011083Y010914D03*
X011483Y010864D03*
X011883Y010864D03*
X012283Y010864D03*
X012183Y009064D03*
X012183Y008664D03*
X011683Y008664D03*
X010683Y006764D03*
X011983Y006114D03*
X010433Y004264D03*
X008983Y006714D03*
X013933Y006764D03*
D33*
X012383Y004221D02*
X013083Y003521D01*
X013083Y002114D01*
X012833Y001864D01*
X012833Y001564D01*
X010683Y006764D02*
X009910Y006764D01*
X008983Y006714D02*
X008968Y006714D01*
X008968Y007114D01*
X008983Y008264D02*
X008968Y008264D01*
X008983Y008264D02*
X008983Y008514D01*
X008683Y008814D01*
X008683Y010864D01*
X009283Y009770D02*
X009277Y009764D01*
X010241Y009770D02*
X010283Y009813D01*
X011082Y009813D02*
X011133Y009761D01*
X006533Y009761D02*
X006482Y009813D01*
X005683Y009813D02*
X005641Y009770D01*
X004368Y007114D02*
X004368Y006379D01*
X004483Y006264D01*
D34*
X004383Y008264D02*
X004368Y008264D01*
X004383Y008264D02*
X004383Y008764D01*
X004383Y008814D01*
X003983Y008814D01*
X003983Y010514D01*
X004683Y010514D01*
X004683Y010557D01*
X004683Y010915D01*
X005683Y010915D01*
X005683Y010864D01*
X007283Y010864D01*
X007533Y010864D01*
X007633Y010864D01*
X008683Y010864D01*
X009283Y010864D01*
X009283Y010557D01*
X009283Y010864D02*
X010232Y010864D01*
X010283Y010915D02*
X011832Y010915D01*
X011883Y010864D01*
X012133Y010864D01*
X012633Y010864D01*
X011082Y009813D02*
X010283Y009813D01*
X010241Y009770D02*
X009283Y009770D01*
X009277Y009764D02*
X009233Y009764D01*
X009183Y009714D01*
X009183Y009264D01*
X006482Y009813D02*
X005683Y009813D01*
X005641Y009770D02*
X004683Y009770D01*
X004677Y009764D01*
X004483Y009764D01*
X004483Y009314D01*
X009458Y004914D02*
X009783Y004914D01*
X009783Y002264D01*
X010783Y002264D02*
X010783Y002364D01*
X011033Y002614D01*
X012376Y002614D01*
X012383Y004221D02*
X012383Y004764D01*
X012233Y004914D01*
X011309Y004914D01*
X012333Y004914D01*
D35*
X012333Y004914D03*
D36*
X012283Y005414D02*
X012583Y005714D01*
X012583Y006764D01*
X012583Y007264D01*
X012583Y007764D02*
X012583Y008264D01*
X012583Y008314D01*
X012633Y008364D01*
X012633Y009761D01*
X011633Y009761D02*
X011633Y009364D01*
X011233Y008964D01*
X011233Y006214D01*
X010733Y005864D01*
X007783Y005864D01*
X007783Y003614D01*
X007783Y002264D01*
X008783Y002264D02*
X008783Y003464D01*
X008383Y003864D01*
X008383Y003914D01*
X008383Y005414D01*
X012283Y005414D01*
X007983Y009114D02*
X007407Y008537D01*
X007407Y008264D01*
X007033Y009064D02*
X006583Y008614D01*
X006583Y005064D01*
X006283Y004764D01*
X005883Y004764D01*
X005483Y004264D02*
X006433Y004264D01*
X007033Y004864D01*
X007033Y006414D01*
X007233Y006614D01*
X007407Y006764D01*
X005483Y004264D02*
X005033Y003814D01*
X004383Y003164D01*
X004383Y002264D01*
D37*
X005883Y004764D03*
M02*
