%
M48
M72
T01C0.0118
T02C0.0161
T03C0.0240
T04C0.0319
T05C0.0402
T06C0.0472
T07C0.1102
%
T01
X5283Y11864
X5283Y11514
X5683Y11514
X5683Y11864
X5683Y12214
X6083Y12214
X6083Y11864
X6083Y11514
X6433Y10864
X6883Y10864
X7283Y10864
X7633Y10864
X8133Y10864
X8683Y10864
X8683Y10414
X8683Y9914
X8683Y9314
X8533Y11514
X8533Y11864
X8533Y12214
X8533Y12564
X9683Y12564
X9683Y12214
X9683Y11864
X9683Y11514
X10183Y11514
X10183Y11864
X10183Y12214
X10183Y12564
X10683Y12564
X10683Y12214
X10683Y11864
X10683Y11514
X11083Y10914
X11483Y10864
X11883Y10864
X12283Y10864
X12183Y9064
X12183Y8664
X11683Y8664
X10683Y6764
X11983Y6114
X10433Y4264
X8983Y6714
X7183Y4314
X5933Y5414
X6083Y7164
X4383Y8764
X3933Y8764
X3233Y7264
X1183Y5764
X833Y3614
X533Y3214
X2133Y3614
X2633Y3414
X12183Y12864
X12533Y12864
X12533Y13414
X13933Y6764
T02
X3183Y13814
X3533Y13564
X4233Y13314
X6533Y12614
X7033Y12614
X7533Y12614
X8583Y14014
X9583Y14014
X10583Y14014
X9183Y9264
X8333Y6664
X7683Y6314
X6083Y6664
X5360Y6340
X5833Y3864
X6433Y3864
X8383Y3914
X4483Y9314
T03
X5883Y4764
T04
X12333Y4914
T05
X1583Y13264
X1583Y12264
X1583Y11264
X1583Y10264
X1583Y9264
X1583Y8264
X1583Y7264
X1583Y6264
X1583Y5264
X1583Y4264
X2583Y4264
X3483Y4264
X3483Y5264
X2583Y5264
X2583Y6264
X3483Y6264
X4483Y6264
X4483Y5264
X4483Y4264
X2583Y7264
X2583Y8264
X2583Y9264
X2583Y10264
X2583Y11264
X2583Y12264
X2583Y13264
X3583Y15264
X4583Y15264
X5583Y15264
X6583Y15264
X7583Y15264
X8583Y15264
X9583Y15264
X10583Y15264
X11583Y15264
X12583Y15264
X13583Y13264
X13583Y12264
X13583Y11264
X13583Y10264
X13583Y9264
X13583Y8264
X13583Y7264
X13583Y6264
X13583Y5264
X13583Y4264
X14583Y4264
X14583Y5264
X15483Y5264
X15483Y6264
X14583Y6264
X14583Y7264
X15483Y7264
X15483Y8264
X14583Y8264
X14583Y9264
X15483Y9264
X15483Y10264
X14583Y10264
X14583Y11264
X15483Y11264
X15483Y12264
X14583Y12264
X14583Y13264
X15483Y13264
X12833Y1564
X11833Y1564
T06
X3383Y2264
X4383Y2264
X7783Y2264
X8783Y2264
X9783Y2264
X10783Y2264
T07
X1583Y15264
X1583Y2264
X14583Y2264
X14583Y15264
M30
