G75*
%MOIN*%
%OFA0B0*%
%FSLAX24Y24*%
%IPPOS*%
%LPD*%
%AMOC8*
5,1,8,0,0,1.08239X$1,22.5*
%
%ADD10C,0.0010*%
%ADD11C,0.0060*%
%ADD12R,0.0340X0.0160*%
%ADD13C,0.0040*%
%ADD14R,0.0128X0.0197*%
%ADD15R,0.0059X0.0098*%
%ADD16R,0.0157X0.0069*%
%ADD17R,0.0079X0.0079*%
%ADD18R,0.0118X0.0118*%
%ADD19R,0.0128X0.0030*%
%ADD20C,0.0020*%
%ADD21C,0.0090*%
%ADD22C,0.0180*%
%ADD23C,0.0080*%
%ADD24R,0.0200X0.0200*%
%ADD25C,0.0100*%
%ADD26R,0.0531X0.0098*%
%ADD27R,0.0827X0.0118*%
%ADD28C,0.0050*%
%ADD29R,0.0512X0.0197*%
%ADD30R,0.0433X0.0193*%
%ADD31R,0.1024X0.0295*%
%ADD32R,0.0197X0.0512*%
%ADD33R,0.0160X0.0340*%
%ADD34R,0.0197X0.0374*%
D10*
X000233Y000914D02*
X000233Y016614D01*
X015933Y016614D01*
X015933Y000914D01*
X000233Y000914D01*
D11*
X000433Y002264D02*
X000435Y002331D01*
X000441Y002399D01*
X000451Y002466D01*
X000465Y002532D01*
X000482Y002597D01*
X000504Y002661D01*
X000529Y002724D01*
X000558Y002785D01*
X000590Y002844D01*
X000626Y002901D01*
X000665Y002956D01*
X000707Y003009D01*
X000752Y003059D01*
X000800Y003106D01*
X000851Y003151D01*
X000904Y003192D01*
X000960Y003231D01*
X001018Y003266D01*
X001078Y003297D01*
X001139Y003325D01*
X001202Y003349D01*
X001266Y003370D01*
X001332Y003386D01*
X001398Y003399D01*
X001465Y003408D01*
X001532Y003413D01*
X001600Y003414D01*
X001667Y003411D01*
X001734Y003404D01*
X001801Y003393D01*
X001867Y003378D01*
X001932Y003360D01*
X001996Y003337D01*
X002058Y003311D01*
X002119Y003282D01*
X002177Y003248D01*
X002234Y003212D01*
X002289Y003172D01*
X002341Y003129D01*
X002390Y003083D01*
X002437Y003034D01*
X002481Y002983D01*
X002521Y002929D01*
X002559Y002873D01*
X002593Y002814D01*
X002623Y002754D01*
X002650Y002692D01*
X002674Y002629D01*
X002693Y002564D01*
X002709Y002499D01*
X002721Y002432D01*
X002729Y002365D01*
X002733Y002298D01*
X002733Y002230D01*
X002729Y002163D01*
X002721Y002096D01*
X002709Y002029D01*
X002693Y001964D01*
X002674Y001899D01*
X002650Y001836D01*
X002623Y001774D01*
X002593Y001714D01*
X002559Y001655D01*
X002521Y001599D01*
X002481Y001545D01*
X002437Y001494D01*
X002390Y001445D01*
X002341Y001399D01*
X002289Y001356D01*
X002234Y001316D01*
X002177Y001280D01*
X002119Y001246D01*
X002058Y001217D01*
X001996Y001191D01*
X001932Y001168D01*
X001867Y001150D01*
X001801Y001135D01*
X001734Y001124D01*
X001667Y001117D01*
X001600Y001114D01*
X001532Y001115D01*
X001465Y001120D01*
X001398Y001129D01*
X001332Y001142D01*
X001266Y001158D01*
X001202Y001179D01*
X001139Y001203D01*
X001078Y001231D01*
X001018Y001262D01*
X000960Y001297D01*
X000904Y001336D01*
X000851Y001377D01*
X000800Y001422D01*
X000752Y001469D01*
X000707Y001519D01*
X000665Y001572D01*
X000626Y001627D01*
X000590Y001684D01*
X000558Y001743D01*
X000529Y001804D01*
X000504Y001867D01*
X000482Y001931D01*
X000465Y001996D01*
X000451Y002062D01*
X000441Y002129D01*
X000435Y002197D01*
X000433Y002264D01*
X001858Y003450D02*
X001915Y003394D01*
X002029Y003394D01*
X002085Y003450D01*
X002085Y003507D01*
X002029Y003564D01*
X001915Y003564D01*
X001858Y003621D01*
X001858Y003677D01*
X001915Y003734D01*
X002029Y003734D01*
X002085Y003677D01*
X002227Y003734D02*
X002227Y003507D01*
X002340Y003394D01*
X002454Y003507D01*
X002454Y003734D01*
X002595Y003677D02*
X002652Y003734D01*
X002765Y003734D01*
X002822Y003677D01*
X002822Y003621D01*
X002765Y003564D01*
X002822Y003507D01*
X002822Y003450D01*
X002765Y003394D01*
X002652Y003394D01*
X002595Y003450D01*
X002708Y003564D02*
X002765Y003564D01*
X003000Y003322D02*
X004766Y003322D01*
X005043Y003234D02*
X005043Y002894D01*
X005323Y002894D02*
X005323Y003234D01*
X005643Y003234D02*
X005643Y002894D01*
X005923Y002894D02*
X005923Y003234D01*
X006243Y003234D02*
X006243Y002894D01*
X006523Y002894D02*
X006523Y003234D01*
X006843Y003234D02*
X006843Y002894D01*
X007123Y002894D02*
X007123Y003234D01*
X007400Y003322D02*
X009166Y003322D01*
X009400Y003322D02*
X011166Y003322D01*
X011363Y003351D02*
X011420Y003407D01*
X011476Y003407D01*
X011533Y003351D01*
X011590Y003407D01*
X011647Y003407D01*
X011703Y003351D01*
X011703Y003237D01*
X011647Y003180D01*
X011647Y003039D02*
X011703Y002982D01*
X011703Y002869D01*
X011647Y002812D01*
X011533Y002869D02*
X011533Y002982D01*
X011590Y003039D01*
X011647Y003039D01*
X011533Y002869D02*
X011476Y002812D01*
X011420Y002812D01*
X011363Y002869D01*
X011363Y002982D01*
X011420Y003039D01*
X011420Y003180D02*
X011363Y003237D01*
X011363Y003351D01*
X011533Y003351D02*
X011533Y003294D01*
X011533Y002671D02*
X011420Y002671D01*
X011363Y002614D01*
X011363Y002444D01*
X011703Y002444D01*
X011590Y002444D02*
X011590Y002614D01*
X011533Y002671D01*
X011083Y002314D02*
X010483Y002164D01*
X010433Y002264D02*
X010435Y002301D01*
X010441Y002338D01*
X010451Y002374D01*
X010464Y002409D01*
X010481Y002442D01*
X010502Y002473D01*
X010526Y002501D01*
X010553Y002527D01*
X010582Y002550D01*
X010613Y002570D01*
X010647Y002586D01*
X010682Y002599D01*
X010718Y002608D01*
X010755Y002613D01*
X010792Y002614D01*
X010829Y002611D01*
X010866Y002604D01*
X010902Y002593D01*
X010936Y002579D01*
X010969Y002561D01*
X010999Y002539D01*
X011027Y002515D01*
X011052Y002487D01*
X011075Y002457D01*
X011094Y002425D01*
X011109Y002391D01*
X011121Y002356D01*
X011129Y002320D01*
X011133Y002283D01*
X011133Y002245D01*
X011129Y002208D01*
X011121Y002172D01*
X011109Y002137D01*
X011094Y002103D01*
X011075Y002071D01*
X011052Y002041D01*
X011027Y002013D01*
X010999Y001989D01*
X010969Y001967D01*
X010936Y001949D01*
X010902Y001935D01*
X010866Y001924D01*
X010829Y001917D01*
X010792Y001914D01*
X010755Y001915D01*
X010718Y001920D01*
X010682Y001929D01*
X010647Y001942D01*
X010613Y001958D01*
X010582Y001978D01*
X010553Y002001D01*
X010526Y002027D01*
X010502Y002055D01*
X010481Y002086D01*
X010464Y002119D01*
X010451Y002154D01*
X010441Y002190D01*
X010435Y002227D01*
X010433Y002264D01*
X009983Y002514D02*
X009533Y002064D01*
X009433Y002264D02*
X009435Y002301D01*
X009441Y002338D01*
X009451Y002374D01*
X009464Y002409D01*
X009481Y002442D01*
X009502Y002473D01*
X009526Y002501D01*
X009553Y002527D01*
X009582Y002550D01*
X009613Y002570D01*
X009647Y002586D01*
X009682Y002599D01*
X009718Y002608D01*
X009755Y002613D01*
X009792Y002614D01*
X009829Y002611D01*
X009866Y002604D01*
X009902Y002593D01*
X009936Y002579D01*
X009969Y002561D01*
X009999Y002539D01*
X010027Y002515D01*
X010052Y002487D01*
X010075Y002457D01*
X010094Y002425D01*
X010109Y002391D01*
X010121Y002356D01*
X010129Y002320D01*
X010133Y002283D01*
X010133Y002245D01*
X010129Y002208D01*
X010121Y002172D01*
X010109Y002137D01*
X010094Y002103D01*
X010075Y002071D01*
X010052Y002041D01*
X010027Y002013D01*
X009999Y001989D01*
X009969Y001967D01*
X009936Y001949D01*
X009902Y001935D01*
X009866Y001924D01*
X009829Y001917D01*
X009792Y001914D01*
X009755Y001915D01*
X009718Y001920D01*
X009682Y001929D01*
X009647Y001942D01*
X009613Y001958D01*
X009582Y001978D01*
X009553Y002001D01*
X009526Y002027D01*
X009502Y002055D01*
X009481Y002086D01*
X009464Y002119D01*
X009451Y002154D01*
X009441Y002190D01*
X009435Y002227D01*
X009433Y002264D01*
X009083Y002314D02*
X008483Y002164D01*
X008433Y002264D02*
X008435Y002301D01*
X008441Y002338D01*
X008451Y002374D01*
X008464Y002409D01*
X008481Y002442D01*
X008502Y002473D01*
X008526Y002501D01*
X008553Y002527D01*
X008582Y002550D01*
X008613Y002570D01*
X008647Y002586D01*
X008682Y002599D01*
X008718Y002608D01*
X008755Y002613D01*
X008792Y002614D01*
X008829Y002611D01*
X008866Y002604D01*
X008902Y002593D01*
X008936Y002579D01*
X008969Y002561D01*
X008999Y002539D01*
X009027Y002515D01*
X009052Y002487D01*
X009075Y002457D01*
X009094Y002425D01*
X009109Y002391D01*
X009121Y002356D01*
X009129Y002320D01*
X009133Y002283D01*
X009133Y002245D01*
X009129Y002208D01*
X009121Y002172D01*
X009109Y002137D01*
X009094Y002103D01*
X009075Y002071D01*
X009052Y002041D01*
X009027Y002013D01*
X008999Y001989D01*
X008969Y001967D01*
X008936Y001949D01*
X008902Y001935D01*
X008866Y001924D01*
X008829Y001917D01*
X008792Y001914D01*
X008755Y001915D01*
X008718Y001920D01*
X008682Y001929D01*
X008647Y001942D01*
X008613Y001958D01*
X008582Y001978D01*
X008553Y002001D01*
X008526Y002027D01*
X008502Y002055D01*
X008481Y002086D01*
X008464Y002119D01*
X008451Y002154D01*
X008441Y002190D01*
X008435Y002227D01*
X008433Y002264D01*
X007983Y002514D02*
X007533Y002064D01*
X007433Y002264D02*
X007435Y002301D01*
X007441Y002338D01*
X007451Y002374D01*
X007464Y002409D01*
X007481Y002442D01*
X007502Y002473D01*
X007526Y002501D01*
X007553Y002527D01*
X007582Y002550D01*
X007613Y002570D01*
X007647Y002586D01*
X007682Y002599D01*
X007718Y002608D01*
X007755Y002613D01*
X007792Y002614D01*
X007829Y002611D01*
X007866Y002604D01*
X007902Y002593D01*
X007936Y002579D01*
X007969Y002561D01*
X007999Y002539D01*
X008027Y002515D01*
X008052Y002487D01*
X008075Y002457D01*
X008094Y002425D01*
X008109Y002391D01*
X008121Y002356D01*
X008129Y002320D01*
X008133Y002283D01*
X008133Y002245D01*
X008129Y002208D01*
X008121Y002172D01*
X008109Y002137D01*
X008094Y002103D01*
X008075Y002071D01*
X008052Y002041D01*
X008027Y002013D01*
X007999Y001989D01*
X007969Y001967D01*
X007936Y001949D01*
X007902Y001935D01*
X007866Y001924D01*
X007829Y001917D01*
X007792Y001914D01*
X007755Y001915D01*
X007718Y001920D01*
X007682Y001929D01*
X007647Y001942D01*
X007613Y001958D01*
X007582Y001978D01*
X007553Y002001D01*
X007526Y002027D01*
X007502Y002055D01*
X007481Y002086D01*
X007464Y002119D01*
X007451Y002154D01*
X007441Y002190D01*
X007435Y002227D01*
X007433Y002264D01*
X007813Y003594D02*
X007813Y003934D01*
X007983Y003934D01*
X008040Y003877D01*
X008040Y003764D01*
X007983Y003707D01*
X007813Y003707D01*
X008182Y003650D02*
X008238Y003594D01*
X008352Y003594D01*
X008409Y003650D01*
X008409Y003707D01*
X008352Y003764D01*
X008238Y003764D01*
X008182Y003821D01*
X008182Y003877D01*
X008238Y003934D01*
X008352Y003934D01*
X008409Y003877D01*
X008550Y003821D02*
X008663Y003934D01*
X008663Y003594D01*
X008550Y003594D02*
X008777Y003594D01*
X008565Y005194D02*
X008452Y005194D01*
X008395Y005250D01*
X008395Y005364D01*
X008565Y005364D01*
X008622Y005307D01*
X008622Y005250D01*
X008565Y005194D01*
X008395Y005364D02*
X008508Y005477D01*
X008622Y005534D01*
X008565Y005644D02*
X008452Y005644D01*
X008395Y005700D01*
X008395Y005814D02*
X008508Y005871D01*
X008565Y005871D01*
X008622Y005814D01*
X008622Y005700D01*
X008565Y005644D01*
X008395Y005814D02*
X008395Y005984D01*
X008622Y005984D01*
X008565Y006094D02*
X008452Y006094D01*
X008395Y006150D01*
X008395Y006207D01*
X008452Y006264D01*
X008565Y006264D01*
X008622Y006207D01*
X008622Y006150D01*
X008565Y006094D01*
X008565Y006264D02*
X008622Y006321D01*
X008622Y006377D01*
X008565Y006434D01*
X008452Y006434D01*
X008395Y006377D01*
X008395Y006321D01*
X008452Y006264D01*
X008254Y006377D02*
X008197Y006434D01*
X008083Y006434D01*
X008027Y006377D01*
X008027Y006150D01*
X008083Y006094D01*
X008197Y006094D01*
X008254Y006150D01*
X008197Y005984D02*
X008254Y005927D01*
X008254Y005814D01*
X008197Y005757D01*
X008027Y005757D01*
X008140Y005757D02*
X008254Y005644D01*
X008197Y005534D02*
X008254Y005477D01*
X008254Y005364D01*
X008197Y005307D01*
X008027Y005307D01*
X008140Y005307D02*
X008254Y005194D01*
X008027Y005194D02*
X008027Y005534D01*
X008197Y005534D01*
X008027Y005644D02*
X008027Y005984D01*
X008197Y005984D01*
X008463Y006974D02*
X008803Y006974D01*
X008803Y007254D02*
X008463Y007254D01*
X008463Y007574D02*
X008803Y007574D01*
X008803Y007854D02*
X008463Y007854D01*
X008877Y008699D02*
X008991Y008699D01*
X009047Y008756D01*
X009189Y008756D02*
X009245Y008699D01*
X009359Y008699D01*
X009416Y008756D01*
X009416Y008813D01*
X009359Y008869D01*
X009189Y008869D01*
X009189Y008756D01*
X009189Y008869D02*
X009302Y008983D01*
X009416Y009040D01*
X009047Y008983D02*
X008991Y009040D01*
X008877Y009040D01*
X008820Y008983D01*
X008820Y008756D01*
X008877Y008699D01*
X006815Y009022D02*
X006588Y008795D01*
X006588Y008738D01*
X006446Y008795D02*
X006390Y008738D01*
X006276Y008738D01*
X006220Y008795D01*
X006220Y009022D01*
X006276Y009079D01*
X006390Y009079D01*
X006446Y009022D01*
X006588Y009079D02*
X006815Y009079D01*
X006815Y009022D01*
X004997Y011007D02*
X005053Y011064D01*
X005053Y011177D01*
X004997Y011234D01*
X004997Y011375D02*
X005053Y011432D01*
X005053Y011546D01*
X004997Y011602D01*
X004883Y011602D01*
X004826Y011546D01*
X004826Y011489D01*
X004883Y011375D01*
X004713Y011375D01*
X004713Y011602D01*
X004770Y011234D02*
X004713Y011177D01*
X004713Y011064D01*
X004770Y011007D01*
X004997Y011007D01*
X004198Y010389D02*
X004198Y010276D01*
X004141Y010219D01*
X004141Y010078D02*
X004198Y010021D01*
X004198Y009908D01*
X004141Y009851D01*
X003914Y009851D01*
X003858Y009908D01*
X003858Y010021D01*
X003914Y010078D01*
X003914Y010219D02*
X003858Y010276D01*
X003858Y010389D01*
X003914Y010446D01*
X003971Y010446D01*
X004028Y010389D01*
X004084Y010446D01*
X004141Y010446D01*
X004198Y010389D01*
X004028Y010389D02*
X004028Y010333D01*
X003652Y009834D02*
X003538Y009834D01*
X003482Y009777D01*
X003482Y009721D01*
X003538Y009664D01*
X003709Y009664D01*
X003709Y009777D02*
X003709Y009550D01*
X003652Y009494D01*
X003538Y009494D01*
X003482Y009550D01*
X003340Y009550D02*
X003283Y009494D01*
X003170Y009494D01*
X003113Y009550D01*
X003113Y009777D01*
X003170Y009834D01*
X003283Y009834D01*
X003340Y009777D01*
X003652Y009834D02*
X003709Y009777D01*
X003709Y009384D02*
X003482Y009384D01*
X003340Y009327D02*
X003340Y009214D01*
X003283Y009157D01*
X003113Y009157D01*
X003113Y009044D02*
X003113Y009384D01*
X003283Y009384D01*
X003340Y009327D01*
X003227Y009157D02*
X003340Y009044D01*
X003283Y008934D02*
X003340Y008877D01*
X003340Y008764D01*
X003283Y008707D01*
X003113Y008707D01*
X003113Y008594D02*
X003113Y008934D01*
X003283Y008934D01*
X003482Y008877D02*
X003482Y008821D01*
X003538Y008764D01*
X003652Y008764D01*
X003709Y008707D01*
X003709Y008650D01*
X003652Y008594D01*
X003538Y008594D01*
X003482Y008650D01*
X003482Y008707D01*
X003538Y008764D01*
X003652Y008764D02*
X003709Y008821D01*
X003709Y008877D01*
X003652Y008934D01*
X003538Y008934D01*
X003482Y008877D01*
X003482Y009044D02*
X003482Y009100D01*
X003709Y009327D01*
X003709Y009384D01*
X003227Y008707D02*
X003340Y008594D01*
X003863Y007854D02*
X004203Y007854D01*
X004203Y007574D02*
X003863Y007574D01*
X003863Y007254D02*
X004203Y007254D01*
X004203Y006974D02*
X003863Y006974D01*
X003233Y006764D02*
X002983Y006514D01*
X002983Y006014D01*
X003233Y005764D01*
X002983Y005514D01*
X002983Y005014D01*
X003233Y004764D01*
X002983Y004514D01*
X002983Y004014D01*
X003233Y003764D01*
X004733Y003764D01*
X004983Y004014D01*
X004983Y004514D01*
X004733Y004764D01*
X004983Y005014D01*
X004983Y005514D01*
X004733Y005764D01*
X004983Y006014D01*
X004983Y006514D01*
X004733Y006764D01*
X003233Y006764D01*
X005063Y005214D02*
X005233Y005044D01*
X005233Y005271D01*
X005403Y005214D02*
X005063Y005214D01*
X005120Y004902D02*
X005233Y004902D01*
X005290Y004846D01*
X005290Y004675D01*
X005403Y004675D02*
X005063Y004675D01*
X005063Y004846D01*
X005120Y004902D01*
X005290Y004789D02*
X005403Y004902D01*
X005613Y004846D02*
X005670Y004902D01*
X005783Y004902D01*
X005840Y004846D01*
X005840Y004675D01*
X005953Y004675D02*
X005613Y004675D01*
X005613Y004846D01*
X005670Y005044D02*
X005613Y005100D01*
X005613Y005214D01*
X005670Y005271D01*
X005726Y005271D01*
X005783Y005214D01*
X005840Y005271D01*
X005897Y005271D01*
X005953Y005214D01*
X005953Y005100D01*
X005897Y005044D01*
X005953Y004902D02*
X005840Y004789D01*
X005783Y005157D02*
X005783Y005214D01*
X006213Y005214D02*
X006213Y005100D01*
X006270Y005044D01*
X006270Y004902D02*
X006383Y004902D01*
X006440Y004846D01*
X006440Y004675D01*
X006553Y004675D02*
X006213Y004675D01*
X006213Y004846D01*
X006270Y004902D01*
X006440Y004789D02*
X006553Y004902D01*
X006553Y005044D02*
X006326Y005271D01*
X006270Y005271D01*
X006213Y005214D01*
X006553Y005271D02*
X006553Y005044D01*
X006813Y005157D02*
X007153Y005157D01*
X007153Y005044D02*
X007153Y005271D01*
X006926Y005044D02*
X006813Y005157D01*
X006870Y004902D02*
X006983Y004902D01*
X007040Y004846D01*
X007040Y004675D01*
X007153Y004675D02*
X006813Y004675D01*
X006813Y004846D01*
X006870Y004902D01*
X007040Y004789D02*
X007153Y004902D01*
X007153Y004371D02*
X007153Y004144D01*
X007153Y004257D02*
X006813Y004257D01*
X006926Y004144D01*
X007153Y004002D02*
X007153Y003775D01*
X006813Y003775D01*
X006553Y003775D02*
X006553Y004002D01*
X006553Y004144D02*
X006326Y004371D01*
X006270Y004371D01*
X006213Y004314D01*
X006213Y004200D01*
X006270Y004144D01*
X006553Y004144D02*
X006553Y004371D01*
X006553Y003775D02*
X006213Y003775D01*
X005953Y003775D02*
X005953Y004002D01*
X005897Y004144D02*
X005953Y004200D01*
X005953Y004314D01*
X005897Y004371D01*
X005840Y004371D01*
X005783Y004314D01*
X005783Y004257D01*
X005783Y004314D02*
X005726Y004371D01*
X005670Y004371D01*
X005613Y004314D01*
X005613Y004200D01*
X005670Y004144D01*
X005403Y004002D02*
X005403Y003775D01*
X005063Y003775D01*
X005233Y004144D02*
X005233Y004371D01*
X005063Y004314D02*
X005233Y004144D01*
X005403Y004314D02*
X005063Y004314D01*
X005613Y003775D02*
X005953Y003775D01*
X004683Y002314D02*
X004083Y002164D01*
X004033Y002264D02*
X004035Y002301D01*
X004041Y002338D01*
X004051Y002374D01*
X004064Y002409D01*
X004081Y002442D01*
X004102Y002473D01*
X004126Y002501D01*
X004153Y002527D01*
X004182Y002550D01*
X004213Y002570D01*
X004247Y002586D01*
X004282Y002599D01*
X004318Y002608D01*
X004355Y002613D01*
X004392Y002614D01*
X004429Y002611D01*
X004466Y002604D01*
X004502Y002593D01*
X004536Y002579D01*
X004569Y002561D01*
X004599Y002539D01*
X004627Y002515D01*
X004652Y002487D01*
X004675Y002457D01*
X004694Y002425D01*
X004709Y002391D01*
X004721Y002356D01*
X004729Y002320D01*
X004733Y002283D01*
X004733Y002245D01*
X004729Y002208D01*
X004721Y002172D01*
X004709Y002137D01*
X004694Y002103D01*
X004675Y002071D01*
X004652Y002041D01*
X004627Y002013D01*
X004599Y001989D01*
X004569Y001967D01*
X004536Y001949D01*
X004502Y001935D01*
X004466Y001924D01*
X004429Y001917D01*
X004392Y001914D01*
X004355Y001915D01*
X004318Y001920D01*
X004282Y001929D01*
X004247Y001942D01*
X004213Y001958D01*
X004182Y001978D01*
X004153Y002001D01*
X004126Y002027D01*
X004102Y002055D01*
X004081Y002086D01*
X004064Y002119D01*
X004051Y002154D01*
X004041Y002190D01*
X004035Y002227D01*
X004033Y002264D01*
X003583Y002514D02*
X003133Y002064D01*
X003033Y002264D02*
X003035Y002301D01*
X003041Y002338D01*
X003051Y002374D01*
X003064Y002409D01*
X003081Y002442D01*
X003102Y002473D01*
X003126Y002501D01*
X003153Y002527D01*
X003182Y002550D01*
X003213Y002570D01*
X003247Y002586D01*
X003282Y002599D01*
X003318Y002608D01*
X003355Y002613D01*
X003392Y002614D01*
X003429Y002611D01*
X003466Y002604D01*
X003502Y002593D01*
X003536Y002579D01*
X003569Y002561D01*
X003599Y002539D01*
X003627Y002515D01*
X003652Y002487D01*
X003675Y002457D01*
X003694Y002425D01*
X003709Y002391D01*
X003721Y002356D01*
X003729Y002320D01*
X003733Y002283D01*
X003733Y002245D01*
X003729Y002208D01*
X003721Y002172D01*
X003709Y002137D01*
X003694Y002103D01*
X003675Y002071D01*
X003652Y002041D01*
X003627Y002013D01*
X003599Y001989D01*
X003569Y001967D01*
X003536Y001949D01*
X003502Y001935D01*
X003466Y001924D01*
X003429Y001917D01*
X003392Y001914D01*
X003355Y001915D01*
X003318Y001920D01*
X003282Y001929D01*
X003247Y001942D01*
X003213Y001958D01*
X003182Y001978D01*
X003153Y002001D01*
X003126Y002027D01*
X003102Y002055D01*
X003081Y002086D01*
X003064Y002119D01*
X003051Y002154D01*
X003041Y002190D01*
X003035Y002227D01*
X003033Y002264D01*
X003413Y001434D02*
X003583Y001434D01*
X003640Y001377D01*
X003640Y001264D01*
X003583Y001207D01*
X003413Y001207D01*
X003413Y001094D02*
X003413Y001434D01*
X003782Y001377D02*
X003782Y001321D01*
X003838Y001264D01*
X003952Y001264D01*
X004009Y001207D01*
X004009Y001150D01*
X003952Y001094D01*
X003838Y001094D01*
X003782Y001150D01*
X003782Y001377D02*
X003838Y001434D01*
X003952Y001434D01*
X004009Y001377D01*
X004150Y001377D02*
X004207Y001434D01*
X004320Y001434D01*
X004377Y001377D01*
X004377Y001321D01*
X004150Y001094D01*
X004377Y001094D01*
X000903Y004000D02*
X000903Y004114D01*
X000847Y004171D01*
X000620Y004171D01*
X000563Y004114D01*
X000563Y004000D01*
X000620Y003944D01*
X000847Y003944D01*
X000903Y004000D01*
X000903Y004312D02*
X000563Y004312D01*
X000563Y004539D01*
X000563Y004680D02*
X000563Y004907D01*
X000563Y005049D02*
X000563Y005162D01*
X000563Y005105D02*
X000903Y005105D01*
X000903Y005049D02*
X000903Y005162D01*
X000847Y005294D02*
X000903Y005351D01*
X000903Y005464D01*
X000847Y005521D01*
X000903Y005663D02*
X000903Y005776D01*
X000903Y005719D02*
X000563Y005719D01*
X000563Y005663D02*
X000563Y005776D01*
X000563Y005908D02*
X000903Y006135D01*
X000563Y006135D01*
X000563Y006276D02*
X000903Y006276D01*
X000903Y006503D01*
X000903Y006645D02*
X000563Y006645D01*
X000563Y006815D01*
X000620Y006872D01*
X000733Y006872D01*
X000790Y006815D01*
X000790Y006645D01*
X000790Y006758D02*
X000903Y006872D01*
X000847Y007013D02*
X000903Y007070D01*
X000903Y007183D01*
X000847Y007240D01*
X000620Y007240D01*
X000563Y007183D01*
X000563Y007070D01*
X000620Y007013D01*
X000847Y007013D01*
X000903Y007381D02*
X000563Y007381D01*
X000563Y007551D01*
X000620Y007608D01*
X000676Y007608D01*
X000733Y007551D01*
X000733Y007381D01*
X000903Y007381D02*
X000903Y007551D01*
X000847Y007608D01*
X000790Y007608D01*
X000733Y007551D01*
X000620Y007750D02*
X000847Y007750D01*
X000903Y007806D01*
X000903Y007920D01*
X000847Y007977D01*
X000620Y007977D01*
X000563Y007920D01*
X000563Y007806D01*
X000620Y007750D01*
X000563Y008118D02*
X000563Y008345D01*
X000563Y008231D02*
X000903Y008231D01*
X000903Y008486D02*
X000903Y008600D01*
X000903Y008543D02*
X000563Y008543D01*
X000563Y008486D02*
X000563Y008600D01*
X000620Y008732D02*
X000847Y008732D01*
X000903Y008789D01*
X000903Y008902D01*
X000847Y008959D01*
X000903Y009100D02*
X000563Y009100D01*
X000620Y008959D02*
X000563Y008902D01*
X000563Y008789D01*
X000620Y008732D01*
X000733Y009100D02*
X000733Y009327D01*
X000733Y009468D02*
X000733Y009582D01*
X000563Y009695D02*
X000563Y009468D01*
X000903Y009468D01*
X000903Y009695D01*
X000903Y009327D02*
X000563Y009327D01*
X000676Y010294D02*
X000847Y010294D01*
X000903Y010350D01*
X000903Y010521D01*
X000676Y010521D01*
X000733Y010662D02*
X000733Y010832D01*
X000790Y010889D01*
X000847Y010889D01*
X000903Y010832D01*
X000903Y010662D01*
X000563Y010662D01*
X000563Y010832D01*
X000620Y010889D01*
X000676Y010889D01*
X000733Y010832D01*
X000676Y011030D02*
X000903Y011030D01*
X000790Y011030D02*
X000676Y011144D01*
X000676Y011201D01*
X000676Y011337D02*
X000676Y011394D01*
X000903Y011394D01*
X000903Y011337D02*
X000903Y011451D01*
X000847Y011583D02*
X000733Y011583D01*
X000676Y011640D01*
X000676Y011810D01*
X000563Y011810D02*
X000903Y011810D01*
X000903Y011640D01*
X000847Y011583D01*
X000563Y011394D02*
X000506Y011394D01*
X000733Y011951D02*
X000847Y011951D01*
X000903Y012008D01*
X000903Y012178D01*
X000960Y012178D02*
X000676Y012178D01*
X000676Y012008D01*
X000733Y011951D01*
X000960Y012178D02*
X001017Y012121D01*
X001017Y012065D01*
X000847Y012319D02*
X000733Y012319D01*
X000676Y012376D01*
X000676Y012490D01*
X000733Y012546D01*
X000790Y012546D01*
X000790Y012319D01*
X000847Y012319D02*
X000903Y012376D01*
X000903Y012490D01*
X000903Y013056D02*
X000903Y013283D01*
X000903Y013170D02*
X000563Y013170D01*
X000676Y013056D01*
X000847Y013424D02*
X000847Y013481D01*
X000903Y013481D01*
X000903Y013424D01*
X000847Y013424D01*
X000847Y013609D02*
X000620Y013835D01*
X000847Y013835D01*
X000903Y013779D01*
X000903Y013665D01*
X000847Y013609D01*
X000620Y013609D01*
X000563Y013665D01*
X000563Y013779D01*
X000620Y013835D01*
X001611Y013750D02*
X001668Y013694D01*
X001781Y013694D01*
X001838Y013750D01*
X001838Y013807D01*
X001781Y013864D01*
X001668Y013864D01*
X001611Y013921D01*
X001611Y013977D01*
X001668Y014034D01*
X001781Y014034D01*
X001838Y013977D01*
X001979Y014034D02*
X001979Y013807D01*
X002093Y013694D01*
X002206Y013807D01*
X002206Y014034D01*
X002347Y013921D02*
X002461Y014034D01*
X002461Y013694D01*
X002574Y013694D02*
X002347Y013694D01*
X002624Y014218D02*
X002624Y014331D01*
X002624Y014274D02*
X002907Y014274D01*
X002964Y014218D01*
X002964Y014161D01*
X002907Y014104D01*
X002964Y014473D02*
X002964Y014700D01*
X002964Y014586D02*
X002624Y014586D01*
X002737Y014473D01*
X003363Y013846D02*
X003363Y013732D01*
X003420Y013675D01*
X003647Y013675D01*
X003703Y013732D01*
X003703Y013846D01*
X003647Y013902D01*
X003420Y013902D02*
X003363Y013846D01*
X003363Y013534D02*
X003703Y013534D01*
X003363Y013307D01*
X003703Y013307D01*
X003703Y013166D02*
X003703Y012939D01*
X003363Y012939D01*
X003363Y013166D01*
X003533Y013052D02*
X003533Y012939D01*
X003590Y012797D02*
X003363Y012797D01*
X003363Y012570D02*
X003590Y012570D01*
X003703Y012684D01*
X003590Y012797D01*
X004413Y012741D02*
X004413Y012627D01*
X004470Y012570D01*
X004697Y012570D01*
X004753Y012627D01*
X004753Y012741D01*
X004697Y012797D01*
X004753Y012939D02*
X004413Y012939D01*
X004470Y012797D02*
X004413Y012741D01*
X004583Y012939D02*
X004583Y013166D01*
X004583Y013307D02*
X004583Y013534D01*
X004526Y013534D02*
X004753Y013534D01*
X004753Y013675D02*
X004753Y013902D01*
X004753Y013789D02*
X004413Y013789D01*
X004526Y013675D01*
X004526Y013534D02*
X004413Y013421D01*
X004526Y013307D01*
X004753Y013307D01*
X004753Y013166D02*
X004413Y013166D01*
X005413Y013166D02*
X005753Y013166D01*
X005753Y013307D02*
X005753Y013477D01*
X005697Y013534D01*
X005640Y013534D01*
X005583Y013477D01*
X005583Y013307D01*
X005583Y013166D02*
X005583Y012939D01*
X005753Y012939D02*
X005413Y012939D01*
X005470Y012797D02*
X005413Y012741D01*
X005413Y012627D01*
X005470Y012570D01*
X005697Y012570D01*
X005753Y012627D01*
X005753Y012741D01*
X005697Y012797D01*
X005753Y013307D02*
X005413Y013307D01*
X005413Y013477D01*
X005470Y013534D01*
X005526Y013534D01*
X005583Y013477D01*
X005526Y013675D02*
X005413Y013789D01*
X005753Y013789D01*
X005753Y013902D02*
X005753Y013675D01*
X006413Y013732D02*
X006413Y013846D01*
X006470Y013902D01*
X006526Y013902D01*
X006583Y013846D01*
X006583Y013732D01*
X006526Y013675D01*
X006470Y013675D01*
X006413Y013732D01*
X006583Y013732D02*
X006640Y013675D01*
X006697Y013675D01*
X006753Y013732D01*
X006753Y013846D01*
X006697Y013902D01*
X006640Y013902D01*
X006583Y013846D01*
X006470Y013534D02*
X006413Y013477D01*
X006413Y013364D01*
X006470Y013307D01*
X006697Y013307D01*
X006753Y013364D01*
X006753Y013477D01*
X006697Y013534D01*
X006470Y013534D01*
X006413Y013175D02*
X006413Y013062D01*
X006413Y013118D02*
X006753Y013118D01*
X006753Y013062D02*
X006753Y013175D01*
X007413Y013109D02*
X007413Y012996D01*
X007470Y012939D01*
X007697Y012939D01*
X007753Y012996D01*
X007753Y013109D01*
X007697Y013166D01*
X007583Y013166D01*
X007583Y013052D01*
X007470Y013166D02*
X007413Y013109D01*
X007413Y013307D02*
X007753Y013534D01*
X007413Y013534D01*
X007413Y013675D02*
X007413Y013846D01*
X007470Y013902D01*
X007697Y013902D01*
X007753Y013846D01*
X007753Y013675D01*
X007413Y013675D01*
X007413Y013307D02*
X007753Y013307D01*
X008413Y013307D02*
X008753Y013534D01*
X008413Y013534D01*
X008470Y013675D02*
X008697Y013675D01*
X008753Y013732D01*
X008753Y013846D01*
X008697Y013902D01*
X008470Y013902D02*
X008413Y013846D01*
X008413Y013732D01*
X008470Y013675D01*
X008413Y013307D02*
X008753Y013307D01*
X008753Y013166D02*
X008753Y012939D01*
X008413Y012939D01*
X008413Y013166D01*
X008583Y013052D02*
X008583Y012939D01*
X008640Y012797D02*
X008413Y012797D01*
X008640Y012797D02*
X008753Y012684D01*
X008640Y012570D01*
X008413Y012570D01*
X009114Y011596D02*
X009058Y011539D01*
X009058Y011426D01*
X009114Y011369D01*
X009114Y011228D02*
X009058Y011171D01*
X009058Y011058D01*
X009114Y011001D01*
X009341Y011001D01*
X009398Y011058D01*
X009398Y011171D01*
X009341Y011228D01*
X009398Y011369D02*
X009171Y011596D01*
X009114Y011596D01*
X009398Y011596D02*
X009398Y011369D01*
X010063Y011450D02*
X010120Y011394D01*
X010233Y011394D01*
X010290Y011450D01*
X010432Y011564D02*
X010659Y011564D01*
X010602Y011394D02*
X010602Y011734D01*
X010432Y011564D01*
X010290Y011677D02*
X010233Y011734D01*
X010120Y011734D01*
X010063Y011677D01*
X010063Y011450D01*
X009697Y012570D02*
X009470Y012570D01*
X009413Y012627D01*
X009413Y012741D01*
X009470Y012797D01*
X009413Y012939D02*
X009753Y012939D01*
X009697Y012797D02*
X009753Y012741D01*
X009753Y012627D01*
X009697Y012570D01*
X009583Y012939D02*
X009583Y013166D01*
X009583Y013307D02*
X009583Y013534D01*
X009526Y013534D02*
X009753Y013534D01*
X009753Y013675D02*
X009526Y013902D01*
X009470Y013902D01*
X009413Y013846D01*
X009413Y013732D01*
X009470Y013675D01*
X009526Y013534D02*
X009413Y013421D01*
X009526Y013307D01*
X009753Y013307D01*
X009753Y013166D02*
X009413Y013166D01*
X009753Y013675D02*
X009753Y013902D01*
X010413Y013846D02*
X010413Y013732D01*
X010470Y013675D01*
X010470Y013534D02*
X010526Y013534D01*
X010583Y013477D01*
X010583Y013307D01*
X010583Y013166D02*
X010583Y012939D01*
X010753Y012939D02*
X010413Y012939D01*
X010470Y012797D02*
X010413Y012741D01*
X010413Y012627D01*
X010470Y012570D01*
X010697Y012570D01*
X010753Y012627D01*
X010753Y012741D01*
X010697Y012797D01*
X010753Y013166D02*
X010413Y013166D01*
X010413Y013307D02*
X010413Y013477D01*
X010470Y013534D01*
X010583Y013477D02*
X010640Y013534D01*
X010697Y013534D01*
X010753Y013477D01*
X010753Y013307D01*
X010413Y013307D01*
X010753Y013675D02*
X010526Y013902D01*
X010470Y013902D01*
X010413Y013846D01*
X010753Y013902D02*
X010753Y013675D01*
X011463Y013675D02*
X011463Y013902D01*
X011520Y013902D01*
X011747Y013675D01*
X011803Y013675D01*
X011747Y013534D02*
X011520Y013534D01*
X011463Y013477D01*
X011463Y013364D01*
X011520Y013307D01*
X011747Y013307D01*
X011803Y013364D01*
X011803Y013477D01*
X011747Y013534D01*
X011803Y013175D02*
X011803Y013062D01*
X011803Y013118D02*
X011463Y013118D01*
X011463Y013062D02*
X011463Y013175D01*
X012413Y013109D02*
X012413Y012996D01*
X012470Y012939D01*
X012697Y012939D01*
X012753Y012996D01*
X012753Y013109D01*
X012697Y013166D01*
X012583Y013166D01*
X012583Y013052D01*
X012470Y013166D02*
X012413Y013109D01*
X012413Y013307D02*
X012753Y013534D01*
X012413Y013534D01*
X012413Y013675D02*
X012413Y013846D01*
X012470Y013902D01*
X012697Y013902D01*
X012753Y013846D01*
X012753Y013675D01*
X012413Y013675D01*
X012413Y013307D02*
X012753Y013307D01*
X013611Y013750D02*
X013668Y013694D01*
X013781Y013694D01*
X013838Y013750D01*
X013838Y013807D01*
X013781Y013864D01*
X013668Y013864D01*
X013611Y013921D01*
X013611Y013977D01*
X013668Y014034D01*
X013781Y014034D01*
X013838Y013977D01*
X013979Y014034D02*
X013979Y013807D01*
X014093Y013694D01*
X014206Y013807D01*
X014206Y014034D01*
X014347Y013977D02*
X014404Y014034D01*
X014518Y014034D01*
X014574Y013977D01*
X014574Y013921D01*
X014347Y013694D01*
X014574Y013694D01*
X013564Y014261D02*
X013564Y014318D01*
X013507Y014374D01*
X013224Y014374D01*
X013224Y014318D02*
X013224Y014431D01*
X013280Y014573D02*
X013224Y014629D01*
X013224Y014743D01*
X013280Y014800D01*
X013337Y014800D01*
X013564Y014573D01*
X013564Y014800D01*
X013564Y014261D02*
X013507Y014204D01*
X013433Y015264D02*
X013435Y015331D01*
X013441Y015399D01*
X013451Y015466D01*
X013465Y015532D01*
X013482Y015597D01*
X013504Y015661D01*
X013529Y015724D01*
X013558Y015785D01*
X013590Y015844D01*
X013626Y015901D01*
X013665Y015956D01*
X013707Y016009D01*
X013752Y016059D01*
X013800Y016106D01*
X013851Y016151D01*
X013904Y016192D01*
X013960Y016231D01*
X014018Y016266D01*
X014078Y016297D01*
X014139Y016325D01*
X014202Y016349D01*
X014266Y016370D01*
X014332Y016386D01*
X014398Y016399D01*
X014465Y016408D01*
X014532Y016413D01*
X014600Y016414D01*
X014667Y016411D01*
X014734Y016404D01*
X014801Y016393D01*
X014867Y016378D01*
X014932Y016360D01*
X014996Y016337D01*
X015058Y016311D01*
X015119Y016282D01*
X015177Y016248D01*
X015234Y016212D01*
X015289Y016172D01*
X015341Y016129D01*
X015390Y016083D01*
X015437Y016034D01*
X015481Y015983D01*
X015521Y015929D01*
X015559Y015873D01*
X015593Y015814D01*
X015623Y015754D01*
X015650Y015692D01*
X015674Y015629D01*
X015693Y015564D01*
X015709Y015499D01*
X015721Y015432D01*
X015729Y015365D01*
X015733Y015298D01*
X015733Y015230D01*
X015729Y015163D01*
X015721Y015096D01*
X015709Y015029D01*
X015693Y014964D01*
X015674Y014899D01*
X015650Y014836D01*
X015623Y014774D01*
X015593Y014714D01*
X015559Y014655D01*
X015521Y014599D01*
X015481Y014545D01*
X015437Y014494D01*
X015390Y014445D01*
X015341Y014399D01*
X015289Y014356D01*
X015234Y014316D01*
X015177Y014280D01*
X015119Y014246D01*
X015058Y014217D01*
X014996Y014191D01*
X014932Y014168D01*
X014867Y014150D01*
X014801Y014135D01*
X014734Y014124D01*
X014667Y014117D01*
X014600Y014114D01*
X014532Y014115D01*
X014465Y014120D01*
X014398Y014129D01*
X014332Y014142D01*
X014266Y014158D01*
X014202Y014179D01*
X014139Y014203D01*
X014078Y014231D01*
X014018Y014262D01*
X013960Y014297D01*
X013904Y014336D01*
X013851Y014377D01*
X013800Y014422D01*
X013752Y014469D01*
X013707Y014519D01*
X013665Y014572D01*
X013626Y014627D01*
X013590Y014684D01*
X013558Y014743D01*
X013529Y014804D01*
X013504Y014867D01*
X013482Y014931D01*
X013465Y014996D01*
X013451Y015062D01*
X013441Y015129D01*
X013435Y015197D01*
X013433Y015264D01*
X012953Y007802D02*
X012953Y007575D01*
X012726Y007802D01*
X012670Y007802D01*
X012613Y007746D01*
X012613Y007632D01*
X012670Y007575D01*
X012613Y007434D02*
X012897Y007434D01*
X012953Y007377D01*
X012953Y007264D01*
X012897Y007207D01*
X012613Y007207D01*
X012153Y005939D02*
X012153Y005712D01*
X012153Y005825D02*
X011813Y005825D01*
X011926Y005712D01*
X011870Y005571D02*
X011813Y005514D01*
X011813Y005400D01*
X011870Y005344D01*
X012097Y005344D01*
X012153Y005400D01*
X012153Y005514D01*
X012097Y005571D01*
X013437Y003792D02*
X013437Y003565D01*
X013437Y003678D02*
X013097Y003678D01*
X013210Y003565D01*
X013153Y003423D02*
X013097Y003367D01*
X013097Y003196D01*
X013437Y003196D01*
X013437Y003367D01*
X013380Y003423D01*
X013153Y003423D01*
X013127Y002427D02*
X013127Y002200D01*
X013240Y002314D02*
X013013Y002314D01*
X013433Y002264D02*
X013435Y002331D01*
X013441Y002399D01*
X013451Y002466D01*
X013465Y002532D01*
X013482Y002597D01*
X013504Y002661D01*
X013529Y002724D01*
X013558Y002785D01*
X013590Y002844D01*
X013626Y002901D01*
X013665Y002956D01*
X013707Y003009D01*
X013752Y003059D01*
X013800Y003106D01*
X013851Y003151D01*
X013904Y003192D01*
X013960Y003231D01*
X014018Y003266D01*
X014078Y003297D01*
X014139Y003325D01*
X014202Y003349D01*
X014266Y003370D01*
X014332Y003386D01*
X014398Y003399D01*
X014465Y003408D01*
X014532Y003413D01*
X014600Y003414D01*
X014667Y003411D01*
X014734Y003404D01*
X014801Y003393D01*
X014867Y003378D01*
X014932Y003360D01*
X014996Y003337D01*
X015058Y003311D01*
X015119Y003282D01*
X015177Y003248D01*
X015234Y003212D01*
X015289Y003172D01*
X015341Y003129D01*
X015390Y003083D01*
X015437Y003034D01*
X015481Y002983D01*
X015521Y002929D01*
X015559Y002873D01*
X015593Y002814D01*
X015623Y002754D01*
X015650Y002692D01*
X015674Y002629D01*
X015693Y002564D01*
X015709Y002499D01*
X015721Y002432D01*
X015729Y002365D01*
X015733Y002298D01*
X015733Y002230D01*
X015729Y002163D01*
X015721Y002096D01*
X015709Y002029D01*
X015693Y001964D01*
X015674Y001899D01*
X015650Y001836D01*
X015623Y001774D01*
X015593Y001714D01*
X015559Y001655D01*
X015521Y001599D01*
X015481Y001545D01*
X015437Y001494D01*
X015390Y001445D01*
X015341Y001399D01*
X015289Y001356D01*
X015234Y001316D01*
X015177Y001280D01*
X015119Y001246D01*
X015058Y001217D01*
X014996Y001191D01*
X014932Y001168D01*
X014867Y001150D01*
X014801Y001135D01*
X014734Y001124D01*
X014667Y001117D01*
X014600Y001114D01*
X014532Y001115D01*
X014465Y001120D01*
X014398Y001129D01*
X014332Y001142D01*
X014266Y001158D01*
X014202Y001179D01*
X014139Y001203D01*
X014078Y001231D01*
X014018Y001262D01*
X013960Y001297D01*
X013904Y001336D01*
X013851Y001377D01*
X013800Y001422D01*
X013752Y001469D01*
X013707Y001519D01*
X013665Y001572D01*
X013626Y001627D01*
X013590Y001684D01*
X013558Y001743D01*
X013529Y001804D01*
X013504Y001867D01*
X013482Y001931D01*
X013465Y001996D01*
X013451Y002062D01*
X013441Y002129D01*
X013435Y002197D01*
X013433Y002264D01*
X015293Y003677D02*
X015293Y003791D01*
X015293Y003734D02*
X015577Y003734D01*
X015633Y003677D01*
X015633Y003620D01*
X015577Y003564D01*
X015633Y003932D02*
X015293Y003932D01*
X015293Y004102D01*
X015350Y004159D01*
X015463Y004159D01*
X015520Y004102D01*
X015520Y003932D01*
X015577Y004300D02*
X015633Y004357D01*
X015633Y004471D01*
X015577Y004527D01*
X015520Y004527D01*
X015463Y004471D01*
X015463Y004414D01*
X015463Y004471D02*
X015406Y004527D01*
X015350Y004527D01*
X015293Y004471D01*
X015293Y004357D01*
X015350Y004300D01*
X006572Y006264D02*
X006345Y006264D01*
X006515Y006434D01*
X006515Y006094D01*
X006204Y006150D02*
X006204Y006434D01*
X005977Y006434D02*
X005977Y006150D01*
X006033Y006094D01*
X006147Y006094D01*
X006204Y006150D01*
X000903Y005908D02*
X000563Y005908D01*
X000563Y006276D02*
X000563Y006503D01*
X000733Y006390D02*
X000733Y006276D01*
X000620Y005521D02*
X000563Y005464D01*
X000563Y005351D01*
X000620Y005294D01*
X000847Y005294D01*
X000733Y004794D02*
X000733Y004680D01*
X000903Y004680D02*
X000563Y004680D01*
X000733Y004425D02*
X000733Y004312D01*
X000433Y015264D02*
X000435Y015331D01*
X000441Y015399D01*
X000451Y015466D01*
X000465Y015532D01*
X000482Y015597D01*
X000504Y015661D01*
X000529Y015724D01*
X000558Y015785D01*
X000590Y015844D01*
X000626Y015901D01*
X000665Y015956D01*
X000707Y016009D01*
X000752Y016059D01*
X000800Y016106D01*
X000851Y016151D01*
X000904Y016192D01*
X000960Y016231D01*
X001018Y016266D01*
X001078Y016297D01*
X001139Y016325D01*
X001202Y016349D01*
X001266Y016370D01*
X001332Y016386D01*
X001398Y016399D01*
X001465Y016408D01*
X001532Y016413D01*
X001600Y016414D01*
X001667Y016411D01*
X001734Y016404D01*
X001801Y016393D01*
X001867Y016378D01*
X001932Y016360D01*
X001996Y016337D01*
X002058Y016311D01*
X002119Y016282D01*
X002177Y016248D01*
X002234Y016212D01*
X002289Y016172D01*
X002341Y016129D01*
X002390Y016083D01*
X002437Y016034D01*
X002481Y015983D01*
X002521Y015929D01*
X002559Y015873D01*
X002593Y015814D01*
X002623Y015754D01*
X002650Y015692D01*
X002674Y015629D01*
X002693Y015564D01*
X002709Y015499D01*
X002721Y015432D01*
X002729Y015365D01*
X002733Y015298D01*
X002733Y015230D01*
X002729Y015163D01*
X002721Y015096D01*
X002709Y015029D01*
X002693Y014964D01*
X002674Y014899D01*
X002650Y014836D01*
X002623Y014774D01*
X002593Y014714D01*
X002559Y014655D01*
X002521Y014599D01*
X002481Y014545D01*
X002437Y014494D01*
X002390Y014445D01*
X002341Y014399D01*
X002289Y014356D01*
X002234Y014316D01*
X002177Y014280D01*
X002119Y014246D01*
X002058Y014217D01*
X001996Y014191D01*
X001932Y014168D01*
X001867Y014150D01*
X001801Y014135D01*
X001734Y014124D01*
X001667Y014117D01*
X001600Y014114D01*
X001532Y014115D01*
X001465Y014120D01*
X001398Y014129D01*
X001332Y014142D01*
X001266Y014158D01*
X001202Y014179D01*
X001139Y014203D01*
X001078Y014231D01*
X001018Y014262D01*
X000960Y014297D01*
X000904Y014336D01*
X000851Y014377D01*
X000800Y014422D01*
X000752Y014469D01*
X000707Y014519D01*
X000665Y014572D01*
X000626Y014627D01*
X000590Y014684D01*
X000558Y014743D01*
X000529Y014804D01*
X000504Y014867D01*
X000482Y014931D01*
X000465Y014996D01*
X000451Y015062D01*
X000441Y015129D01*
X000435Y015197D01*
X000433Y015264D01*
D12*
X005183Y003314D03*
X005183Y002814D03*
X005783Y002814D03*
X005783Y003314D03*
X006383Y003314D03*
X006383Y002814D03*
X006983Y002814D03*
X006983Y003314D03*
D13*
X006846Y002028D02*
X006851Y002006D01*
X006859Y001986D01*
X006870Y001968D01*
X006885Y001951D01*
X006901Y001937D01*
X006920Y001925D01*
X006940Y001917D01*
X006961Y001912D01*
X006983Y001910D01*
X007005Y001912D01*
X007026Y001917D01*
X007046Y001925D01*
X007065Y001937D01*
X007081Y001951D01*
X007096Y001968D01*
X007107Y001986D01*
X007115Y002006D01*
X007120Y002028D01*
X007210Y001861D02*
X007210Y001300D01*
X007119Y001329D02*
X007121Y001341D01*
X007126Y001352D01*
X007134Y001361D01*
X007145Y001367D01*
X007157Y001370D01*
X007169Y001369D01*
X007181Y001365D01*
X007190Y001357D01*
X007197Y001347D01*
X007201Y001335D01*
X007201Y001323D01*
X007197Y001311D01*
X007190Y001301D01*
X007180Y001293D01*
X007169Y001289D01*
X007157Y001288D01*
X007145Y001291D01*
X007134Y001297D01*
X007126Y001306D01*
X007121Y001317D01*
X007119Y001329D01*
X007120Y001299D02*
X007115Y001321D01*
X007107Y001341D01*
X007096Y001359D01*
X007081Y001376D01*
X007065Y001390D01*
X007046Y001402D01*
X007026Y001410D01*
X007005Y001415D01*
X006983Y001417D01*
X006961Y001415D01*
X006940Y001410D01*
X006920Y001402D01*
X006901Y001390D01*
X006885Y001376D01*
X006870Y001359D01*
X006859Y001341D01*
X006851Y001321D01*
X006846Y001299D01*
X006757Y001457D02*
X006757Y001870D01*
X006610Y001861D02*
X006610Y001300D01*
X006519Y001329D02*
X006521Y001341D01*
X006526Y001352D01*
X006534Y001361D01*
X006545Y001367D01*
X006557Y001370D01*
X006569Y001369D01*
X006581Y001365D01*
X006590Y001357D01*
X006597Y001347D01*
X006601Y001335D01*
X006601Y001323D01*
X006597Y001311D01*
X006590Y001301D01*
X006580Y001293D01*
X006569Y001289D01*
X006557Y001288D01*
X006545Y001291D01*
X006534Y001297D01*
X006526Y001306D01*
X006521Y001317D01*
X006519Y001329D01*
X006520Y001299D02*
X006515Y001321D01*
X006507Y001341D01*
X006496Y001359D01*
X006481Y001376D01*
X006465Y001390D01*
X006446Y001402D01*
X006426Y001410D01*
X006405Y001415D01*
X006383Y001417D01*
X006361Y001415D01*
X006340Y001410D01*
X006320Y001402D01*
X006301Y001390D01*
X006285Y001376D01*
X006270Y001359D01*
X006259Y001341D01*
X006251Y001321D01*
X006246Y001299D01*
X006157Y001457D02*
X006157Y001870D01*
X006010Y001861D02*
X006010Y001300D01*
X005919Y001329D02*
X005921Y001341D01*
X005926Y001352D01*
X005934Y001361D01*
X005945Y001367D01*
X005957Y001370D01*
X005969Y001369D01*
X005981Y001365D01*
X005990Y001357D01*
X005997Y001347D01*
X006001Y001335D01*
X006001Y001323D01*
X005997Y001311D01*
X005990Y001301D01*
X005980Y001293D01*
X005969Y001289D01*
X005957Y001288D01*
X005945Y001291D01*
X005934Y001297D01*
X005926Y001306D01*
X005921Y001317D01*
X005919Y001329D01*
X005920Y001299D02*
X005915Y001321D01*
X005907Y001341D01*
X005896Y001359D01*
X005881Y001376D01*
X005865Y001390D01*
X005846Y001402D01*
X005826Y001410D01*
X005805Y001415D01*
X005783Y001417D01*
X005761Y001415D01*
X005740Y001410D01*
X005720Y001402D01*
X005701Y001390D01*
X005685Y001376D01*
X005670Y001359D01*
X005659Y001341D01*
X005651Y001321D01*
X005646Y001299D01*
X005557Y001457D02*
X005557Y001870D01*
X005410Y001861D02*
X005410Y001300D01*
X005319Y001329D02*
X005321Y001341D01*
X005326Y001352D01*
X005334Y001361D01*
X005345Y001367D01*
X005357Y001370D01*
X005369Y001369D01*
X005381Y001365D01*
X005390Y001357D01*
X005397Y001347D01*
X005401Y001335D01*
X005401Y001323D01*
X005397Y001311D01*
X005390Y001301D01*
X005380Y001293D01*
X005369Y001289D01*
X005357Y001288D01*
X005345Y001291D01*
X005334Y001297D01*
X005326Y001306D01*
X005321Y001317D01*
X005319Y001329D01*
X005320Y001299D02*
X005315Y001321D01*
X005307Y001341D01*
X005296Y001359D01*
X005281Y001376D01*
X005265Y001390D01*
X005246Y001402D01*
X005226Y001410D01*
X005205Y001415D01*
X005183Y001417D01*
X005161Y001415D01*
X005140Y001410D01*
X005120Y001402D01*
X005101Y001390D01*
X005085Y001376D01*
X005070Y001359D01*
X005059Y001341D01*
X005051Y001321D01*
X005046Y001299D01*
X004957Y001457D02*
X004957Y001870D01*
X005046Y002028D02*
X005051Y002006D01*
X005059Y001986D01*
X005070Y001968D01*
X005085Y001951D01*
X005101Y001937D01*
X005120Y001925D01*
X005140Y001917D01*
X005161Y001912D01*
X005183Y001910D01*
X005205Y001912D01*
X005226Y001917D01*
X005246Y001925D01*
X005265Y001937D01*
X005281Y001951D01*
X005296Y001968D01*
X005307Y001986D01*
X005315Y002006D01*
X005320Y002028D01*
X005646Y002028D02*
X005651Y002006D01*
X005659Y001986D01*
X005670Y001968D01*
X005685Y001951D01*
X005701Y001937D01*
X005720Y001925D01*
X005740Y001917D01*
X005761Y001912D01*
X005783Y001910D01*
X005805Y001912D01*
X005826Y001917D01*
X005846Y001925D01*
X005865Y001937D01*
X005881Y001951D01*
X005896Y001968D01*
X005907Y001986D01*
X005915Y002006D01*
X005920Y002028D01*
X006246Y002028D02*
X006251Y002006D01*
X006259Y001986D01*
X006270Y001968D01*
X006285Y001951D01*
X006301Y001937D01*
X006320Y001925D01*
X006340Y001917D01*
X006361Y001912D01*
X006383Y001910D01*
X006405Y001912D01*
X006426Y001917D01*
X006446Y001925D01*
X006465Y001937D01*
X006481Y001951D01*
X006496Y001968D01*
X006507Y001986D01*
X006515Y002006D01*
X006520Y002028D01*
X009104Y003634D02*
X009104Y004638D01*
X009200Y004660D02*
X009176Y004829D01*
X009176Y004999D01*
X009200Y005167D01*
X009247Y005331D01*
X009316Y005486D01*
X009407Y005630D01*
X009517Y005760D01*
X009517Y004067D01*
X009407Y004197D01*
X009316Y004341D01*
X009247Y004497D01*
X009517Y004497D01*
X009517Y004535D02*
X009236Y004535D01*
X009247Y004497D02*
X009200Y004660D01*
X009202Y004651D02*
X009517Y004651D01*
X009517Y004689D02*
X009195Y004689D01*
X009190Y004728D02*
X009517Y004728D01*
X009517Y004766D02*
X009185Y004766D01*
X009179Y004805D02*
X009517Y004805D01*
X009517Y004843D02*
X009176Y004843D01*
X009176Y004882D02*
X009517Y004882D01*
X009517Y004920D02*
X009176Y004920D01*
X009176Y004959D02*
X009517Y004959D01*
X009517Y004997D02*
X009176Y004997D01*
X009181Y005036D02*
X009517Y005036D01*
X009517Y005074D02*
X009186Y005074D01*
X009192Y005113D02*
X009517Y005113D01*
X009517Y005151D02*
X009197Y005151D01*
X009206Y005190D02*
X009517Y005190D01*
X009517Y005228D02*
X009217Y005228D01*
X009228Y005267D02*
X009517Y005267D01*
X009517Y005305D02*
X009239Y005305D01*
X009253Y005344D02*
X009517Y005344D01*
X009517Y005382D02*
X009270Y005382D01*
X009287Y005421D02*
X009517Y005421D01*
X009517Y005459D02*
X009304Y005459D01*
X009324Y005498D02*
X009517Y005498D01*
X009517Y005536D02*
X009348Y005536D01*
X009372Y005575D02*
X009517Y005575D01*
X009517Y005613D02*
X009396Y005613D01*
X009425Y005652D02*
X009517Y005652D01*
X009517Y005690D02*
X009458Y005690D01*
X009491Y005729D02*
X009517Y005729D01*
X009104Y006193D02*
X011348Y006193D01*
X011663Y005878D01*
X011663Y003949D01*
X011348Y003634D01*
X009104Y003634D01*
X009104Y006193D01*
X009104Y005229D01*
X009213Y004612D02*
X009517Y004612D01*
X009517Y004574D02*
X009224Y004574D01*
X009264Y004458D02*
X009517Y004458D01*
X009517Y004420D02*
X009281Y004420D01*
X009298Y004381D02*
X009517Y004381D01*
X009517Y004343D02*
X009316Y004343D01*
X009340Y004304D02*
X009517Y004304D01*
X009517Y004266D02*
X009364Y004266D01*
X009388Y004227D02*
X009517Y004227D01*
X009517Y004189D02*
X009414Y004189D01*
X009447Y004150D02*
X009517Y004150D01*
X009517Y004112D02*
X009480Y004112D01*
X009512Y004073D02*
X009517Y004073D01*
X009104Y003634D02*
X011348Y003634D01*
X011663Y003949D01*
X011564Y004609D02*
X011545Y004543D01*
X011522Y004477D01*
X011495Y004413D01*
X011465Y004351D01*
X011431Y004290D01*
X011395Y004232D01*
X011354Y004176D01*
X011311Y004122D01*
X011265Y004070D01*
X011215Y004022D01*
X011163Y003976D01*
X011109Y003933D01*
X011052Y003894D01*
X010993Y003857D01*
X010932Y003824D01*
X010870Y003795D01*
X010806Y003769D01*
X010740Y003747D01*
X010673Y003729D01*
X010606Y003714D01*
X010537Y003704D01*
X010468Y003697D01*
X010399Y003694D01*
X010330Y003695D01*
X010261Y003700D01*
X010192Y003709D01*
X010124Y003722D01*
X010057Y003739D01*
X009991Y003759D01*
X009926Y003783D01*
X009863Y003811D01*
X009801Y003842D01*
X009742Y003877D01*
X009684Y003915D01*
X009628Y003957D01*
X009575Y004001D01*
X009525Y004049D01*
X009477Y004099D01*
X009433Y004152D01*
X009391Y004207D01*
X009352Y004264D01*
X009317Y004324D01*
X009286Y004386D01*
X009258Y004449D01*
X009233Y004513D01*
X009212Y004579D01*
X009202Y005219D02*
X009221Y005285D01*
X009244Y005351D01*
X009271Y005415D01*
X009301Y005477D01*
X009335Y005538D01*
X009371Y005596D01*
X009412Y005652D01*
X009455Y005706D01*
X009501Y005758D01*
X009551Y005806D01*
X009603Y005852D01*
X009657Y005895D01*
X009714Y005934D01*
X009773Y005971D01*
X009834Y006004D01*
X009896Y006033D01*
X009960Y006059D01*
X010026Y006081D01*
X010093Y006099D01*
X010160Y006114D01*
X010229Y006124D01*
X010298Y006131D01*
X010367Y006134D01*
X010436Y006133D01*
X010505Y006128D01*
X010574Y006119D01*
X010642Y006106D01*
X010709Y006089D01*
X010775Y006069D01*
X010840Y006045D01*
X010903Y006017D01*
X010965Y005986D01*
X011024Y005951D01*
X011082Y005913D01*
X011138Y005871D01*
X011191Y005827D01*
X011241Y005779D01*
X011289Y005729D01*
X011333Y005676D01*
X011375Y005621D01*
X011414Y005564D01*
X011449Y005504D01*
X011480Y005442D01*
X011508Y005379D01*
X011533Y005315D01*
X011554Y005249D01*
X011663Y005878D02*
X011348Y006193D01*
X009104Y006193D01*
X009162Y004914D02*
X009164Y004984D01*
X009170Y005053D01*
X009180Y005122D01*
X009194Y005191D01*
X009211Y005258D01*
X009233Y005324D01*
X009258Y005389D01*
X009287Y005453D01*
X009320Y005514D01*
X009356Y005574D01*
X009395Y005632D01*
X009438Y005687D01*
X009483Y005740D01*
X009532Y005790D01*
X009583Y005837D01*
X009637Y005881D01*
X009694Y005922D01*
X009752Y005960D01*
X009813Y005994D01*
X009876Y006025D01*
X009940Y006052D01*
X010006Y006075D01*
X010073Y006095D01*
X010141Y006111D01*
X010209Y006123D01*
X010279Y006131D01*
X010348Y006135D01*
X010418Y006135D01*
X010487Y006131D01*
X010557Y006123D01*
X010625Y006111D01*
X010693Y006095D01*
X010760Y006075D01*
X010826Y006052D01*
X010890Y006025D01*
X010953Y005994D01*
X011014Y005960D01*
X011072Y005922D01*
X011129Y005881D01*
X011183Y005837D01*
X011234Y005790D01*
X011283Y005740D01*
X011328Y005687D01*
X011371Y005632D01*
X011410Y005574D01*
X011446Y005514D01*
X011479Y005453D01*
X011508Y005389D01*
X011533Y005324D01*
X011555Y005258D01*
X011572Y005191D01*
X011586Y005122D01*
X011596Y005053D01*
X011602Y004984D01*
X011604Y004914D01*
X011602Y004844D01*
X011596Y004775D01*
X011586Y004706D01*
X011572Y004637D01*
X011555Y004570D01*
X011533Y004504D01*
X011508Y004439D01*
X011479Y004375D01*
X011446Y004314D01*
X011410Y004254D01*
X011371Y004196D01*
X011328Y004141D01*
X011283Y004088D01*
X011234Y004038D01*
X011183Y003991D01*
X011129Y003947D01*
X011072Y003906D01*
X011014Y003868D01*
X010953Y003834D01*
X010890Y003803D01*
X010826Y003776D01*
X010760Y003753D01*
X010693Y003733D01*
X010625Y003717D01*
X010557Y003705D01*
X010487Y003697D01*
X010418Y003693D01*
X010348Y003693D01*
X010279Y003697D01*
X010209Y003705D01*
X010141Y003717D01*
X010073Y003733D01*
X010006Y003753D01*
X009940Y003776D01*
X009876Y003803D01*
X009813Y003834D01*
X009752Y003868D01*
X009694Y003906D01*
X009637Y003947D01*
X009583Y003991D01*
X009532Y004038D01*
X009483Y004088D01*
X009438Y004141D01*
X009395Y004196D01*
X009356Y004254D01*
X009320Y004314D01*
X009287Y004375D01*
X009258Y004439D01*
X009233Y004504D01*
X009211Y004570D01*
X009194Y004637D01*
X009180Y004706D01*
X009170Y004775D01*
X009164Y004844D01*
X009162Y004914D01*
X008773Y008099D02*
X008493Y008099D01*
X008493Y008434D02*
X008773Y008434D01*
X009869Y008678D02*
X010598Y008678D01*
X010598Y009150D02*
X009869Y009150D01*
X009520Y009800D02*
X009520Y010528D01*
X009793Y010744D02*
X009793Y009984D01*
X009047Y009800D02*
X009047Y010528D01*
X010773Y010744D02*
X010773Y009984D01*
X006173Y009984D02*
X006173Y010744D01*
X005193Y010744D02*
X005193Y009984D01*
X004920Y009800D02*
X004920Y010528D01*
X004447Y010528D02*
X004447Y009800D01*
X005069Y009150D02*
X005798Y009150D01*
X005798Y008678D02*
X005069Y008678D01*
X004173Y008434D02*
X003893Y008434D01*
X003893Y008099D02*
X004173Y008099D01*
D14*
X005001Y001959D03*
X005365Y001959D03*
X005601Y001959D03*
X005965Y001959D03*
X006201Y001959D03*
X006565Y001959D03*
X006801Y001959D03*
X007165Y001959D03*
X006801Y001368D03*
X006201Y001368D03*
X005601Y001368D03*
X005001Y001368D03*
D15*
X005085Y001418D03*
X005282Y001418D03*
X005685Y001418D03*
X005882Y001418D03*
X006285Y001418D03*
X006482Y001418D03*
X006885Y001418D03*
X007082Y001418D03*
X007082Y001910D03*
X006885Y001910D03*
X006482Y001910D03*
X006285Y001910D03*
X005882Y001910D03*
X005685Y001910D03*
X005282Y001910D03*
X005085Y001910D03*
D16*
X005183Y001895D03*
X005183Y001432D03*
X005783Y001432D03*
X005783Y001895D03*
X006383Y001895D03*
X006383Y001432D03*
X006983Y001432D03*
X006983Y001895D03*
D17*
X006983Y001624D03*
X006383Y001624D03*
X005783Y001624D03*
X005183Y001624D03*
D18*
X005360Y001408D03*
X005960Y001408D03*
X006560Y001408D03*
X007160Y001408D03*
D19*
X007165Y001285D03*
X006565Y001285D03*
X005965Y001285D03*
X005365Y001285D03*
D20*
X001583Y001214D02*
X001583Y001114D01*
X001583Y003314D02*
X001583Y003414D01*
X001583Y014114D02*
X001583Y014214D01*
X001583Y016314D02*
X001583Y016414D01*
X014583Y016414D02*
X014583Y016314D01*
X014583Y014214D02*
X014583Y014114D01*
X014583Y003414D02*
X014583Y003314D01*
X014583Y001214D02*
X014583Y001114D01*
D21*
X015687Y002308D02*
X014874Y002308D01*
X014875Y002309D02*
X014867Y002342D01*
X014857Y002374D01*
X014842Y002405D01*
X014824Y002434D01*
X014803Y002460D01*
X014779Y002484D01*
X014753Y002505D01*
X014724Y002523D01*
X014693Y002538D01*
X014661Y002548D01*
X014628Y002556D01*
X014627Y003368D01*
X014628Y003368D01*
X014694Y003363D01*
X014759Y003355D01*
X014824Y003343D01*
X014887Y003326D01*
X014950Y003306D01*
X015011Y003283D01*
X015071Y003255D01*
X015129Y003224D01*
X015186Y003190D01*
X015240Y003153D01*
X015292Y003112D01*
X015341Y003068D01*
X015387Y003022D01*
X015431Y002973D01*
X015472Y002921D01*
X015509Y002867D01*
X015543Y002810D01*
X015574Y002752D01*
X015602Y002692D01*
X015625Y002631D01*
X015645Y002568D01*
X015662Y002505D01*
X015674Y002440D01*
X015682Y002375D01*
X015687Y002309D01*
X015602Y002309D01*
X015597Y002372D01*
X015589Y002434D01*
X015576Y002496D01*
X015560Y002557D01*
X015540Y002617D01*
X015517Y002675D01*
X015489Y002732D01*
X015459Y002787D01*
X015425Y002840D01*
X015388Y002891D01*
X015347Y002939D01*
X015304Y002985D01*
X015258Y003028D01*
X015210Y003069D01*
X015159Y003106D01*
X015106Y003140D01*
X015051Y003170D01*
X014994Y003198D01*
X014936Y003221D01*
X014876Y003241D01*
X014815Y003257D01*
X014753Y003270D01*
X014691Y003278D01*
X014628Y003283D01*
X014628Y003198D01*
X014688Y003193D01*
X014747Y003184D01*
X014806Y003172D01*
X014863Y003156D01*
X014920Y003136D01*
X014975Y003113D01*
X015029Y003086D01*
X015080Y003056D01*
X015130Y003022D01*
X015178Y002986D01*
X015223Y002946D01*
X015265Y002904D01*
X015305Y002859D01*
X015341Y002811D01*
X015375Y002761D01*
X015405Y002710D01*
X015432Y002656D01*
X015455Y002601D01*
X015475Y002544D01*
X015491Y002487D01*
X015503Y002428D01*
X015512Y002369D01*
X015517Y002309D01*
X015432Y002309D01*
X015427Y002365D01*
X015418Y002421D01*
X015406Y002477D01*
X015390Y002531D01*
X015370Y002584D01*
X015347Y002636D01*
X015321Y002686D01*
X015291Y002734D01*
X015259Y002780D01*
X015223Y002824D01*
X015184Y002865D01*
X015143Y002904D01*
X015099Y002940D01*
X015053Y002972D01*
X015005Y003002D01*
X014955Y003028D01*
X014903Y003051D01*
X014850Y003071D01*
X014796Y003087D01*
X014740Y003099D01*
X014684Y003108D01*
X014628Y003113D01*
X014628Y003028D01*
X014681Y003023D01*
X014733Y003014D01*
X014784Y003002D01*
X014835Y002986D01*
X014884Y002967D01*
X014932Y002945D01*
X014978Y002919D01*
X015023Y002890D01*
X015065Y002858D01*
X015105Y002823D01*
X015142Y002786D01*
X015177Y002746D01*
X015209Y002704D01*
X015238Y002659D01*
X015264Y002613D01*
X015286Y002565D01*
X015305Y002516D01*
X015321Y002465D01*
X015333Y002414D01*
X015342Y002362D01*
X015347Y002309D01*
X015262Y002309D01*
X015256Y002360D01*
X015247Y002411D01*
X015234Y002461D01*
X015217Y002509D01*
X015197Y002557D01*
X015173Y002602D01*
X015146Y002646D01*
X015115Y002687D01*
X015082Y002726D01*
X015045Y002763D01*
X015006Y002796D01*
X014965Y002827D01*
X014921Y002854D01*
X014876Y002878D01*
X014828Y002898D01*
X014780Y002915D01*
X014730Y002928D01*
X014679Y002937D01*
X014628Y002943D01*
X014628Y002857D01*
X014675Y002852D01*
X014721Y002843D01*
X014766Y002830D01*
X014810Y002814D01*
X014852Y002794D01*
X014893Y002772D01*
X014932Y002746D01*
X014969Y002717D01*
X015004Y002685D01*
X015036Y002650D01*
X015065Y002613D01*
X015091Y002574D01*
X015113Y002533D01*
X015133Y002491D01*
X015149Y002447D01*
X015162Y002402D01*
X015171Y002356D01*
X015176Y002309D01*
X015091Y002309D01*
X015085Y002353D01*
X015076Y002396D01*
X015062Y002439D01*
X015045Y002480D01*
X015025Y002519D01*
X015001Y002557D01*
X014974Y002592D01*
X014944Y002625D01*
X014911Y002655D01*
X014876Y002682D01*
X014838Y002706D01*
X014799Y002726D01*
X014758Y002743D01*
X014715Y002757D01*
X014672Y002766D01*
X014628Y002772D01*
X014628Y002687D01*
X014666Y002681D01*
X014703Y002672D01*
X014740Y002659D01*
X014775Y002643D01*
X014808Y002624D01*
X014840Y002602D01*
X014870Y002578D01*
X014897Y002551D01*
X014921Y002521D01*
X014943Y002489D01*
X014962Y002456D01*
X014978Y002421D01*
X014991Y002384D01*
X015000Y002347D01*
X015006Y002309D01*
X014920Y002309D01*
X014914Y002342D01*
X014904Y002375D01*
X014892Y002407D01*
X014876Y002437D01*
X014857Y002466D01*
X014835Y002492D01*
X014811Y002516D01*
X014785Y002538D01*
X014756Y002557D01*
X014726Y002573D01*
X014694Y002585D01*
X014661Y002595D01*
X014628Y002601D01*
X013479Y002220D02*
X014292Y002220D01*
X014291Y002219D02*
X014299Y002186D01*
X014309Y002154D01*
X014324Y002123D01*
X014342Y002094D01*
X014363Y002068D01*
X014387Y002044D01*
X014413Y002023D01*
X014442Y002005D01*
X014473Y001990D01*
X014505Y001980D01*
X014538Y001972D01*
X014539Y001160D01*
X014538Y001160D01*
X014472Y001165D01*
X014407Y001173D01*
X014342Y001185D01*
X014279Y001202D01*
X014216Y001222D01*
X014155Y001245D01*
X014095Y001273D01*
X014037Y001304D01*
X013980Y001338D01*
X013926Y001375D01*
X013874Y001416D01*
X013825Y001460D01*
X013779Y001506D01*
X013735Y001555D01*
X013694Y001607D01*
X013657Y001661D01*
X013623Y001718D01*
X013592Y001776D01*
X013564Y001836D01*
X013541Y001897D01*
X013521Y001960D01*
X013504Y002023D01*
X013492Y002088D01*
X013484Y002153D01*
X013479Y002219D01*
X013564Y002219D01*
X013569Y002156D01*
X013577Y002094D01*
X013590Y002032D01*
X013606Y001971D01*
X013626Y001911D01*
X013649Y001853D01*
X013677Y001796D01*
X013707Y001741D01*
X013741Y001688D01*
X013778Y001637D01*
X013819Y001589D01*
X013862Y001543D01*
X013908Y001500D01*
X013956Y001459D01*
X014007Y001422D01*
X014060Y001388D01*
X014115Y001358D01*
X014172Y001330D01*
X014230Y001307D01*
X014290Y001287D01*
X014351Y001271D01*
X014413Y001258D01*
X014475Y001250D01*
X014538Y001245D01*
X014538Y001330D01*
X014478Y001335D01*
X014419Y001344D01*
X014360Y001356D01*
X014303Y001372D01*
X014246Y001392D01*
X014191Y001415D01*
X014137Y001442D01*
X014086Y001472D01*
X014036Y001506D01*
X013988Y001542D01*
X013943Y001582D01*
X013901Y001624D01*
X013861Y001669D01*
X013825Y001717D01*
X013791Y001767D01*
X013761Y001818D01*
X013734Y001872D01*
X013711Y001927D01*
X013691Y001984D01*
X013675Y002041D01*
X013663Y002100D01*
X013654Y002159D01*
X013649Y002219D01*
X013734Y002219D01*
X013739Y002163D01*
X013748Y002107D01*
X013760Y002051D01*
X013776Y001997D01*
X013796Y001944D01*
X013819Y001892D01*
X013845Y001842D01*
X013875Y001794D01*
X013907Y001748D01*
X013943Y001704D01*
X013982Y001663D01*
X014023Y001624D01*
X014067Y001588D01*
X014113Y001556D01*
X014161Y001526D01*
X014211Y001500D01*
X014263Y001477D01*
X014316Y001457D01*
X014370Y001441D01*
X014426Y001429D01*
X014482Y001420D01*
X014538Y001415D01*
X014538Y001500D01*
X014485Y001505D01*
X014433Y001514D01*
X014382Y001526D01*
X014331Y001542D01*
X014282Y001561D01*
X014234Y001583D01*
X014188Y001609D01*
X014143Y001638D01*
X014101Y001670D01*
X014061Y001705D01*
X014024Y001742D01*
X013989Y001782D01*
X013957Y001824D01*
X013928Y001869D01*
X013902Y001915D01*
X013880Y001963D01*
X013861Y002012D01*
X013845Y002063D01*
X013833Y002114D01*
X013824Y002166D01*
X013819Y002219D01*
X013904Y002219D01*
X013910Y002168D01*
X013919Y002117D01*
X013932Y002067D01*
X013949Y002019D01*
X013969Y001971D01*
X013993Y001926D01*
X014020Y001882D01*
X014051Y001841D01*
X014084Y001802D01*
X014121Y001765D01*
X014160Y001732D01*
X014201Y001701D01*
X014245Y001674D01*
X014290Y001650D01*
X014338Y001630D01*
X014386Y001613D01*
X014436Y001600D01*
X014487Y001591D01*
X014538Y001585D01*
X014538Y001671D01*
X014491Y001676D01*
X014445Y001685D01*
X014400Y001698D01*
X014356Y001714D01*
X014314Y001734D01*
X014273Y001756D01*
X014234Y001782D01*
X014197Y001811D01*
X014162Y001843D01*
X014130Y001878D01*
X014101Y001915D01*
X014075Y001954D01*
X014053Y001995D01*
X014033Y002037D01*
X014017Y002081D01*
X014004Y002126D01*
X013995Y002172D01*
X013990Y002219D01*
X014075Y002219D01*
X014081Y002175D01*
X014090Y002132D01*
X014104Y002089D01*
X014121Y002048D01*
X014141Y002009D01*
X014165Y001971D01*
X014192Y001936D01*
X014222Y001903D01*
X014255Y001873D01*
X014290Y001846D01*
X014328Y001822D01*
X014367Y001802D01*
X014408Y001785D01*
X014451Y001771D01*
X014494Y001762D01*
X014538Y001756D01*
X014538Y001841D01*
X014500Y001847D01*
X014463Y001856D01*
X014426Y001869D01*
X014391Y001885D01*
X014358Y001904D01*
X014326Y001926D01*
X014296Y001950D01*
X014269Y001977D01*
X014245Y002007D01*
X014223Y002039D01*
X014204Y002072D01*
X014188Y002107D01*
X014175Y002144D01*
X014166Y002181D01*
X014160Y002219D01*
X014246Y002219D01*
X014252Y002186D01*
X014262Y002153D01*
X014274Y002121D01*
X014290Y002091D01*
X014309Y002062D01*
X014331Y002036D01*
X014355Y002012D01*
X014381Y001990D01*
X014410Y001971D01*
X014440Y001955D01*
X014472Y001943D01*
X014505Y001933D01*
X014538Y001927D01*
X015687Y015308D02*
X014874Y015308D01*
X014875Y015309D02*
X014867Y015342D01*
X014857Y015374D01*
X014842Y015405D01*
X014824Y015434D01*
X014803Y015460D01*
X014779Y015484D01*
X014753Y015505D01*
X014724Y015523D01*
X014693Y015538D01*
X014661Y015548D01*
X014628Y015556D01*
X014627Y016368D01*
X014628Y016368D01*
X014694Y016363D01*
X014759Y016355D01*
X014824Y016343D01*
X014887Y016326D01*
X014950Y016306D01*
X015011Y016283D01*
X015071Y016255D01*
X015129Y016224D01*
X015186Y016190D01*
X015240Y016153D01*
X015292Y016112D01*
X015341Y016068D01*
X015387Y016022D01*
X015431Y015973D01*
X015472Y015921D01*
X015509Y015867D01*
X015543Y015810D01*
X015574Y015752D01*
X015602Y015692D01*
X015625Y015631D01*
X015645Y015568D01*
X015662Y015505D01*
X015674Y015440D01*
X015682Y015375D01*
X015687Y015309D01*
X015602Y015309D01*
X015597Y015372D01*
X015589Y015434D01*
X015576Y015496D01*
X015560Y015557D01*
X015540Y015617D01*
X015517Y015675D01*
X015489Y015732D01*
X015459Y015787D01*
X015425Y015840D01*
X015388Y015891D01*
X015347Y015939D01*
X015304Y015985D01*
X015258Y016028D01*
X015210Y016069D01*
X015159Y016106D01*
X015106Y016140D01*
X015051Y016170D01*
X014994Y016198D01*
X014936Y016221D01*
X014876Y016241D01*
X014815Y016257D01*
X014753Y016270D01*
X014691Y016278D01*
X014628Y016283D01*
X014628Y016198D01*
X014688Y016193D01*
X014747Y016184D01*
X014806Y016172D01*
X014863Y016156D01*
X014920Y016136D01*
X014975Y016113D01*
X015029Y016086D01*
X015080Y016056D01*
X015130Y016022D01*
X015178Y015986D01*
X015223Y015946D01*
X015265Y015904D01*
X015305Y015859D01*
X015341Y015811D01*
X015375Y015761D01*
X015405Y015710D01*
X015432Y015656D01*
X015455Y015601D01*
X015475Y015544D01*
X015491Y015487D01*
X015503Y015428D01*
X015512Y015369D01*
X015517Y015309D01*
X015432Y015309D01*
X015427Y015365D01*
X015418Y015421D01*
X015406Y015477D01*
X015390Y015531D01*
X015370Y015584D01*
X015347Y015636D01*
X015321Y015686D01*
X015291Y015734D01*
X015259Y015780D01*
X015223Y015824D01*
X015184Y015865D01*
X015143Y015904D01*
X015099Y015940D01*
X015053Y015972D01*
X015005Y016002D01*
X014955Y016028D01*
X014903Y016051D01*
X014850Y016071D01*
X014796Y016087D01*
X014740Y016099D01*
X014684Y016108D01*
X014628Y016113D01*
X014628Y016028D01*
X014681Y016023D01*
X014733Y016014D01*
X014784Y016002D01*
X014835Y015986D01*
X014884Y015967D01*
X014932Y015945D01*
X014978Y015919D01*
X015023Y015890D01*
X015065Y015858D01*
X015105Y015823D01*
X015142Y015786D01*
X015177Y015746D01*
X015209Y015704D01*
X015238Y015659D01*
X015264Y015613D01*
X015286Y015565D01*
X015305Y015516D01*
X015321Y015465D01*
X015333Y015414D01*
X015342Y015362D01*
X015347Y015309D01*
X015262Y015309D01*
X015256Y015360D01*
X015247Y015411D01*
X015234Y015461D01*
X015217Y015509D01*
X015197Y015557D01*
X015173Y015602D01*
X015146Y015646D01*
X015115Y015687D01*
X015082Y015726D01*
X015045Y015763D01*
X015006Y015796D01*
X014965Y015827D01*
X014921Y015854D01*
X014876Y015878D01*
X014828Y015898D01*
X014780Y015915D01*
X014730Y015928D01*
X014679Y015937D01*
X014628Y015943D01*
X014628Y015857D01*
X014675Y015852D01*
X014721Y015843D01*
X014766Y015830D01*
X014810Y015814D01*
X014852Y015794D01*
X014893Y015772D01*
X014932Y015746D01*
X014969Y015717D01*
X015004Y015685D01*
X015036Y015650D01*
X015065Y015613D01*
X015091Y015574D01*
X015113Y015533D01*
X015133Y015491D01*
X015149Y015447D01*
X015162Y015402D01*
X015171Y015356D01*
X015176Y015309D01*
X015091Y015309D01*
X015085Y015353D01*
X015076Y015396D01*
X015062Y015439D01*
X015045Y015480D01*
X015025Y015519D01*
X015001Y015557D01*
X014974Y015592D01*
X014944Y015625D01*
X014911Y015655D01*
X014876Y015682D01*
X014838Y015706D01*
X014799Y015726D01*
X014758Y015743D01*
X014715Y015757D01*
X014672Y015766D01*
X014628Y015772D01*
X014628Y015687D01*
X014666Y015681D01*
X014703Y015672D01*
X014740Y015659D01*
X014775Y015643D01*
X014808Y015624D01*
X014840Y015602D01*
X014870Y015578D01*
X014897Y015551D01*
X014921Y015521D01*
X014943Y015489D01*
X014962Y015456D01*
X014978Y015421D01*
X014991Y015384D01*
X015000Y015347D01*
X015006Y015309D01*
X014920Y015309D01*
X014914Y015342D01*
X014904Y015375D01*
X014892Y015407D01*
X014876Y015437D01*
X014857Y015466D01*
X014835Y015492D01*
X014811Y015516D01*
X014785Y015538D01*
X014756Y015557D01*
X014726Y015573D01*
X014694Y015585D01*
X014661Y015595D01*
X014628Y015601D01*
X013479Y015220D02*
X014292Y015220D01*
X014291Y015219D02*
X014299Y015186D01*
X014309Y015154D01*
X014324Y015123D01*
X014342Y015094D01*
X014363Y015068D01*
X014387Y015044D01*
X014413Y015023D01*
X014442Y015005D01*
X014473Y014990D01*
X014505Y014980D01*
X014538Y014972D01*
X014539Y014160D01*
X014538Y014160D01*
X014472Y014165D01*
X014407Y014173D01*
X014342Y014185D01*
X014279Y014202D01*
X014216Y014222D01*
X014155Y014245D01*
X014095Y014273D01*
X014037Y014304D01*
X013980Y014338D01*
X013926Y014375D01*
X013874Y014416D01*
X013825Y014460D01*
X013779Y014506D01*
X013735Y014555D01*
X013694Y014607D01*
X013657Y014661D01*
X013623Y014718D01*
X013592Y014776D01*
X013564Y014836D01*
X013541Y014897D01*
X013521Y014960D01*
X013504Y015023D01*
X013492Y015088D01*
X013484Y015153D01*
X013479Y015219D01*
X013564Y015219D01*
X013569Y015156D01*
X013577Y015094D01*
X013590Y015032D01*
X013606Y014971D01*
X013626Y014911D01*
X013649Y014853D01*
X013677Y014796D01*
X013707Y014741D01*
X013741Y014688D01*
X013778Y014637D01*
X013819Y014589D01*
X013862Y014543D01*
X013908Y014500D01*
X013956Y014459D01*
X014007Y014422D01*
X014060Y014388D01*
X014115Y014358D01*
X014172Y014330D01*
X014230Y014307D01*
X014290Y014287D01*
X014351Y014271D01*
X014413Y014258D01*
X014475Y014250D01*
X014538Y014245D01*
X014538Y014330D01*
X014478Y014335D01*
X014419Y014344D01*
X014360Y014356D01*
X014303Y014372D01*
X014246Y014392D01*
X014191Y014415D01*
X014137Y014442D01*
X014086Y014472D01*
X014036Y014506D01*
X013988Y014542D01*
X013943Y014582D01*
X013901Y014624D01*
X013861Y014669D01*
X013825Y014717D01*
X013791Y014767D01*
X013761Y014818D01*
X013734Y014872D01*
X013711Y014927D01*
X013691Y014984D01*
X013675Y015041D01*
X013663Y015100D01*
X013654Y015159D01*
X013649Y015219D01*
X013734Y015219D01*
X013739Y015163D01*
X013748Y015107D01*
X013760Y015051D01*
X013776Y014997D01*
X013796Y014944D01*
X013819Y014892D01*
X013845Y014842D01*
X013875Y014794D01*
X013907Y014748D01*
X013943Y014704D01*
X013982Y014663D01*
X014023Y014624D01*
X014067Y014588D01*
X014113Y014556D01*
X014161Y014526D01*
X014211Y014500D01*
X014263Y014477D01*
X014316Y014457D01*
X014370Y014441D01*
X014426Y014429D01*
X014482Y014420D01*
X014538Y014415D01*
X014538Y014500D01*
X014485Y014505D01*
X014433Y014514D01*
X014382Y014526D01*
X014331Y014542D01*
X014282Y014561D01*
X014234Y014583D01*
X014188Y014609D01*
X014143Y014638D01*
X014101Y014670D01*
X014061Y014705D01*
X014024Y014742D01*
X013989Y014782D01*
X013957Y014824D01*
X013928Y014869D01*
X013902Y014915D01*
X013880Y014963D01*
X013861Y015012D01*
X013845Y015063D01*
X013833Y015114D01*
X013824Y015166D01*
X013819Y015219D01*
X013904Y015219D01*
X013910Y015168D01*
X013919Y015117D01*
X013932Y015067D01*
X013949Y015019D01*
X013969Y014971D01*
X013993Y014926D01*
X014020Y014882D01*
X014051Y014841D01*
X014084Y014802D01*
X014121Y014765D01*
X014160Y014732D01*
X014201Y014701D01*
X014245Y014674D01*
X014290Y014650D01*
X014338Y014630D01*
X014386Y014613D01*
X014436Y014600D01*
X014487Y014591D01*
X014538Y014585D01*
X014538Y014671D01*
X014491Y014676D01*
X014445Y014685D01*
X014400Y014698D01*
X014356Y014714D01*
X014314Y014734D01*
X014273Y014756D01*
X014234Y014782D01*
X014197Y014811D01*
X014162Y014843D01*
X014130Y014878D01*
X014101Y014915D01*
X014075Y014954D01*
X014053Y014995D01*
X014033Y015037D01*
X014017Y015081D01*
X014004Y015126D01*
X013995Y015172D01*
X013990Y015219D01*
X014075Y015219D01*
X014081Y015175D01*
X014090Y015132D01*
X014104Y015089D01*
X014121Y015048D01*
X014141Y015009D01*
X014165Y014971D01*
X014192Y014936D01*
X014222Y014903D01*
X014255Y014873D01*
X014290Y014846D01*
X014328Y014822D01*
X014367Y014802D01*
X014408Y014785D01*
X014451Y014771D01*
X014494Y014762D01*
X014538Y014756D01*
X014538Y014841D01*
X014500Y014847D01*
X014463Y014856D01*
X014426Y014869D01*
X014391Y014885D01*
X014358Y014904D01*
X014326Y014926D01*
X014296Y014950D01*
X014269Y014977D01*
X014245Y015007D01*
X014223Y015039D01*
X014204Y015072D01*
X014188Y015107D01*
X014175Y015144D01*
X014166Y015181D01*
X014160Y015219D01*
X014246Y015219D01*
X014252Y015186D01*
X014262Y015153D01*
X014274Y015121D01*
X014290Y015091D01*
X014309Y015062D01*
X014331Y015036D01*
X014355Y015012D01*
X014381Y014990D01*
X014410Y014971D01*
X014440Y014955D01*
X014472Y014943D01*
X014505Y014933D01*
X014538Y014927D01*
X002687Y015308D02*
X001874Y015308D01*
X001875Y015309D02*
X001867Y015342D01*
X001857Y015374D01*
X001842Y015405D01*
X001824Y015434D01*
X001803Y015460D01*
X001779Y015484D01*
X001753Y015505D01*
X001724Y015523D01*
X001693Y015538D01*
X001661Y015548D01*
X001628Y015556D01*
X001627Y016368D01*
X001628Y016368D01*
X001694Y016363D01*
X001759Y016355D01*
X001824Y016343D01*
X001887Y016326D01*
X001950Y016306D01*
X002011Y016283D01*
X002071Y016255D01*
X002129Y016224D01*
X002186Y016190D01*
X002240Y016153D01*
X002292Y016112D01*
X002341Y016068D01*
X002387Y016022D01*
X002431Y015973D01*
X002472Y015921D01*
X002509Y015867D01*
X002543Y015810D01*
X002574Y015752D01*
X002602Y015692D01*
X002625Y015631D01*
X002645Y015568D01*
X002662Y015505D01*
X002674Y015440D01*
X002682Y015375D01*
X002687Y015309D01*
X002602Y015309D01*
X002597Y015372D01*
X002589Y015434D01*
X002576Y015496D01*
X002560Y015557D01*
X002540Y015617D01*
X002517Y015675D01*
X002489Y015732D01*
X002459Y015787D01*
X002425Y015840D01*
X002388Y015891D01*
X002347Y015939D01*
X002304Y015985D01*
X002258Y016028D01*
X002210Y016069D01*
X002159Y016106D01*
X002106Y016140D01*
X002051Y016170D01*
X001994Y016198D01*
X001936Y016221D01*
X001876Y016241D01*
X001815Y016257D01*
X001753Y016270D01*
X001691Y016278D01*
X001628Y016283D01*
X001628Y016198D01*
X001688Y016193D01*
X001747Y016184D01*
X001806Y016172D01*
X001863Y016156D01*
X001920Y016136D01*
X001975Y016113D01*
X002029Y016086D01*
X002080Y016056D01*
X002130Y016022D01*
X002178Y015986D01*
X002223Y015946D01*
X002265Y015904D01*
X002305Y015859D01*
X002341Y015811D01*
X002375Y015761D01*
X002405Y015710D01*
X002432Y015656D01*
X002455Y015601D01*
X002475Y015544D01*
X002491Y015487D01*
X002503Y015428D01*
X002512Y015369D01*
X002517Y015309D01*
X002432Y015309D01*
X002427Y015365D01*
X002418Y015421D01*
X002406Y015477D01*
X002390Y015531D01*
X002370Y015584D01*
X002347Y015636D01*
X002321Y015686D01*
X002291Y015734D01*
X002259Y015780D01*
X002223Y015824D01*
X002184Y015865D01*
X002143Y015904D01*
X002099Y015940D01*
X002053Y015972D01*
X002005Y016002D01*
X001955Y016028D01*
X001903Y016051D01*
X001850Y016071D01*
X001796Y016087D01*
X001740Y016099D01*
X001684Y016108D01*
X001628Y016113D01*
X001628Y016028D01*
X001681Y016023D01*
X001733Y016014D01*
X001784Y016002D01*
X001835Y015986D01*
X001884Y015967D01*
X001932Y015945D01*
X001978Y015919D01*
X002023Y015890D01*
X002065Y015858D01*
X002105Y015823D01*
X002142Y015786D01*
X002177Y015746D01*
X002209Y015704D01*
X002238Y015659D01*
X002264Y015613D01*
X002286Y015565D01*
X002305Y015516D01*
X002321Y015465D01*
X002333Y015414D01*
X002342Y015362D01*
X002347Y015309D01*
X002262Y015309D01*
X002256Y015360D01*
X002247Y015411D01*
X002234Y015461D01*
X002217Y015509D01*
X002197Y015557D01*
X002173Y015602D01*
X002146Y015646D01*
X002115Y015687D01*
X002082Y015726D01*
X002045Y015763D01*
X002006Y015796D01*
X001965Y015827D01*
X001921Y015854D01*
X001876Y015878D01*
X001828Y015898D01*
X001780Y015915D01*
X001730Y015928D01*
X001679Y015937D01*
X001628Y015943D01*
X001628Y015857D01*
X001675Y015852D01*
X001721Y015843D01*
X001766Y015830D01*
X001810Y015814D01*
X001852Y015794D01*
X001893Y015772D01*
X001932Y015746D01*
X001969Y015717D01*
X002004Y015685D01*
X002036Y015650D01*
X002065Y015613D01*
X002091Y015574D01*
X002113Y015533D01*
X002133Y015491D01*
X002149Y015447D01*
X002162Y015402D01*
X002171Y015356D01*
X002176Y015309D01*
X002091Y015309D01*
X002085Y015353D01*
X002076Y015396D01*
X002062Y015439D01*
X002045Y015480D01*
X002025Y015519D01*
X002001Y015557D01*
X001974Y015592D01*
X001944Y015625D01*
X001911Y015655D01*
X001876Y015682D01*
X001838Y015706D01*
X001799Y015726D01*
X001758Y015743D01*
X001715Y015757D01*
X001672Y015766D01*
X001628Y015772D01*
X001628Y015687D01*
X001666Y015681D01*
X001703Y015672D01*
X001740Y015659D01*
X001775Y015643D01*
X001808Y015624D01*
X001840Y015602D01*
X001870Y015578D01*
X001897Y015551D01*
X001921Y015521D01*
X001943Y015489D01*
X001962Y015456D01*
X001978Y015421D01*
X001991Y015384D01*
X002000Y015347D01*
X002006Y015309D01*
X001920Y015309D01*
X001914Y015342D01*
X001904Y015375D01*
X001892Y015407D01*
X001876Y015437D01*
X001857Y015466D01*
X001835Y015492D01*
X001811Y015516D01*
X001785Y015538D01*
X001756Y015557D01*
X001726Y015573D01*
X001694Y015585D01*
X001661Y015595D01*
X001628Y015601D01*
X000479Y015220D02*
X001292Y015220D01*
X001291Y015219D02*
X001299Y015186D01*
X001309Y015154D01*
X001324Y015123D01*
X001342Y015094D01*
X001363Y015068D01*
X001387Y015044D01*
X001413Y015023D01*
X001442Y015005D01*
X001473Y014990D01*
X001505Y014980D01*
X001538Y014972D01*
X001539Y014160D01*
X001538Y014160D01*
X001472Y014165D01*
X001407Y014173D01*
X001342Y014185D01*
X001279Y014202D01*
X001216Y014222D01*
X001155Y014245D01*
X001095Y014273D01*
X001037Y014304D01*
X000980Y014338D01*
X000926Y014375D01*
X000874Y014416D01*
X000825Y014460D01*
X000779Y014506D01*
X000735Y014555D01*
X000694Y014607D01*
X000657Y014661D01*
X000623Y014718D01*
X000592Y014776D01*
X000564Y014836D01*
X000541Y014897D01*
X000521Y014960D01*
X000504Y015023D01*
X000492Y015088D01*
X000484Y015153D01*
X000479Y015219D01*
X000564Y015219D01*
X000569Y015156D01*
X000577Y015094D01*
X000590Y015032D01*
X000606Y014971D01*
X000626Y014911D01*
X000649Y014853D01*
X000677Y014796D01*
X000707Y014741D01*
X000741Y014688D01*
X000778Y014637D01*
X000819Y014589D01*
X000862Y014543D01*
X000908Y014500D01*
X000956Y014459D01*
X001007Y014422D01*
X001060Y014388D01*
X001115Y014358D01*
X001172Y014330D01*
X001230Y014307D01*
X001290Y014287D01*
X001351Y014271D01*
X001413Y014258D01*
X001475Y014250D01*
X001538Y014245D01*
X001538Y014330D01*
X001478Y014335D01*
X001419Y014344D01*
X001360Y014356D01*
X001303Y014372D01*
X001246Y014392D01*
X001191Y014415D01*
X001137Y014442D01*
X001086Y014472D01*
X001036Y014506D01*
X000988Y014542D01*
X000943Y014582D01*
X000901Y014624D01*
X000861Y014669D01*
X000825Y014717D01*
X000791Y014767D01*
X000761Y014818D01*
X000734Y014872D01*
X000711Y014927D01*
X000691Y014984D01*
X000675Y015041D01*
X000663Y015100D01*
X000654Y015159D01*
X000649Y015219D01*
X000734Y015219D01*
X000739Y015163D01*
X000748Y015107D01*
X000760Y015051D01*
X000776Y014997D01*
X000796Y014944D01*
X000819Y014892D01*
X000845Y014842D01*
X000875Y014794D01*
X000907Y014748D01*
X000943Y014704D01*
X000982Y014663D01*
X001023Y014624D01*
X001067Y014588D01*
X001113Y014556D01*
X001161Y014526D01*
X001211Y014500D01*
X001263Y014477D01*
X001316Y014457D01*
X001370Y014441D01*
X001426Y014429D01*
X001482Y014420D01*
X001538Y014415D01*
X001538Y014500D01*
X001485Y014505D01*
X001433Y014514D01*
X001382Y014526D01*
X001331Y014542D01*
X001282Y014561D01*
X001234Y014583D01*
X001188Y014609D01*
X001143Y014638D01*
X001101Y014670D01*
X001061Y014705D01*
X001024Y014742D01*
X000989Y014782D01*
X000957Y014824D01*
X000928Y014869D01*
X000902Y014915D01*
X000880Y014963D01*
X000861Y015012D01*
X000845Y015063D01*
X000833Y015114D01*
X000824Y015166D01*
X000819Y015219D01*
X000904Y015219D01*
X000910Y015168D01*
X000919Y015117D01*
X000932Y015067D01*
X000949Y015019D01*
X000969Y014971D01*
X000993Y014926D01*
X001020Y014882D01*
X001051Y014841D01*
X001084Y014802D01*
X001121Y014765D01*
X001160Y014732D01*
X001201Y014701D01*
X001245Y014674D01*
X001290Y014650D01*
X001338Y014630D01*
X001386Y014613D01*
X001436Y014600D01*
X001487Y014591D01*
X001538Y014585D01*
X001538Y014671D01*
X001491Y014676D01*
X001445Y014685D01*
X001400Y014698D01*
X001356Y014714D01*
X001314Y014734D01*
X001273Y014756D01*
X001234Y014782D01*
X001197Y014811D01*
X001162Y014843D01*
X001130Y014878D01*
X001101Y014915D01*
X001075Y014954D01*
X001053Y014995D01*
X001033Y015037D01*
X001017Y015081D01*
X001004Y015126D01*
X000995Y015172D01*
X000990Y015219D01*
X001075Y015219D01*
X001081Y015175D01*
X001090Y015132D01*
X001104Y015089D01*
X001121Y015048D01*
X001141Y015009D01*
X001165Y014971D01*
X001192Y014936D01*
X001222Y014903D01*
X001255Y014873D01*
X001290Y014846D01*
X001328Y014822D01*
X001367Y014802D01*
X001408Y014785D01*
X001451Y014771D01*
X001494Y014762D01*
X001538Y014756D01*
X001538Y014841D01*
X001500Y014847D01*
X001463Y014856D01*
X001426Y014869D01*
X001391Y014885D01*
X001358Y014904D01*
X001326Y014926D01*
X001296Y014950D01*
X001269Y014977D01*
X001245Y015007D01*
X001223Y015039D01*
X001204Y015072D01*
X001188Y015107D01*
X001175Y015144D01*
X001166Y015181D01*
X001160Y015219D01*
X001246Y015219D01*
X001252Y015186D01*
X001262Y015153D01*
X001274Y015121D01*
X001290Y015091D01*
X001309Y015062D01*
X001331Y015036D01*
X001355Y015012D01*
X001381Y014990D01*
X001410Y014971D01*
X001440Y014955D01*
X001472Y014943D01*
X001505Y014933D01*
X001538Y014927D01*
X002687Y002308D02*
X001874Y002308D01*
X001875Y002309D02*
X001867Y002342D01*
X001857Y002374D01*
X001842Y002405D01*
X001824Y002434D01*
X001803Y002460D01*
X001779Y002484D01*
X001753Y002505D01*
X001724Y002523D01*
X001693Y002538D01*
X001661Y002548D01*
X001628Y002556D01*
X001627Y003368D01*
X001628Y003368D01*
X001694Y003363D01*
X001759Y003355D01*
X001824Y003343D01*
X001887Y003326D01*
X001950Y003306D01*
X002011Y003283D01*
X002071Y003255D01*
X002129Y003224D01*
X002186Y003190D01*
X002240Y003153D01*
X002292Y003112D01*
X002341Y003068D01*
X002387Y003022D01*
X002431Y002973D01*
X002472Y002921D01*
X002509Y002867D01*
X002543Y002810D01*
X002574Y002752D01*
X002602Y002692D01*
X002625Y002631D01*
X002645Y002568D01*
X002662Y002505D01*
X002674Y002440D01*
X002682Y002375D01*
X002687Y002309D01*
X002602Y002309D01*
X002597Y002372D01*
X002589Y002434D01*
X002576Y002496D01*
X002560Y002557D01*
X002540Y002617D01*
X002517Y002675D01*
X002489Y002732D01*
X002459Y002787D01*
X002425Y002840D01*
X002388Y002891D01*
X002347Y002939D01*
X002304Y002985D01*
X002258Y003028D01*
X002210Y003069D01*
X002159Y003106D01*
X002106Y003140D01*
X002051Y003170D01*
X001994Y003198D01*
X001936Y003221D01*
X001876Y003241D01*
X001815Y003257D01*
X001753Y003270D01*
X001691Y003278D01*
X001628Y003283D01*
X001628Y003198D01*
X001688Y003193D01*
X001747Y003184D01*
X001806Y003172D01*
X001863Y003156D01*
X001920Y003136D01*
X001975Y003113D01*
X002029Y003086D01*
X002080Y003056D01*
X002130Y003022D01*
X002178Y002986D01*
X002223Y002946D01*
X002265Y002904D01*
X002305Y002859D01*
X002341Y002811D01*
X002375Y002761D01*
X002405Y002710D01*
X002432Y002656D01*
X002455Y002601D01*
X002475Y002544D01*
X002491Y002487D01*
X002503Y002428D01*
X002512Y002369D01*
X002517Y002309D01*
X002432Y002309D01*
X002427Y002365D01*
X002418Y002421D01*
X002406Y002477D01*
X002390Y002531D01*
X002370Y002584D01*
X002347Y002636D01*
X002321Y002686D01*
X002291Y002734D01*
X002259Y002780D01*
X002223Y002824D01*
X002184Y002865D01*
X002143Y002904D01*
X002099Y002940D01*
X002053Y002972D01*
X002005Y003002D01*
X001955Y003028D01*
X001903Y003051D01*
X001850Y003071D01*
X001796Y003087D01*
X001740Y003099D01*
X001684Y003108D01*
X001628Y003113D01*
X001628Y003028D01*
X001681Y003023D01*
X001733Y003014D01*
X001784Y003002D01*
X001835Y002986D01*
X001884Y002967D01*
X001932Y002945D01*
X001978Y002919D01*
X002023Y002890D01*
X002065Y002858D01*
X002105Y002823D01*
X002142Y002786D01*
X002177Y002746D01*
X002209Y002704D01*
X002238Y002659D01*
X002264Y002613D01*
X002286Y002565D01*
X002305Y002516D01*
X002321Y002465D01*
X002333Y002414D01*
X002342Y002362D01*
X002347Y002309D01*
X002262Y002309D01*
X002256Y002360D01*
X002247Y002411D01*
X002234Y002461D01*
X002217Y002509D01*
X002197Y002557D01*
X002173Y002602D01*
X002146Y002646D01*
X002115Y002687D01*
X002082Y002726D01*
X002045Y002763D01*
X002006Y002796D01*
X001965Y002827D01*
X001921Y002854D01*
X001876Y002878D01*
X001828Y002898D01*
X001780Y002915D01*
X001730Y002928D01*
X001679Y002937D01*
X001628Y002943D01*
X001628Y002857D01*
X001675Y002852D01*
X001721Y002843D01*
X001766Y002830D01*
X001810Y002814D01*
X001852Y002794D01*
X001893Y002772D01*
X001932Y002746D01*
X001969Y002717D01*
X002004Y002685D01*
X002036Y002650D01*
X002065Y002613D01*
X002091Y002574D01*
X002113Y002533D01*
X002133Y002491D01*
X002149Y002447D01*
X002162Y002402D01*
X002171Y002356D01*
X002176Y002309D01*
X002091Y002309D01*
X002085Y002353D01*
X002076Y002396D01*
X002062Y002439D01*
X002045Y002480D01*
X002025Y002519D01*
X002001Y002557D01*
X001974Y002592D01*
X001944Y002625D01*
X001911Y002655D01*
X001876Y002682D01*
X001838Y002706D01*
X001799Y002726D01*
X001758Y002743D01*
X001715Y002757D01*
X001672Y002766D01*
X001628Y002772D01*
X001628Y002687D01*
X001666Y002681D01*
X001703Y002672D01*
X001740Y002659D01*
X001775Y002643D01*
X001808Y002624D01*
X001840Y002602D01*
X001870Y002578D01*
X001897Y002551D01*
X001921Y002521D01*
X001943Y002489D01*
X001962Y002456D01*
X001978Y002421D01*
X001991Y002384D01*
X002000Y002347D01*
X002006Y002309D01*
X001920Y002309D01*
X001914Y002342D01*
X001904Y002375D01*
X001892Y002407D01*
X001876Y002437D01*
X001857Y002466D01*
X001835Y002492D01*
X001811Y002516D01*
X001785Y002538D01*
X001756Y002557D01*
X001726Y002573D01*
X001694Y002585D01*
X001661Y002595D01*
X001628Y002601D01*
X000479Y002220D02*
X001292Y002220D01*
X001291Y002219D02*
X001299Y002186D01*
X001309Y002154D01*
X001324Y002123D01*
X001342Y002094D01*
X001363Y002068D01*
X001387Y002044D01*
X001413Y002023D01*
X001442Y002005D01*
X001473Y001990D01*
X001505Y001980D01*
X001538Y001972D01*
X001539Y001160D01*
X001538Y001160D01*
X001472Y001165D01*
X001407Y001173D01*
X001342Y001185D01*
X001279Y001202D01*
X001216Y001222D01*
X001155Y001245D01*
X001095Y001273D01*
X001037Y001304D01*
X000980Y001338D01*
X000926Y001375D01*
X000874Y001416D01*
X000825Y001460D01*
X000779Y001506D01*
X000735Y001555D01*
X000694Y001607D01*
X000657Y001661D01*
X000623Y001718D01*
X000592Y001776D01*
X000564Y001836D01*
X000541Y001897D01*
X000521Y001960D01*
X000504Y002023D01*
X000492Y002088D01*
X000484Y002153D01*
X000479Y002219D01*
X000564Y002219D01*
X000569Y002156D01*
X000577Y002094D01*
X000590Y002032D01*
X000606Y001971D01*
X000626Y001911D01*
X000649Y001853D01*
X000677Y001796D01*
X000707Y001741D01*
X000741Y001688D01*
X000778Y001637D01*
X000819Y001589D01*
X000862Y001543D01*
X000908Y001500D01*
X000956Y001459D01*
X001007Y001422D01*
X001060Y001388D01*
X001115Y001358D01*
X001172Y001330D01*
X001230Y001307D01*
X001290Y001287D01*
X001351Y001271D01*
X001413Y001258D01*
X001475Y001250D01*
X001538Y001245D01*
X001538Y001330D01*
X001478Y001335D01*
X001419Y001344D01*
X001360Y001356D01*
X001303Y001372D01*
X001246Y001392D01*
X001191Y001415D01*
X001137Y001442D01*
X001086Y001472D01*
X001036Y001506D01*
X000988Y001542D01*
X000943Y001582D01*
X000901Y001624D01*
X000861Y001669D01*
X000825Y001717D01*
X000791Y001767D01*
X000761Y001818D01*
X000734Y001872D01*
X000711Y001927D01*
X000691Y001984D01*
X000675Y002041D01*
X000663Y002100D01*
X000654Y002159D01*
X000649Y002219D01*
X000734Y002219D01*
X000739Y002163D01*
X000748Y002107D01*
X000760Y002051D01*
X000776Y001997D01*
X000796Y001944D01*
X000819Y001892D01*
X000845Y001842D01*
X000875Y001794D01*
X000907Y001748D01*
X000943Y001704D01*
X000982Y001663D01*
X001023Y001624D01*
X001067Y001588D01*
X001113Y001556D01*
X001161Y001526D01*
X001211Y001500D01*
X001263Y001477D01*
X001316Y001457D01*
X001370Y001441D01*
X001426Y001429D01*
X001482Y001420D01*
X001538Y001415D01*
X001538Y001500D01*
X001485Y001505D01*
X001433Y001514D01*
X001382Y001526D01*
X001331Y001542D01*
X001282Y001561D01*
X001234Y001583D01*
X001188Y001609D01*
X001143Y001638D01*
X001101Y001670D01*
X001061Y001705D01*
X001024Y001742D01*
X000989Y001782D01*
X000957Y001824D01*
X000928Y001869D01*
X000902Y001915D01*
X000880Y001963D01*
X000861Y002012D01*
X000845Y002063D01*
X000833Y002114D01*
X000824Y002166D01*
X000819Y002219D01*
X000904Y002219D01*
X000910Y002168D01*
X000919Y002117D01*
X000932Y002067D01*
X000949Y002019D01*
X000969Y001971D01*
X000993Y001926D01*
X001020Y001882D01*
X001051Y001841D01*
X001084Y001802D01*
X001121Y001765D01*
X001160Y001732D01*
X001201Y001701D01*
X001245Y001674D01*
X001290Y001650D01*
X001338Y001630D01*
X001386Y001613D01*
X001436Y001600D01*
X001487Y001591D01*
X001538Y001585D01*
X001538Y001671D01*
X001491Y001676D01*
X001445Y001685D01*
X001400Y001698D01*
X001356Y001714D01*
X001314Y001734D01*
X001273Y001756D01*
X001234Y001782D01*
X001197Y001811D01*
X001162Y001843D01*
X001130Y001878D01*
X001101Y001915D01*
X001075Y001954D01*
X001053Y001995D01*
X001033Y002037D01*
X001017Y002081D01*
X001004Y002126D01*
X000995Y002172D01*
X000990Y002219D01*
X001075Y002219D01*
X001081Y002175D01*
X001090Y002132D01*
X001104Y002089D01*
X001121Y002048D01*
X001141Y002009D01*
X001165Y001971D01*
X001192Y001936D01*
X001222Y001903D01*
X001255Y001873D01*
X001290Y001846D01*
X001328Y001822D01*
X001367Y001802D01*
X001408Y001785D01*
X001451Y001771D01*
X001494Y001762D01*
X001538Y001756D01*
X001538Y001841D01*
X001500Y001847D01*
X001463Y001856D01*
X001426Y001869D01*
X001391Y001885D01*
X001358Y001904D01*
X001326Y001926D01*
X001296Y001950D01*
X001269Y001977D01*
X001245Y002007D01*
X001223Y002039D01*
X001204Y002072D01*
X001188Y002107D01*
X001175Y002144D01*
X001166Y002181D01*
X001160Y002219D01*
X001246Y002219D01*
X001252Y002186D01*
X001262Y002153D01*
X001274Y002121D01*
X001290Y002091D01*
X001309Y002062D01*
X001331Y002036D01*
X001355Y002012D01*
X001381Y001990D01*
X001410Y001971D01*
X001440Y001955D01*
X001472Y001943D01*
X001505Y001933D01*
X001538Y001927D01*
D22*
X001333Y002264D02*
X001335Y002295D01*
X001341Y002326D01*
X001351Y002356D01*
X001364Y002384D01*
X001381Y002411D01*
X001401Y002435D01*
X001424Y002457D01*
X001449Y002475D01*
X001477Y002490D01*
X001506Y002502D01*
X001536Y002510D01*
X001567Y002514D01*
X001599Y002514D01*
X001630Y002510D01*
X001660Y002502D01*
X001689Y002490D01*
X001717Y002475D01*
X001742Y002457D01*
X001765Y002435D01*
X001785Y002411D01*
X001802Y002384D01*
X001815Y002356D01*
X001825Y002326D01*
X001831Y002295D01*
X001833Y002264D01*
X001831Y002233D01*
X001825Y002202D01*
X001815Y002172D01*
X001802Y002144D01*
X001785Y002117D01*
X001765Y002093D01*
X001742Y002071D01*
X001717Y002053D01*
X001689Y002038D01*
X001660Y002026D01*
X001630Y002018D01*
X001599Y002014D01*
X001567Y002014D01*
X001536Y002018D01*
X001506Y002026D01*
X001477Y002038D01*
X001449Y002053D01*
X001424Y002071D01*
X001401Y002093D01*
X001381Y002117D01*
X001364Y002144D01*
X001351Y002172D01*
X001341Y002202D01*
X001335Y002233D01*
X001333Y002264D01*
X001333Y015264D02*
X001335Y015295D01*
X001341Y015326D01*
X001351Y015356D01*
X001364Y015384D01*
X001381Y015411D01*
X001401Y015435D01*
X001424Y015457D01*
X001449Y015475D01*
X001477Y015490D01*
X001506Y015502D01*
X001536Y015510D01*
X001567Y015514D01*
X001599Y015514D01*
X001630Y015510D01*
X001660Y015502D01*
X001689Y015490D01*
X001717Y015475D01*
X001742Y015457D01*
X001765Y015435D01*
X001785Y015411D01*
X001802Y015384D01*
X001815Y015356D01*
X001825Y015326D01*
X001831Y015295D01*
X001833Y015264D01*
X001831Y015233D01*
X001825Y015202D01*
X001815Y015172D01*
X001802Y015144D01*
X001785Y015117D01*
X001765Y015093D01*
X001742Y015071D01*
X001717Y015053D01*
X001689Y015038D01*
X001660Y015026D01*
X001630Y015018D01*
X001599Y015014D01*
X001567Y015014D01*
X001536Y015018D01*
X001506Y015026D01*
X001477Y015038D01*
X001449Y015053D01*
X001424Y015071D01*
X001401Y015093D01*
X001381Y015117D01*
X001364Y015144D01*
X001351Y015172D01*
X001341Y015202D01*
X001335Y015233D01*
X001333Y015264D01*
X014333Y015264D02*
X014335Y015295D01*
X014341Y015326D01*
X014351Y015356D01*
X014364Y015384D01*
X014381Y015411D01*
X014401Y015435D01*
X014424Y015457D01*
X014449Y015475D01*
X014477Y015490D01*
X014506Y015502D01*
X014536Y015510D01*
X014567Y015514D01*
X014599Y015514D01*
X014630Y015510D01*
X014660Y015502D01*
X014689Y015490D01*
X014717Y015475D01*
X014742Y015457D01*
X014765Y015435D01*
X014785Y015411D01*
X014802Y015384D01*
X014815Y015356D01*
X014825Y015326D01*
X014831Y015295D01*
X014833Y015264D01*
X014831Y015233D01*
X014825Y015202D01*
X014815Y015172D01*
X014802Y015144D01*
X014785Y015117D01*
X014765Y015093D01*
X014742Y015071D01*
X014717Y015053D01*
X014689Y015038D01*
X014660Y015026D01*
X014630Y015018D01*
X014599Y015014D01*
X014567Y015014D01*
X014536Y015018D01*
X014506Y015026D01*
X014477Y015038D01*
X014449Y015053D01*
X014424Y015071D01*
X014401Y015093D01*
X014381Y015117D01*
X014364Y015144D01*
X014351Y015172D01*
X014341Y015202D01*
X014335Y015233D01*
X014333Y015264D01*
X014333Y002264D02*
X014335Y002295D01*
X014341Y002326D01*
X014351Y002356D01*
X014364Y002384D01*
X014381Y002411D01*
X014401Y002435D01*
X014424Y002457D01*
X014449Y002475D01*
X014477Y002490D01*
X014506Y002502D01*
X014536Y002510D01*
X014567Y002514D01*
X014599Y002514D01*
X014630Y002510D01*
X014660Y002502D01*
X014689Y002490D01*
X014717Y002475D01*
X014742Y002457D01*
X014765Y002435D01*
X014785Y002411D01*
X014802Y002384D01*
X014815Y002356D01*
X014825Y002326D01*
X014831Y002295D01*
X014833Y002264D01*
X014831Y002233D01*
X014825Y002202D01*
X014815Y002172D01*
X014802Y002144D01*
X014785Y002117D01*
X014765Y002093D01*
X014742Y002071D01*
X014717Y002053D01*
X014689Y002038D01*
X014660Y002026D01*
X014630Y002018D01*
X014599Y002014D01*
X014567Y002014D01*
X014536Y002018D01*
X014506Y002026D01*
X014477Y002038D01*
X014449Y002053D01*
X014424Y002071D01*
X014401Y002093D01*
X014381Y002117D01*
X014364Y002144D01*
X014351Y002172D01*
X014341Y002202D01*
X014335Y002233D01*
X014333Y002264D01*
D23*
X013992Y002264D02*
X013994Y002312D01*
X014000Y002360D01*
X014010Y002407D01*
X014023Y002453D01*
X014041Y002498D01*
X014061Y002542D01*
X014086Y002584D01*
X014114Y002623D01*
X014144Y002660D01*
X014178Y002694D01*
X014215Y002726D01*
X014253Y002755D01*
X014294Y002780D01*
X014337Y002802D01*
X014382Y002820D01*
X014428Y002834D01*
X014475Y002845D01*
X014523Y002852D01*
X014571Y002855D01*
X014619Y002854D01*
X014667Y002849D01*
X014715Y002840D01*
X014761Y002828D01*
X014806Y002811D01*
X014850Y002791D01*
X014892Y002768D01*
X014932Y002741D01*
X014970Y002711D01*
X015005Y002678D01*
X015037Y002642D01*
X015067Y002604D01*
X015093Y002563D01*
X015115Y002520D01*
X015135Y002476D01*
X015150Y002431D01*
X015162Y002384D01*
X015170Y002336D01*
X015174Y002288D01*
X015174Y002240D01*
X015170Y002192D01*
X015162Y002144D01*
X015150Y002097D01*
X015135Y002052D01*
X015115Y002008D01*
X015093Y001965D01*
X015067Y001924D01*
X015037Y001886D01*
X015005Y001850D01*
X014970Y001817D01*
X014932Y001787D01*
X014892Y001760D01*
X014850Y001737D01*
X014806Y001717D01*
X014761Y001700D01*
X014715Y001688D01*
X014667Y001679D01*
X014619Y001674D01*
X014571Y001673D01*
X014523Y001676D01*
X014475Y001683D01*
X014428Y001694D01*
X014382Y001708D01*
X014337Y001726D01*
X014294Y001748D01*
X014253Y001773D01*
X014215Y001802D01*
X014178Y001834D01*
X014144Y001868D01*
X014114Y001905D01*
X014086Y001944D01*
X014061Y001986D01*
X014041Y002030D01*
X014023Y002075D01*
X014010Y002121D01*
X014000Y002168D01*
X013994Y002216D01*
X013992Y002264D01*
X013333Y001814D02*
X013333Y001314D01*
X013083Y001064D01*
X012583Y001064D01*
X012333Y001314D01*
X012083Y001064D01*
X011583Y001064D01*
X011333Y001314D01*
X011333Y001814D01*
X011583Y002064D01*
X012083Y002064D01*
X012333Y001814D01*
X012583Y002064D01*
X013083Y002064D01*
X013333Y001814D01*
X015233Y004764D02*
X014983Y005014D01*
X014983Y005514D01*
X015233Y005764D01*
X014983Y006014D01*
X014983Y006514D01*
X015233Y006764D01*
X014983Y007014D01*
X014983Y007514D01*
X015233Y007764D01*
X015733Y007764D01*
X015983Y007514D01*
X015983Y007014D01*
X015733Y006764D01*
X015983Y006514D01*
X015983Y006014D01*
X015733Y005764D01*
X015983Y005514D01*
X015983Y005014D01*
X015733Y004764D01*
X015233Y004764D01*
X015233Y007764D02*
X014983Y008014D01*
X014983Y008514D01*
X015233Y008764D01*
X014983Y009014D01*
X014983Y009514D01*
X015233Y009764D01*
X014983Y010014D01*
X014983Y010514D01*
X015233Y010764D01*
X014983Y011014D01*
X014983Y011514D01*
X015233Y011764D01*
X014983Y012014D01*
X014983Y012514D01*
X015233Y012764D01*
X014983Y013014D01*
X014983Y013514D01*
X015233Y013764D01*
X015733Y013764D01*
X015983Y013514D01*
X015983Y013014D01*
X015733Y012764D01*
X015983Y012514D01*
X015983Y012014D01*
X015733Y011764D01*
X015983Y011514D01*
X015983Y011014D01*
X015733Y010764D01*
X015233Y010764D01*
X015733Y010764D01*
X015983Y010514D01*
X015983Y010014D01*
X015733Y009764D01*
X015983Y009514D01*
X015983Y009014D01*
X015733Y008764D01*
X015983Y008514D01*
X015983Y008014D01*
X015733Y007764D01*
X015233Y007764D01*
X011681Y008459D02*
X011681Y006569D01*
X011485Y006569D01*
X011485Y008459D01*
X011681Y008459D01*
X011485Y008459D02*
X010185Y008459D01*
X010185Y006569D01*
X011485Y006569D01*
X007131Y006569D02*
X006935Y006569D01*
X006935Y008459D01*
X007131Y008459D01*
X007131Y006569D01*
X006935Y006569D02*
X005635Y006569D01*
X005635Y008459D01*
X006935Y008459D01*
X000992Y002264D02*
X000994Y002312D01*
X001000Y002360D01*
X001010Y002407D01*
X001023Y002453D01*
X001041Y002498D01*
X001061Y002542D01*
X001086Y002584D01*
X001114Y002623D01*
X001144Y002660D01*
X001178Y002694D01*
X001215Y002726D01*
X001253Y002755D01*
X001294Y002780D01*
X001337Y002802D01*
X001382Y002820D01*
X001428Y002834D01*
X001475Y002845D01*
X001523Y002852D01*
X001571Y002855D01*
X001619Y002854D01*
X001667Y002849D01*
X001715Y002840D01*
X001761Y002828D01*
X001806Y002811D01*
X001850Y002791D01*
X001892Y002768D01*
X001932Y002741D01*
X001970Y002711D01*
X002005Y002678D01*
X002037Y002642D01*
X002067Y002604D01*
X002093Y002563D01*
X002115Y002520D01*
X002135Y002476D01*
X002150Y002431D01*
X002162Y002384D01*
X002170Y002336D01*
X002174Y002288D01*
X002174Y002240D01*
X002170Y002192D01*
X002162Y002144D01*
X002150Y002097D01*
X002135Y002052D01*
X002115Y002008D01*
X002093Y001965D01*
X002067Y001924D01*
X002037Y001886D01*
X002005Y001850D01*
X001970Y001817D01*
X001932Y001787D01*
X001892Y001760D01*
X001850Y001737D01*
X001806Y001717D01*
X001761Y001700D01*
X001715Y001688D01*
X001667Y001679D01*
X001619Y001674D01*
X001571Y001673D01*
X001523Y001676D01*
X001475Y001683D01*
X001428Y001694D01*
X001382Y001708D01*
X001337Y001726D01*
X001294Y001748D01*
X001253Y001773D01*
X001215Y001802D01*
X001178Y001834D01*
X001144Y001868D01*
X001114Y001905D01*
X001086Y001944D01*
X001061Y001986D01*
X001041Y002030D01*
X001023Y002075D01*
X001010Y002121D01*
X001000Y002168D01*
X000994Y002216D01*
X000992Y002264D01*
X000992Y015264D02*
X000994Y015312D01*
X001000Y015360D01*
X001010Y015407D01*
X001023Y015453D01*
X001041Y015498D01*
X001061Y015542D01*
X001086Y015584D01*
X001114Y015623D01*
X001144Y015660D01*
X001178Y015694D01*
X001215Y015726D01*
X001253Y015755D01*
X001294Y015780D01*
X001337Y015802D01*
X001382Y015820D01*
X001428Y015834D01*
X001475Y015845D01*
X001523Y015852D01*
X001571Y015855D01*
X001619Y015854D01*
X001667Y015849D01*
X001715Y015840D01*
X001761Y015828D01*
X001806Y015811D01*
X001850Y015791D01*
X001892Y015768D01*
X001932Y015741D01*
X001970Y015711D01*
X002005Y015678D01*
X002037Y015642D01*
X002067Y015604D01*
X002093Y015563D01*
X002115Y015520D01*
X002135Y015476D01*
X002150Y015431D01*
X002162Y015384D01*
X002170Y015336D01*
X002174Y015288D01*
X002174Y015240D01*
X002170Y015192D01*
X002162Y015144D01*
X002150Y015097D01*
X002135Y015052D01*
X002115Y015008D01*
X002093Y014965D01*
X002067Y014924D01*
X002037Y014886D01*
X002005Y014850D01*
X001970Y014817D01*
X001932Y014787D01*
X001892Y014760D01*
X001850Y014737D01*
X001806Y014717D01*
X001761Y014700D01*
X001715Y014688D01*
X001667Y014679D01*
X001619Y014674D01*
X001571Y014673D01*
X001523Y014676D01*
X001475Y014683D01*
X001428Y014694D01*
X001382Y014708D01*
X001337Y014726D01*
X001294Y014748D01*
X001253Y014773D01*
X001215Y014802D01*
X001178Y014834D01*
X001144Y014868D01*
X001114Y014905D01*
X001086Y014944D01*
X001061Y014986D01*
X001041Y015030D01*
X001023Y015075D01*
X001010Y015121D01*
X001000Y015168D01*
X000994Y015216D01*
X000992Y015264D01*
X013992Y015264D02*
X013994Y015312D01*
X014000Y015360D01*
X014010Y015407D01*
X014023Y015453D01*
X014041Y015498D01*
X014061Y015542D01*
X014086Y015584D01*
X014114Y015623D01*
X014144Y015660D01*
X014178Y015694D01*
X014215Y015726D01*
X014253Y015755D01*
X014294Y015780D01*
X014337Y015802D01*
X014382Y015820D01*
X014428Y015834D01*
X014475Y015845D01*
X014523Y015852D01*
X014571Y015855D01*
X014619Y015854D01*
X014667Y015849D01*
X014715Y015840D01*
X014761Y015828D01*
X014806Y015811D01*
X014850Y015791D01*
X014892Y015768D01*
X014932Y015741D01*
X014970Y015711D01*
X015005Y015678D01*
X015037Y015642D01*
X015067Y015604D01*
X015093Y015563D01*
X015115Y015520D01*
X015135Y015476D01*
X015150Y015431D01*
X015162Y015384D01*
X015170Y015336D01*
X015174Y015288D01*
X015174Y015240D01*
X015170Y015192D01*
X015162Y015144D01*
X015150Y015097D01*
X015135Y015052D01*
X015115Y015008D01*
X015093Y014965D01*
X015067Y014924D01*
X015037Y014886D01*
X015005Y014850D01*
X014970Y014817D01*
X014932Y014787D01*
X014892Y014760D01*
X014850Y014737D01*
X014806Y014717D01*
X014761Y014700D01*
X014715Y014688D01*
X014667Y014679D01*
X014619Y014674D01*
X014571Y014673D01*
X014523Y014676D01*
X014475Y014683D01*
X014428Y014694D01*
X014382Y014708D01*
X014337Y014726D01*
X014294Y014748D01*
X014253Y014773D01*
X014215Y014802D01*
X014178Y014834D01*
X014144Y014868D01*
X014114Y014905D01*
X014086Y014944D01*
X014061Y014986D01*
X014041Y015030D01*
X014023Y015075D01*
X014010Y015121D01*
X014000Y015168D01*
X013994Y015216D01*
X013992Y015264D01*
D24*
X012583Y015264D03*
X011583Y015264D03*
X010583Y015264D03*
X009583Y015264D03*
X008583Y015264D03*
X007583Y015264D03*
X006583Y015264D03*
X005583Y015264D03*
X004583Y015264D03*
X003583Y015264D03*
X003483Y006264D03*
X003483Y005264D03*
X003483Y004264D03*
X004483Y004264D03*
X004483Y005264D03*
X004483Y006264D03*
X011833Y001564D03*
X012833Y001564D03*
X015483Y005264D03*
X015483Y006264D03*
X015483Y007264D03*
X015483Y008264D03*
X015483Y009264D03*
X015483Y010264D03*
X015483Y011264D03*
X015483Y012264D03*
X015483Y013264D03*
D25*
X013083Y014114D02*
X012833Y014114D01*
X012833Y014364D01*
X012333Y014364D01*
X012333Y014114D01*
X011833Y014114D01*
X011833Y014364D01*
X011333Y014364D01*
X011333Y014114D01*
X010833Y014114D01*
X010333Y014114D01*
X010333Y014364D01*
X010833Y014364D01*
X010833Y014114D01*
X011083Y014114D02*
X008083Y014114D01*
X008083Y015264D01*
X008083Y016414D01*
X008583Y016414D01*
X008583Y016014D01*
X008683Y015814D01*
X012483Y015814D01*
X012583Y016014D01*
X012583Y016414D01*
X012483Y016414D02*
X012483Y016014D01*
X012583Y016014D01*
X012483Y016014D02*
X008683Y016014D01*
X008683Y016414D01*
X011083Y016414D01*
X013083Y016414D01*
X013083Y015264D01*
X013083Y014114D01*
X012833Y014114D02*
X012333Y014114D01*
X011833Y014114D02*
X011333Y014114D01*
X010333Y014114D02*
X009833Y014114D01*
X009833Y014364D01*
X009333Y014364D01*
X009333Y014114D01*
X008833Y014114D01*
X008833Y014364D01*
X008333Y014364D01*
X008333Y014114D01*
X008183Y014114D01*
X008083Y014114D02*
X007833Y014114D01*
X007833Y014364D01*
X007333Y014364D01*
X007333Y014114D01*
X006833Y014114D01*
X006833Y014364D01*
X006333Y014364D01*
X006333Y014114D01*
X005833Y014114D01*
X005333Y014114D01*
X005333Y014364D01*
X005833Y014364D01*
X005833Y014114D01*
X006083Y014114D02*
X003083Y014114D01*
X003083Y015264D01*
X003083Y016414D01*
X003583Y016414D01*
X003583Y016014D01*
X003683Y015814D01*
X007483Y015814D01*
X007583Y016014D01*
X007583Y016414D01*
X007483Y016414D02*
X007483Y016014D01*
X007583Y016014D01*
X007483Y016014D02*
X003683Y016014D01*
X003683Y016414D01*
X006083Y016414D01*
X008083Y016414D01*
X008083Y015264D01*
X008083Y014114D01*
X007833Y014114D02*
X007333Y014114D01*
X006833Y014114D02*
X006333Y014114D01*
X005333Y014114D02*
X004833Y014114D01*
X004833Y014364D01*
X004333Y014364D01*
X004333Y014114D01*
X003833Y014114D01*
X003833Y014364D01*
X003333Y014364D01*
X003333Y014114D01*
X003183Y014114D01*
X003583Y016014D02*
X003683Y016014D01*
X003683Y016414D02*
X003583Y016414D01*
X008583Y016414D02*
X008683Y016414D01*
X008683Y016014D02*
X008583Y016014D01*
X011852Y004398D02*
X012915Y004398D01*
X012915Y002430D01*
X011852Y002430D01*
X011852Y004398D01*
X012383Y003729D02*
X012009Y003158D01*
X012757Y003158D01*
X012383Y003729D01*
X011210Y003460D02*
X009357Y003460D01*
X009357Y001068D01*
X011210Y001068D01*
X011210Y003460D01*
X009210Y003460D02*
X007357Y003460D01*
X007357Y001068D01*
X009210Y001068D01*
X009210Y003460D01*
X004810Y003460D02*
X004810Y001068D01*
X002957Y001068D01*
X002957Y003460D01*
X004810Y003460D01*
D26*
X012373Y004487D03*
X012373Y002341D03*
D27*
X012383Y003748D03*
D28*
X012868Y010116D02*
X010938Y010116D01*
X010938Y011651D01*
X012868Y011651D01*
X012868Y011061D01*
X012868Y010667D01*
X012868Y010116D01*
X012868Y010667D02*
X012841Y010669D01*
X012815Y010674D01*
X012790Y010683D01*
X012766Y010696D01*
X012744Y010711D01*
X012724Y010730D01*
X012707Y010750D01*
X012693Y010773D01*
X012682Y010798D01*
X012675Y010824D01*
X012671Y010851D01*
X012671Y010877D01*
X012675Y010904D01*
X012682Y010930D01*
X012693Y010955D01*
X012707Y010978D01*
X012724Y010998D01*
X012744Y011017D01*
X012766Y011032D01*
X012790Y011045D01*
X012815Y011054D01*
X012841Y011059D01*
X012868Y011061D01*
X008268Y011061D02*
X008268Y010667D01*
X008268Y010116D01*
X006338Y010116D01*
X006338Y011651D01*
X008268Y011651D01*
X008268Y011061D01*
X008241Y011059D01*
X008215Y011054D01*
X008190Y011045D01*
X008166Y011032D01*
X008144Y011017D01*
X008124Y010998D01*
X008107Y010978D01*
X008093Y010955D01*
X008082Y010930D01*
X008075Y010904D01*
X008071Y010877D01*
X008071Y010851D01*
X008075Y010824D01*
X008082Y010798D01*
X008093Y010773D01*
X008107Y010750D01*
X008124Y010730D01*
X008144Y010711D01*
X008166Y010696D01*
X008190Y010683D01*
X008215Y010674D01*
X008241Y010669D01*
X008268Y010667D01*
X008583Y016264D02*
X008583Y016414D01*
X003583Y016414D02*
X003583Y016264D01*
X002808Y006379D02*
X002808Y006078D01*
X002808Y006228D02*
X002358Y006228D01*
X002508Y006078D01*
X004258Y003529D02*
X004333Y003378D01*
X004483Y003228D01*
X004483Y003454D01*
X004558Y003529D01*
X004633Y003529D01*
X004708Y003454D01*
X004708Y003303D01*
X004633Y003228D01*
X004483Y003228D01*
D29*
X004683Y009868D03*
X004683Y010459D03*
X009283Y010459D03*
X009283Y009868D03*
D30*
X009929Y008264D03*
X009929Y007764D03*
X009929Y007264D03*
X009929Y006764D03*
X011937Y006764D03*
X011937Y007264D03*
X011937Y007764D03*
X011937Y008264D03*
X007387Y008264D03*
X007387Y007764D03*
X007387Y007264D03*
X007387Y006764D03*
X005379Y006764D03*
X005379Y007264D03*
X005379Y007764D03*
X005379Y008264D03*
D31*
X005682Y009841D03*
X005685Y010886D03*
X010285Y010886D03*
X010282Y009841D03*
D32*
X010529Y008914D03*
X009938Y008914D03*
X005729Y008914D03*
X005138Y008914D03*
D33*
X004283Y007714D03*
X003783Y007714D03*
X003783Y007114D03*
X004283Y007114D03*
X008383Y007114D03*
X008383Y007714D03*
X008883Y007714D03*
X008883Y007114D03*
D34*
X008862Y008266D03*
X008402Y008266D03*
X004262Y008266D03*
X003802Y008266D03*
M02*
