G75*
%MOIN*%
%OFA0B0*%
%FSLAX24Y24*%
%IPPOS*%
%LPD*%
%AMOC8*
5,1,8,0,0,1.08239X$1,22.5*
%
%ADD10C,0.0010*%
%ADD11R,0.0433X0.0394*%
%ADD12R,0.0472X0.0472*%
%ADD13R,0.0669X0.0709*%
%ADD14R,0.0256X0.0689*%
%ADD15R,0.1260X0.0906*%
%ADD16R,0.0630X0.0512*%
%ADD17R,0.0866X0.0236*%
%ADD18R,0.1063X0.0630*%
%ADD19R,0.1102X0.0394*%
%ADD20R,0.0512X0.0630*%
%ADD21R,0.0394X0.0433*%
D10*
X000233Y000914D02*
X000233Y016614D01*
X015933Y016614D01*
X015933Y000914D01*
X000233Y000914D01*
D11*
X005183Y002729D03*
X005783Y002729D03*
X006383Y002729D03*
X006983Y002729D03*
X006983Y003398D03*
X006383Y003398D03*
X005783Y003398D03*
X005183Y003398D03*
X004368Y008264D03*
X003699Y008264D03*
X008299Y008264D03*
X008968Y008264D03*
D12*
X006983Y002077D03*
X006383Y002077D03*
X005783Y002077D03*
X005183Y002077D03*
X005183Y001250D03*
X005783Y001250D03*
X006383Y001250D03*
X006983Y001250D03*
D13*
X012383Y002607D03*
X012383Y004221D03*
D14*
X012133Y009761D03*
X011633Y009761D03*
X011133Y009761D03*
X012633Y009761D03*
X012633Y011966D03*
X012133Y011966D03*
X011633Y011966D03*
X011133Y011966D03*
X008033Y011966D03*
X007533Y011966D03*
X007033Y011966D03*
X006533Y011966D03*
X006533Y009761D03*
X007033Y009761D03*
X007533Y009761D03*
X008033Y009761D03*
D15*
X007283Y010864D03*
X011883Y010864D03*
D16*
X009283Y010557D03*
X009283Y009770D03*
X004683Y009770D03*
X004683Y010557D03*
D17*
X005360Y008264D03*
X005360Y007764D03*
X005360Y007264D03*
X005360Y006764D03*
X007407Y006764D03*
X007407Y007264D03*
X007407Y007764D03*
X007407Y008264D03*
X009910Y008264D03*
X009910Y007764D03*
X009910Y007264D03*
X009910Y006764D03*
X011957Y006764D03*
X011957Y007264D03*
X011957Y007764D03*
X011957Y008264D03*
D18*
X010283Y009813D03*
X010283Y010915D03*
X005683Y010915D03*
X005683Y009813D03*
D19*
X009458Y004914D03*
X011309Y004914D03*
D20*
X010627Y008914D03*
X009840Y008914D03*
X005827Y008914D03*
X005040Y008914D03*
D21*
X004368Y007714D03*
X004368Y007114D03*
X003699Y007114D03*
X003699Y007714D03*
X008299Y007714D03*
X008299Y007114D03*
X008968Y007114D03*
X008968Y007714D03*
M02*
