G75*
%MOIN*%
%OFA0B0*%
%FSLAX24Y24*%
%IPPOS*%
%LPD*%
%AMOC8*
5,1,8,0,0,1.08239X$1,22.5*
%
%ADD10C,0.0010*%
%ADD11OC8,0.0740*%
%ADD12C,0.2180*%
%ADD13C,0.0820*%
%ADD14C,0.0812*%
%ADD15C,0.0740*%
%ADD16C,0.0740*%
%ADD17C,0.0560*%
D10*
X000233Y000914D02*
X000233Y016614D01*
X015933Y016614D01*
X015933Y000914D01*
X000233Y000914D01*
D11*
X001583Y004264D03*
X001583Y005264D03*
X001583Y006264D03*
X001583Y007264D03*
X001583Y008264D03*
X001583Y009264D03*
X001583Y010264D03*
X001583Y011264D03*
X001583Y012264D03*
X001583Y013264D03*
X002583Y013264D03*
X002583Y012264D03*
X002583Y011264D03*
X002583Y010264D03*
X002583Y009264D03*
X002583Y008264D03*
X002583Y007264D03*
X002583Y006264D03*
X002583Y005264D03*
X003483Y005264D03*
X003483Y004264D03*
X002583Y004264D03*
X004483Y004264D03*
X004483Y005264D03*
X004483Y006264D03*
X013583Y006264D03*
X013583Y007264D03*
X013583Y008264D03*
X013583Y009264D03*
X013583Y010264D03*
X013583Y011264D03*
X013583Y012264D03*
X013583Y013264D03*
X014583Y013264D03*
X014583Y012264D03*
X014583Y011264D03*
X014583Y010264D03*
X014583Y009264D03*
X014583Y008264D03*
X014583Y007264D03*
X014583Y006264D03*
X014583Y005264D03*
X013583Y005264D03*
X013583Y004264D03*
X014583Y004264D03*
D12*
X014583Y002264D03*
X014583Y015264D03*
X001583Y015264D03*
X001583Y002264D03*
D13*
X011833Y001564D03*
X012833Y001564D03*
X015483Y005264D03*
X015483Y006264D03*
X015483Y007264D03*
X015483Y008264D03*
X015483Y009264D03*
X015483Y010264D03*
X015483Y011264D03*
X015483Y012264D03*
X015483Y013264D03*
D14*
X010783Y002630D02*
X010783Y001898D01*
X009783Y001898D02*
X009783Y002630D01*
X008783Y002630D02*
X008783Y001898D01*
X007783Y001898D02*
X007783Y002630D01*
X004383Y002630D02*
X004383Y001898D01*
X003383Y001898D02*
X003383Y002630D01*
D15*
X003483Y006264D03*
D16*
X003583Y014934D02*
X003583Y015594D01*
X004583Y015594D02*
X004583Y014934D01*
X005583Y014934D02*
X005583Y015594D01*
X006583Y015594D02*
X006583Y014934D01*
X007583Y014934D02*
X007583Y015594D01*
X008583Y015594D02*
X008583Y014934D01*
X009583Y014934D02*
X009583Y015594D01*
X010583Y015594D02*
X010583Y014934D01*
X011583Y014934D02*
X011583Y015594D01*
X012583Y015594D02*
X012583Y014934D01*
D17*
X012333Y004914D03*
M02*
